<?xml version="1.0" encoding="UTF-8" standalone="no"?>
<!-- Created with Inkscape (http://www.inkscape.org/) -->

<svg
   xmlns:dc="http://purl.org/dc/elements/1.1/"
   xmlns:cc="http://creativecommons.org/ns#"
   xmlns:rdf="http://www.w3.org/1999/02/22-rdf-syntax-ns#"
   xmlns:svg="http://www.w3.org/2000/svg"
   xmlns="http://www.w3.org/2000/svg"
   xmlns:sodipodi="http://sodipodi.sourceforge.net/DTD/sodipodi-0.dtd"
   xmlns:inkscape="http://www.inkscape.org/namespaces/inkscape"
   width="212.74655mm"
   height="141.5441mm"
   viewBox="0 0 212.74655 141.5441"
   version="1.1"
   id="svg8"
   inkscape:version="0.92.4 (5da689c313, 2019-01-14)"
   sodipodi:docname="ecowas-card.svg">
  <defs
     id="defs2" />
  <sodipodi:namedview
     id="base"
     pagecolor="#ffffff"
     bordercolor="#666666"
     borderopacity="1.0"
     inkscape:pageopacity="0.0"
     inkscape:pageshadow="2"
     inkscape:zoom="0.49497475"
     inkscape:cx="96.442565"
     inkscape:cy="279.9014"
     inkscape:document-units="mm"
     inkscape:current-layer="layer1"
     showgrid="false"
     inkscape:window-width="1600"
     inkscape:window-height="838"
     inkscape:window-x="-8"
     inkscape:window-y="-8"
     inkscape:window-maximized="1"
     showguides="true"
     inkscape:guide-bbox="true" />
  <metadata
     id="metadata5">
    <rdf:RDF>
      <cc:Work
         rdf:about="">
        <dc:format>image/svg+xml</dc:format>
        <dc:type
           rdf:resource="http://purl.org/dc/dcmitype/StillImage" />
        <dc:title />
      </cc:Work>
    </rdf:RDF>
  </metadata>
  <g
     inkscape:label="Layer 1"
     inkscape:groupmode="layer"
     id="layer1"
     transform="translate(-4.2227931,-57.650573)">
    <g
       id="g1010">
      <path
         id="path817"
         d="m 19.630679,161.28796 -1.411023,-5.56532 a 72.266968,72.266968 0 0 0 -7.667069,-2.75071 l -0.178163,2.58643 -0.7224259,-2.84945 c -3.2310916,-0.92265 -5.429205,-1.32906 -5.429205,-1.32906 0,0 2.9691409,11.29074 9.1967049,19.92265 l 7.256462,1.27464 -5.637355,0.8128 a 29.237106,29.237106 0 0 0 2.521672,2.67233 c 9.059334,8.409 19.149748,12.2671 22.53755,8.61729 3.387801,-3.64981 -1.209892,-13.42541 -10.269236,-21.83442 -2.808483,-2.60687 -6.336538,-4.69887 -9.868098,-6.34531 z"
         inkscape:connector-curvature="0"
         style="fill:#e6e6e6;stroke-width:0.26458332" />
      <path
         id="path819"
         d="m 33.050557,155.24415 1.668828,-5.49352 a 72.266515,72.266515 0 0 0 -5.141516,-6.31786 l -1.489445,2.12201 0.854453,-2.81268 c -2.289043,-2.45999 -3.960656,-3.94411 -3.960656,-3.94411 0,0 -3.294478,11.20013 -2.425253,21.80847 l 5.553003,4.84204 -5.245967,-2.21816 a 29.237627,29.237627 0 0 0 0.777346,3.59108 c 3.408576,11.88128 10.052158,20.39972 14.838865,19.02648 4.786706,-1.37324 5.903891,-12.11815 2.495314,-23.99942 -1.056693,-3.68331 -2.995509,-7.29781 -5.167638,-10.53271 z"
         inkscape:connector-curvature="0"
         style="fill:#e6e6e6;stroke-width:0.26458332" />
      <rect
         id="rect821"
         height="0.59285718"
         width="212.72546"
         y="186.67459"
         x="4.2438774"
         style="fill:#3f3d56;stroke-width:0.25175869" />
      <path
         id="path823"
         d="m 41.364427,125.28149 c 0,0 -1.829668,21.9997 -2.222513,26.71384 a 33.525407,33.525407 0 0 1 -1.964225,8.64259 c 0,0 -0.78569,1.57138 -0.78569,3.14276 v 20.03509 c 0,0 -1.571379,0 -1.178534,1.57139 0.392845,1.57138 0.785688,4.32129 0.785688,4.32129 h 5.892676 c 0,0 -0.392843,-1.17853 0.785691,-1.57138 1.178533,-0.39284 0,-3.53561 0,-3.53561 l 6.28552,-23.5707 9.428282,-19.64225 c 0,0 5.49983,17.67803 6.678366,19.64225 0,0 4.321294,21.99933 5.106988,23.96355 0.785693,1.96422 1.178533,1.96422 0.785688,2.74992 -0.392846,0.78569 -0.392843,1.57137 0,1.96422 0.392843,0.39284 7.856902,0 7.856902,0 l -1.964227,-27.892 -3.535603,-33.39184 -18.070872,-5.49983 z"
         inkscape:connector-curvature="0"
         style="fill:#5b4f5e;fill-opacity:1;stroke-width:0.26458332" />
      <path
         id="path825"
         d="m 40.320452,186.56568 c 0,0 -1.964224,-7.07121 -5.106987,-1.57138 -3.142763,5.49983 -3.14276,7.46405 -3.14276,7.46405 0,0 -5.106988,7.46406 1.964224,6.67837 7.071212,-0.78569 5.49983,-4.32129 5.49983,-4.32129 0,0 2.749915,-1.57139 2.749915,-2.74992 0,-1.17853 -1.964222,-5.49983 -1.964222,-5.49983 z"
         inkscape:connector-curvature="0"
         style="fill:#2f2e41;stroke-width:0.26458332" />
      <path
         id="path827"
         d="m 72.1409,185.77999 c 0,0 1.964224,-7.07121 5.106987,-1.57138 3.142764,5.49983 3.142761,7.46406 3.142761,7.46406 0,0 5.106987,7.46405 -1.964224,6.67836 -7.071212,-0.78569 -5.499831,-4.32129 -5.499831,-4.32129 0,0 -2.749915,-1.57139 -2.749915,-2.74992 0,-1.17853 1.964222,-5.49983 1.964222,-5.49983 z"
         inkscape:connector-curvature="0"
         style="fill:#2f2e41;stroke-width:0.26458332" />
      <path
         id="path829"
         d="m 53.677183,72.247776 c 0,0 0.78569,5.106987 -1.571379,6.285518 -2.35707,1.178531 5.106987,5.499833 7.071211,5.499833 1.964225,0 5.499831,-3.928452 5.499831,-3.928452 0,0 -1.964227,-5.892675 -1.571382,-7.071211 z"
         inkscape:connector-curvature="0"
         style="fill:#a0616a;stroke-width:0.26458332" />
      <circle
         id="circle831"
         r="8.2497454"
         cy="67.926483"
         cx="57.998478"
         style="fill:#a0616a;stroke-width:0.26458332" />
      <path
         id="path833"
         d="M 74.105124,84.818815 64.28432,78.868706 c 0,0 -5.587762,6.342954 -11.633057,-0.728255 l -10.366589,2.749915 1.571382,26.713464 c 0,0 -2.35707,10.60681 -1.571382,12.57104 0.785688,1.96422 -1.964224,2.74991 -1.178533,3.14276 0.78569,0.39284 0,3.14276 0,3.14276 0,0 15.320962,7.8569 32.213285,1.96422 l -1.571382,-5.10698 a 4.1222533,4.1222533 0 0 0 -0.785691,-3.92846 c 0,0 1.571382,-2.35706 -0.392842,-4.32129 0,0 0.785688,-3.53561 -1.178537,-5.10699 l -0.392845,-5.49983 1.178536,-2.74991 z"
         inkscape:connector-curvature="0"
         style="fill:#cfcce0;stroke-width:0.26458332" />
      <path
         id="path835"
         d="m 53.776497,64.095892 c 0,0 -0.983536,2.128491 2.950612,1.277093 0,0 1.475316,0.851398 1.475316,-0.425696 0,0 1.967074,2.128491 2.458842,0.851395 0.491768,-1.277096 1.475317,0.425699 1.475317,0.425699 l 0.983535,-2.128491 0.983538,1.277093 h 3.442349 c 0,0 0.983535,-8.513961 -10.818908,-7.662563 -11.802443,0.851397 -5.996252,14.34093 -5.996252,14.34093 0,0 0.09504,-2.421385 1.078577,-1.144289 0.983535,1.277096 1.967074,-6.811171 1.967074,-6.811171 z"
         inkscape:connector-curvature="0"
         style="fill:#2f2e41;stroke-width:0.26458332" />
      <path
         id="path837"
         d="m 77.64073,100.53263 0.392846,8.24974 c 0,0 1.571381,15.32096 -1.571379,21.99931 v 3.5356 c 0,0 -0.785691,9.03544 -4.714142,8.64259 -3.928452,-0.39284 1.178536,-12.96388 1.178536,-12.96388 L 72.1409,112.71081 71.355212,102.88969 Z"
         inkscape:connector-curvature="0"
         style="fill:#a0616a;stroke-width:0.26458332" />
      <path
         id="path839"
         d="m 69.78383,85.211663 3.918826,-0.636688 a 19.132912,19.132912 0 0 1 5.509456,10.064969 c 1.178533,6.285526 1.571379,7.464056 1.571379,7.464056 l -9.428279,2.35707 -5.106988,-9.821128 z"
         inkscape:connector-curvature="0"
         style="fill:#cfcce0;stroke-width:0.26458332" />
      <rect
         id="rect841"
         height="30.796053"
         width="61.994667"
         y="80.728378"
         x="52.910519"
         style="fill:#ffffff;stroke-width:0.26458332" />
      <path
         id="path843"
         d="m 59.679959,82.580334 c -1.592704,-0.957792 -3.513137,-0.884634 -4.243202,-0.811477 0.278027,0.678786 1.112232,2.41014 2.704936,3.36841 1.596594,0.960216 3.514476,0.884875 4.243448,0.81221 -0.27791,-0.678547 -1.112231,-2.410626 -2.705182,-3.369143 z"
         inkscape:connector-curvature="0"
         style="fill:#ffa100;fill-opacity:1;stroke-width:0.26458332" />
      <path
         id="path845"
         d="m 67.164228,101.58611 h -9.954559 a 2.2397773,2.2397773 0 1 0 0,4.47955 h 9.954559 a 2.2397773,2.2397773 0 1 0 0,-4.47955 z"
         inkscape:connector-curvature="0"
         style="fill:#ffa100;fill-opacity:1;stroke-width:0.26458332" />
      <path
         id="path847"
         d="M 112.24192,77.944027 H 56.429767 a 4.9439591,4.9439591 0 0 0 -4.943969,4.94397 v 27.192793 a 4.9439697,4.9439697 0 0 0 4.943969,4.94397 h 55.812153 a 4.9439697,4.9439697 0 0 0 4.94397,-4.94397 V 82.887997 a 4.9439591,4.9439591 0 0 0 -4.94397,-4.94397 z m -57.193042,3.372546 c 0.110215,-0.01992 2.723652,-0.464677 4.887722,0.837486 2.16395,1.301916 2.995361,3.819477 3.02963,3.925927 l 0.08749,0.271462 -0.280823,0.04982 a 7.4545374,7.4545374 0 0 1 -1.211146,0.08895 7.2115679,7.2115679 0 0 1 -3.676698,-0.92668 c -2.16395,-1.301676 -2.995239,-3.819236 -3.029505,-3.925684 l -0.08749,-0.271462 z m 12.11535,25.246807 h -9.954559 a 2.737505,2.737505 0 0 1 0,-5.47501 h 9.954559 a 2.737505,2.737505 0 1 1 0,5.47501 z m 45.293252,-0.49773 a 2.9951547,2.9951547 0 0 1 -2.98637,2.98637 h -7.46592 a 2.9951547,2.9951547 0 0 1 -2.986368,-2.98637 v -4.47954 a 2.9951441,2.9951441 0 0 1 2.986368,-2.986369 h 7.46592 a 2.9951441,2.9951441 0 0 1 2.98637,2.986369 z"
         inkscape:connector-curvature="0"
         style="fill:#c87137;fill-opacity:1;stroke-width:0.26458332" />
      <path
         id="path849"
         d="m 104.36939,105.19464 h -3.23522 a 0.8710242,0.8710242 0 0 0 0,1.74204 h 3.23522 a 0.8710242,0.8710242 0 0 0 0,-1.74204 z m 0,1.24432 h -3.23522 a 0.3733,0.3733 0 1 1 0,-0.7466 h 3.23522 a 0.3733,0.3733 0 0 1 0,0.7466 z"
         inkscape:connector-curvature="0"
         style="fill:#c87137;fill-opacity:1;stroke-width:0.26458332" />
      <path
         id="path851"
         d="m 110.34213,105.19464 h -3.23523 a 0.8710242,0.8710242 0 0 0 0,1.74204 h 3.23523 a 0.8710242,0.8710242 0 0 0 0,-1.74204 z m 0,1.24432 h -3.23523 a 0.3733,0.3733 0 1 1 0,-0.7466 h 3.23523 a 0.3733,0.3733 0 0 1 0,0.7466 z"
         inkscape:connector-curvature="0"
         style="fill:#c87137;fill-opacity:1;stroke-width:0.26458332" />
      <path
         id="path853"
         d="m 104.36939,102.95486 h -3.23522 a 0.871025,0.871025 0 0 0 0,1.74205 h 3.23522 a 0.871025,0.871025 0 0 0 0,-1.74205 z m 0,1.24432 h -3.23522 a 0.37329533,0.37329533 0 1 1 0,-0.74659 h 3.23522 a 0.37329533,0.37329533 0 1 1 0,0.74659 z"
         inkscape:connector-curvature="0"
         style="fill:#c87137;fill-opacity:1;stroke-width:0.26458332" />
      <path
         id="path855"
         d="m 110.34213,102.95486 h -3.23523 a 0.871025,0.871025 0 0 0 0,1.74205 h 3.23523 a 0.871025,0.871025 0 0 0 0,-1.74205 z m 0,1.24432 h -3.23523 a 0.37329533,0.37329533 0 1 1 0,-0.74659 h 3.23523 a 0.37329533,0.37329533 0 1 1 0,0.74659 z"
         inkscape:connector-curvature="0"
         style="fill:#c87137;fill-opacity:1;stroke-width:0.26458332" />
      <path
         id="path857"
         d="m 104.36939,100.71508 h -3.23522 a 0.871025,0.871025 0 0 0 0,1.74205 h 3.23522 a 0.871025,0.871025 0 0 0 0,-1.74205 z m 0,1.24432 h -3.23522 a 0.37329797,0.37329797 0 1 1 0,-0.74659 h 3.23522 a 0.37329797,0.37329797 0 0 1 0,0.74659 z"
         inkscape:connector-curvature="0"
         style="fill:#c87137;fill-opacity:1;stroke-width:0.26458332" />
      <path
         id="path859"
         d="m 110.34213,100.71508 h -3.23523 a 0.871025,0.871025 0 0 0 0,1.74205 h 3.23523 a 0.871025,0.871025 0 0 0 0,-1.74205 z m 0,1.24432 h -3.23523 a 0.37329797,0.37329797 0 1 1 0,-0.74659 h 3.23523 a 0.37329797,0.37329797 0 0 1 0,0.74659 z"
         inkscape:connector-curvature="0"
         style="fill:#c87137;fill-opacity:1;stroke-width:0.26458332" />
      <path
         id="path861"
         d="m 36.392001,95.818478 c 0,0 -3.535603,14.928112 0.785691,14.928112 4.321294,0 14.535266,-16.892339 14.535266,-16.892339 0,0 10.606815,-5.49983 6.285521,-7.464055 -4.321294,-1.964224 -9.821127,3.142761 -9.821127,3.142761 l -6.346031,8.810601 -0.332343,-4.489307 z"
         inkscape:connector-curvature="0"
         style="fill:#a0616a;stroke-width:0.26458332" />
      <path
         id="path863"
         d="m 44.641749,83.247436 -2.357072,-2.35707 c 0,0 -4.71414,2.749915 -5.106988,5.49983 -0.392848,2.749916 -2.357069,11.392506 -2.357069,11.392506 l 7.267633,0.589267 2.357069,-3.535606 z"
         inkscape:connector-curvature="0"
         style="fill:#cfcce0;stroke-width:0.26458332" />
      <path
         id="path865"
         d="m 146.24648,89.829946 c -0.29595,-0.873863 -4.00721,-3.844345 -1.73304,-4.343627 l 1.86495,2.486707 8.57425,-8.574087 0.86236,0.862354 z"
         inkscape:connector-curvature="0"
         style="fill:#3f51b5;stroke-width:0.26458332;fill-opacity:1" />
      <path
         id="path867"
         d="m 146.24648,118.9855 c -0.29595,-0.87386 -4.00721,-3.84434 -1.73304,-4.34362 l 1.86495,2.48671 8.57425,-8.57411 0.86236,0.86235 z"
         inkscape:connector-curvature="0"
         style="fill:#3f51b5;stroke-width:0.26458332;fill-opacity:1" />
      <path
         id="path869"
         d="m 146.24648,148.5575 c -0.29595,-0.87386 -4.00721,-3.84434 -1.73304,-4.34362 l 1.86495,2.4867 8.57425,-8.57408 0.86236,0.86235 z"
         inkscape:connector-curvature="0"
         style="fill:#3f51b5;stroke-width:0.26458332;fill-opacity:1" />
      <circle
         id="circle871"
         r="2.6458333"
         cy="86.284653"
         cx="168.51373"
         style="fill:#3f3d56;stroke-width:0.26458332" />
      <rect
         id="rect873"
         height="0.52916664"
         width="39.592106"
         y="86.02005"
         x="177.37723"
         style="fill:#3f3d56;stroke-width:0.25507775" />
      <circle
         id="circle875"
         r="2.6458333"
         cy="115.44009"
         cx="168.51373"
         style="fill:#3f3d56;stroke-width:0.26458332" />
      <rect
         id="rect877"
         height="0.52916664"
         width="39.592113"
         y="115.17551"
         x="177.37723"
         style="fill:#3f3d56;stroke-width:0.25507778" />
      <circle
         id="circle879"
         r="2.6458333"
         cy="145.01196"
         cx="168.51373"
         style="fill:#3f3d56;stroke-width:0.26458332" />
      <rect
         id="rect881"
         height="0.52916664"
         width="39.592113"
         y="144.7473"
         x="177.37723"
         style="fill:#3f3d56;stroke-width:0.25507778" />
      <polygon
         transform="matrix(0.26458333,0,0,0.26458333,-5.8313796,69.821414)"
         id="polygon883"
         points="550.04,312.485 550.04,261.485 584.04,261.485 584.04,263.485 552.04,263.485 552.04,310.485 598.04,310.485 598.04,287.485 600.04,287.485 600.04,312.485 "
         style="fill:#3f3d56" />
      <polygon
         transform="matrix(0.26458333,0,0,0.26458333,-5.8313796,69.821414)"
         id="polygon885"
         points="550.04,200.485 550.04,149.485 584.04,149.485 584.04,151.485 552.04,151.485 552.04,198.485 598.04,198.485 598.04,175.485 600.04,175.485 600.04,200.485 "
         style="fill:#3f3d56" />
      <polygon
         transform="matrix(0.26458333,0,0,0.26458333,-5.8313796,69.821414)"
         id="polygon887"
         points="550.04,86.485 550.04,35.485 584.04,35.485 584.04,37.485 552.04,37.485 552.04,84.485 598.04,84.485 598.04,61.485 600.04,61.485 600.04,86.485 "
         style="fill:#3f3d56" />
    </g>
  </g>
</svg>
