<?xml version="1.0" encoding="UTF-8" standalone="no"?>
<!-- Created with Inkscape (http://www.inkscape.org/) -->

<svg
   xmlns:dc="http://purl.org/dc/elements/1.1/"
   xmlns:cc="http://creativecommons.org/ns#"
   xmlns:rdf="http://www.w3.org/1999/02/22-rdf-syntax-ns#"
   xmlns:svg="http://www.w3.org/2000/svg"
   xmlns="http://www.w3.org/2000/svg"
   xmlns:sodipodi="http://sodipodi.sourceforge.net/DTD/sodipodi-0.dtd"
   xmlns:inkscape="http://www.inkscape.org/namespaces/inkscape"
   width="49.940018mm"
   height="39.6875mm"
   viewBox="0 0 49.940017 39.6875"
   version="1.1"
   id="svg1267"
   inkscape:version="0.92.4 (5da689c313, 2019-01-14)"
   sodipodi:docname="leadway.svg">
  <defs
     id="defs1261" />
  <sodipodi:namedview
     id="base"
     pagecolor="#ffffff"
     bordercolor="#666666"
     borderopacity="1.0"
     inkscape:pageopacity="0.0"
     inkscape:pageshadow="2"
     inkscape:zoom="3.0217138"
     inkscape:cx="64.345771"
     inkscape:cy="50.886376"
     inkscape:document-units="mm"
     inkscape:current-layer="layer1"
     showgrid="false"
     showguides="true"
     inkscape:guide-bbox="true"
     inkscape:window-width="1600"
     inkscape:window-height="838"
     inkscape:window-x="-8"
     inkscape:window-y="-8"
     inkscape:window-maximized="1" />
  <metadata
     id="metadata1264">
    <rdf:RDF>
      <cc:Work
         rdf:about="">
        <dc:format>image/svg+xml</dc:format>
        <dc:type
           rdf:resource="http://purl.org/dc/dcmitype/StillImage" />
        <dc:title />
      </cc:Work>
    </rdf:RDF>
  </metadata>
  <g
     inkscape:label="Layer 1"
     inkscape:groupmode="layer"
     id="layer1"
     transform="translate(-83.431202,-77.432646)">
    <g
       id="g2836"
       transform="matrix(1.0000036,0,0,1.0000036,-2.9945081e-4,-4.2036699e-4)">
      <path
         sodipodi:nodetypes="ccccccccsscccssscssccccc"
         inkscape:connector-curvature="0"
         id="path1833"
         d="m 108.5442,104.22559 c -11.08728,0.01 -11.265012,0.21816 -11.692051,-0.006 -0.153926,-0.39113 -2.097373,-4.20792 -2.097609,-4.263004 -8.2e-5,-0.02584 -0.08227,-0.24481 -0.182569,-0.4866 -0.922391,-2.223527 -1.22213,-4.935388 -0.818952,-7.409389 0.165057,-1.012821 0.544892,-2.329889 0.862678,-2.991302 0.07647,-0.159169 0.139872,-0.317434 0.140884,-0.351698 0.0038,-0.129844 0.745668,-1.511915 0.830491,-1.547243 0.0258,-0.01075 0.04691,-0.043 0.04691,-0.07166 0,-0.08241 0.58155,-0.93396 0.962738,-1.409712 1.450139,-1.809886 3.218761,-3.157859 5.45533,-4.157836 0.35844,-0.16026 1.77501,-0.629633 2.13846,-0.708567 3.20744,-0.696596 6.33185,-0.390403 9.08693,0.890522 0.37075,0.172372 0.84554,0.417516 1.05509,0.544764 0.20956,0.127248 0.48932,0.29051 0.6217,0.362806 0.53656,0.29302 1.94573,1.446945 2.54358,2.082849 1.04502,1.111548 1.69598,2.037967 2.46786,3.512161 0.23581,0.450368 0.64276,1.490827 0.81686,2.088474 0.43612,1.497117 0.58395,2.519895 0.58395,4.040135 0,2.531318 -0.60229,4.759423 -1.89574,7.01316 -0.41739,0.72726 -1.73496,2.59922 -2.04756,2.81818 -0.11132,0.078 -0.67228,0.0886 -4.46652,0.0845 -2.38656,-0.002 -4.37217,-0.0179 -4.41246,-0.0342 z"
         style="opacity:1;fill:#b3b3b3;fill-opacity:1;fill-rule:nonzero;stroke:none;stroke-width:0.90743399;stroke-linecap:round;stroke-linejoin:miter;stroke-miterlimit:4;stroke-dasharray:none;stroke-opacity:1;paint-order:markers fill stroke" />
      <path
         inkscape:connector-curvature="0"
         id="path2453"
         d="m 96.686358,104.23995 c -0.315456,-0.33307 -0.746109,-0.82734 -0.957008,-1.09837 -0.345176,-0.4436 -0.513958,-0.69801 -1.276514,-1.9241 -0.565424,-0.90914 -1.331532,-2.904369 -1.646656,-4.288499 -0.496278,-2.179819 -0.499133,-4.814867 -0.0076,-7.017699 0.833743,-3.7365 2.971363,-7.031088 6.049789,-9.324186 0.685999,-0.510994 0.923971,-0.661986 1.906601,-1.209727 3.36624,-1.876412 7.48526,-2.425368 11.3572,-1.513613 0.98589,0.232152 0.95626,0.222802 2.10805,0.665374 3.26381,1.254111 6.12324,3.679624 7.92814,6.725041 1.47374,2.486645 2.22196,5.231657 2.22196,8.15174 0,4.125636 -1.58002,8.067769 -4.41062,11.004419 l -0.41949,0.4352 H 108.40006 97.259914 Z m 9.432802,-0.53423 c 0.12956,-0.28774 0.19155,-0.63929 0.23021,-1.30562 0.0334,-0.57543 0.10447,-1.02546 0.19266,-1.21978 0.14957,-0.32954 0.50262,-2.208445 0.59899,-3.187829 l 0.0585,-0.594405 -0.3915,-0.05871 c -0.21532,-0.03229 -0.67681,-0.02593 -1.02554,0.01414 -1.03346,0.118732 -2.63109,0.08048 -3.33658,-0.07989 -0.77984,-0.177271 -1.64352,-0.591534 -2.18495,-1.048009 -0.343708,-0.289781 -0.45173,-0.338488 -0.658829,-0.297066 -0.58903,0.117804 -0.795205,0.42424 -0.795205,1.18191 0,0.345122 -0.07085,0.619531 -0.282199,1.092972 -0.595606,1.334217 -0.602591,4.082897 -0.01366,5.377937 l 0.235609,0.5181 h 3.597584 3.5976 z m 1.78761,0.24868 c 0.0733,-0.18022 0.0637,-0.87806 -0.0223,-1.62086 -0.0416,-0.35953 -0.0265,-0.87835 0.0417,-1.43135 0.0971,-0.78683 0.083,-1.05888 -0.0479,-0.927928 -0.088,0.08806 -0.27592,0.930668 -0.36122,1.620158 -0.0671,0.54224 -0.16371,0.84501 -0.45996,1.44121 -0.51759,1.04163 -0.51325,1.06384 0.20783,1.06384 0.47738,0 0.59355,-0.0263 0.64189,-0.14507 z m 9.63205,-0.0728 c 0.14238,-0.1198 0.61311,-0.68868 1.04607,-1.26416 1.28929,-1.7137 2.10968,-3.545189 2.53859,-5.667328 0.16228,-0.802894 0.18814,-1.1816 0.18541,-2.715285 -0.003,-1.653803 -0.0199,-1.853486 -0.23478,-2.77049 -0.56546,-2.412672 -1.47965,-4.277878 -2.97782,-6.075614 -1.98133,-2.377499 -4.99892,-4.135757 -8.09884,-4.718939 -1.11171,-0.209145 -3.94414,-0.209145 -5.05585,0 -1.06455,0.200269 -2.43788,0.652673 -3.44057,1.133392 -6.516463,3.12417 -9.542606,10.609736 -7.033936,17.399373 0.373662,1.011301 1.274984,2.700141 1.441049,2.700141 0.239931,0 0.431413,-0.92296 0.473687,-2.28322 0.03556,-1.14409 0.01645,-1.408832 -0.170507,-2.362534 -0.115802,-0.59073 -0.253852,-1.443826 -0.306778,-1.895764 -0.106374,-0.908363 -0.211703,-1.278366 -0.330183,-1.159885 -0.04654,0.04654 -0.04599,0.28648 0.0014,0.614494 0.10254,0.709583 0.103831,2.959733 0.0017,3.022832 -0.170471,0.105358 -0.365541,-0.489622 -0.379781,-1.15836 -0.0078,-0.36474 -0.04373,-1.194738 -0.07992,-1.844436 -0.05573,-1.000402 -0.04403,-1.26172 0.07642,-1.706666 0.137861,-0.509302 0.174772,-0.556191 1.205173,-1.530984 1.356389,-1.283183 1.522008,-1.383904 2.14303,-1.30326 1.077406,0.139906 1.343633,0.01464 2.233816,-1.051077 0.9753,-1.167616 1.66887,-1.640667 2.40551,-1.640667 0.58584,0 0.96328,0.203704 1.76274,0.951352 0.84784,0.792893 1.21596,0.933953 2.72295,1.043399 0.62063,0.04507 1.24033,0.125055 1.37711,0.177733 0.72456,0.279071 1.56911,0.993281 2.34631,1.984193 0.46239,0.589539 0.7958,0.797087 1.57591,0.981008 1.02022,0.240531 1.68693,0.06772 1.83361,-0.475277 0.078,-0.288869 0.20212,-1.669984 0.31275,-3.481143 l 0.0468,-0.766786 h 0.64906 c 0.43964,0 0.74438,0.04545 0.94448,0.140876 0.26406,0.125923 0.33695,0.12854 0.6867,0.02466 0.21521,-0.06392 0.67763,-0.130066 1.02761,-0.146997 l 0.63632,-0.03078 0.32575,0.325756 c 0.36876,0.368757 0.44619,0.620384 0.315,1.023731 -0.0908,0.279037 -0.0912,0.27922 -0.62908,0.27922 -0.6077,0 -0.8571,0.131138 -1.35445,0.712176 -0.27225,0.318064 -0.28853,0.373585 -0.34554,1.178588 -0.0729,1.02953 -0.26802,1.694667 -0.68744,2.343592 -0.58278,0.901676 -1.47364,1.507381 -2.6748,1.818634 -0.28811,0.07466 -1.07308,0.163856 -1.74438,0.198222 l -1.22055,0.06248 -0.50341,0.511293 c -0.27688,0.281211 -0.5433,0.511296 -0.59205,0.511296 -0.16854,0 -0.55729,1.040133 -0.77456,2.072392 -0.13409,0.637112 -0.23128,1.403359 -0.25233,1.989499 -0.0271,0.75515 -0.0782,1.07393 -0.24566,1.53358 -0.19913,0.54655 -0.2861,1.35185 -0.15965,1.47831 0.0304,0.0304 2.00459,0.0553 4.38711,0.0553 h 4.33185 z m -19.656112,-0.1127 c -0.10071,-0.13621 -0.200137,-0.23063 -0.22095,-0.20982 -0.05666,0.0567 0.224228,0.45749 0.320592,0.45749 0.04591,0 0.0011,-0.11145 -0.09964,-0.24767 z"
         style="opacity:1;fill:#808080;fill-opacity:1;fill-rule:nonzero;stroke:none;stroke-width:1.28330541;stroke-linecap:round;stroke-linejoin:miter;stroke-miterlimit:4;stroke-dasharray:none;stroke-opacity:1;paint-order:markers fill stroke" />
      <g
         transform="translate(-0.02783234)"
         id="g2800">
        <path
           style="opacity:1;fill:#808080;fill-opacity:1;fill-rule:nonzero;stroke:none;stroke-width:0.90743405;stroke-linecap:round;stroke-linejoin:miter;stroke-miterlimit:4;stroke-dasharray:none;stroke-opacity:1;paint-order:markers fill stroke"
           d="m 89.906245,110.25248 v -2.63867 l 0.659433,-3e-5 0.659431,-3e-5 -0.01905,2.19745 -0.01905,2.19745 1.088791,-0.0379 c 0.915131,-0.0318 1.08877,-0.0247 1.088657,0.0447 -7.4e-5,0.0454 -0.06189,0.25399 -0.137371,0.46354 l -0.137236,0.38101 -1.591807,0.0156 -1.591807,0.0156 z"
           id="path2576"
           inkscape:connector-curvature="0" />
        <path
           style="opacity:1;fill:#808080;fill-opacity:1;fill-rule:nonzero;stroke:none;stroke-width:0.90743405;stroke-linecap:round;stroke-linejoin:miter;stroke-miterlimit:4;stroke-dasharray:none;stroke-opacity:1;paint-order:markers fill stroke"
           d="m 93.83353,110.25248 v -2.63867 h 1.611945 1.611946 v 0.46492 0.46492 l -0.967167,-0.0343 -0.967168,-0.0343 v 0.62447 0.62446 h 0.937859 0.93786 v 0.46893 0.46893 h -0.93786 -0.937859 v 0.67954 0.67954 l 1.0844,-0.0426 c 0.66648,-0.0262 1.084399,-0.0214 1.084399,0.0124 0,0.0303 -0.06178,0.23818 -0.137291,0.46207 l -0.137293,0.40708 -1.591885,0.0156 -1.591886,0.0156 z"
           id="path2578"
           inkscape:connector-curvature="0" />
        <path
           style="opacity:1;fill:#808080;fill-opacity:1;fill-rule:nonzero;stroke:none;stroke-width:0.90743405;stroke-linecap:round;stroke-linejoin:miter;stroke-miterlimit:4;stroke-dasharray:none;stroke-opacity:1;paint-order:markers fill stroke"
           d="m 97.467734,112.86657 c 0,-0.0147 0.147267,-0.35187 0.327259,-0.74934 0.407931,-0.90082 0.892412,-2.02553 1.397026,-3.24317 0.213768,-0.51582 0.427184,-1.02359 0.474259,-1.12836 l 0.08559,-0.19051 h 0.585052 c 0.49879,0 0.5932,0.0152 0.64034,0.10332 0.0304,0.0568 0.17843,0.44301 0.32893,0.85819 0.30137,0.83141 0.96657,2.49267 1.43106,3.57394 0.16446,0.38285 0.29902,0.71916 0.29902,0.74736 0,0.0829 -1.45061,0.064 -1.50225,-0.0195 -0.0241,-0.0389 -0.12767,-0.30931 -0.23022,-0.60081 l -0.18645,-0.53 -0.96616,-0.016 -0.966167,-0.016 -0.231682,0.6022 -0.231682,0.60219 -0.626963,0.0166 c -0.34483,0.009 -0.626963,0.005 -0.626963,-0.01 z m 3.341126,-2.17192 c 0,-0.025 -0.13506,-0.4188 -0.45085,-1.3146 -0.16783,-0.47608 -0.17738,-0.47435 -0.367246,0.0667 -0.05918,0.16863 -0.18881,0.52421 -0.28806,0.79018 l -0.180455,0.48359 h 0.643301 c 0.35382,0 0.64331,-0.0116 0.64331,-0.0258 z"
           id="path2580"
           inkscape:connector-curvature="0" />
        <path
           style="opacity:1;fill:#808080;fill-opacity:1;fill-rule:nonzero;stroke:none;stroke-width:0.90743405;stroke-linecap:round;stroke-linejoin:miter;stroke-miterlimit:4;stroke-dasharray:none;stroke-opacity:1;paint-order:markers fill stroke"
           d="m 103.53451,110.24666 v -2.64261 l 1.52402,0.0238 c 1.38982,0.0217 1.55757,0.0354 1.90503,0.15512 0.72106,0.2485 1.2418,0.71048 1.48525,1.31766 0.16124,0.40213 0.17511,1.43426 0.0258,1.91631 -0.19155,0.6182 -0.71954,1.23664 -1.29849,1.52092 -0.57849,0.28405 -1.02694,0.34924 -2.41062,0.35038 l -1.23094,0.001 z m 2.0896,1.70792 c 0.56113,-0.0591 0.86926,-0.18678 1.16567,-0.48319 0.31935,-0.31935 0.4055,-0.58445 0.40695,-1.2523 0.001,-0.51996 -0.0168,-0.62562 -0.15245,-0.89784 -0.2555,-0.51272 -0.70759,-0.73538 -1.6307,-0.80314 l -0.56021,-0.0411 v 1.76652 1.76651 l 0.13189,-0.001 c 0.0725,-5.7e-4 0.36002,-0.025 0.63885,-0.0544 z"
           id="path2582"
           inkscape:connector-curvature="0" />
        <path
           style="opacity:1;fill:#808080;fill-opacity:1;fill-rule:nonzero;stroke:none;stroke-width:0.90743405;stroke-linecap:round;stroke-linejoin:miter;stroke-miterlimit:4;stroke-dasharray:none;stroke-opacity:1;paint-order:markers fill stroke"
           d="m 110.78461,112.84732 c -0.0296,-0.0575 -0.11374,-0.28923 -0.18689,-0.51491 -0.23399,-0.72193 -1.05028,-3.06412 -1.35061,-3.87535 -0.15983,-0.43173 -0.2906,-0.79808 -0.2906,-0.81411 0,-0.016 0.33832,-0.0291 0.75182,-0.0291 h 0.75182 l 0.30053,0.95251 c 0.29604,0.93829 0.49657,1.60475 0.72951,2.42457 l 0.11848,0.41697 0.37379,-1.10117 c 0.20558,-0.60564 0.37379,-1.19194 0.37379,-1.30289 0,-0.11094 -0.0922,-0.44929 -0.20487,-0.75189 -0.11268,-0.3026 -0.205,-0.56996 -0.20516,-0.59414 -1.6e-4,-0.0242 0.32531,-0.044 0.72327,-0.044 h 0.72355 l 0.39068,1.24559 c 0.21488,0.68508 0.47822,1.54491 0.58521,1.91073 l 0.19452,0.66512 0.15089,-0.54789 c 0.15591,-0.56616 0.42393,-1.47992 0.76246,-2.59946 l 0.19497,-0.64478 0.66461,-0.0166 c 0.61775,-0.0155 0.66169,-0.009 0.62312,0.0879 -0.17504,0.44115 -0.84229,2.31132 -1.2921,3.62154 l -0.54334,1.58264 h -0.66586 -0.66586 l -0.44368,-1.31418 -0.44369,-1.31418 -0.44137,1.31418 -0.44136,1.31418 -0.59187,0.0167 c -0.51896,0.0146 -0.5985,0.004 -0.64576,-0.0879 z"
           id="path2584"
           inkscape:connector-curvature="0" />
        <path
           style="opacity:1;fill:#808080;fill-opacity:1;fill-rule:nonzero;stroke:none;stroke-width:0.90743405;stroke-linecap:round;stroke-linejoin:miter;stroke-miterlimit:4;stroke-dasharray:none;stroke-opacity:1;paint-order:markers fill stroke"
           d="m 116.57661,112.86876 c 0,-0.0134 0.18659,-0.44298 0.41464,-0.95449 0.35439,-0.79489 1.03271,-2.37729 1.68013,-3.91945 l 0.17226,-0.41032 0.61032,-0.0162 0.61032,-0.0162 0.2268,0.6317 c 0.30523,0.85012 1.12715,2.91903 1.52834,3.84706 0.17915,0.41441 0.32573,0.7771 0.32573,0.80597 0,0.0289 -0.33631,0.0525 -0.74735,0.0525 h -0.74736 l -0.20405,-0.59135 c -0.11222,-0.32523 -0.24546,-0.61351 -0.29609,-0.6406 -0.1204,-0.0644 -1.70753,-0.0655 -1.81154,-0.001 -0.0441,0.0272 -0.17518,0.30926 -0.29133,0.62671 l -0.2112,0.57719 -0.62981,0.0166 c -0.34639,0.009 -0.62981,0.006 -0.62981,-0.008 z m 3.32792,-2.22156 c -0.0142,-0.0403 -0.15416,-0.44982 -0.31112,-0.91005 -0.28388,-0.83238 -0.28576,-0.83577 -0.35824,-0.64478 -0.0401,0.1056 -0.17687,0.46896 -0.30398,0.80747 -0.12712,0.33851 -0.25012,0.66163 -0.27334,0.71805 -0.0387,0.0941 0.0121,0.10258 0.61511,0.10258 0.50051,0 0.65118,-0.0175 0.63157,-0.0733 z"
           id="path2586"
           inkscape:connector-curvature="0" />
        <path
           style="opacity:1;fill:#808080;fill-opacity:1;fill-rule:nonzero;stroke:none;stroke-width:0.90743405;stroke-linecap:round;stroke-linejoin:miter;stroke-miterlimit:4;stroke-dasharray:none;stroke-opacity:1;paint-order:markers fill stroke"
           d="m 123.59469,111.78026 0.0335,-1.10901 -0.44206,-0.69344 c -0.42032,-0.65934 -0.69891,-1.07613 -1.2608,-1.88626 -0.13701,-0.19755 -0.24912,-0.38586 -0.24912,-0.41846 0,-0.0369 0.28584,-0.0593 0.75723,-0.0593 h 0.75723 l 0.12192,0.19727 c 0.067,0.10849 0.32842,0.58155 0.58081,1.05123 l 0.45888,0.85396 0.25168,-0.47972 c 0.13843,-0.26385 0.39506,-0.7369 0.57029,-1.05123 l 0.31861,-0.57151 h 0.72941 c 0.40117,0 0.7294,0.0173 0.7294,0.0386 0,0.0212 -0.10158,0.17287 -0.22573,0.33704 -0.22831,0.30191 -0.71939,1.00039 -1.43435,2.04014 l -0.39149,0.56932 v 1.1452 1.14521 h -0.66946 -0.66946 z"
           id="path2588"
           inkscape:connector-curvature="0" />
      </g>
      <g
         id="g2791">
        <path
           style="opacity:1;fill:#b3b3b3;fill-opacity:1;fill-rule:nonzero;stroke:none;stroke-width:0.32082638;stroke-linecap:round;stroke-linejoin:miter;stroke-miterlimit:4;stroke-dasharray:none;stroke-opacity:1;paint-order:markers fill stroke"
           d="m 131.22611,115.8955 c 0,-0.97522 0.005,-1.17234 0.029,-1.1924 0.0611,-0.0507 1.20288,-0.008 1.40042,0.052 0.0282,0.009 0.0748,0.028 0.10362,0.043 0.0288,0.015 0.0654,0.0274 0.0813,0.0275 0.0884,4.1e-4 0.35847,0.24169 0.47879,0.42775 0.0514,0.0795 0.0518,0.0835 0.0518,0.55677 v 0.47665 l -0.0725,0.1447 c -0.0778,0.15521 -0.26097,0.35739 -0.37711,0.41624 -0.0377,0.0191 -0.0824,0.0457 -0.0995,0.0591 -0.0574,0.045 -0.25782,0.11397 -0.39376,0.13549 -0.0741,0.0117 -0.37484,0.0214 -0.66834,0.0215 l -0.53364,1.6e-4 z m 1.1234,0.72522 c 0.14777,-0.0329 0.22172,-0.0753 0.36411,-0.20884 0.12796,-0.11996 0.17634,-0.29143 0.16698,-0.59172 -0.006,-0.20808 -0.0117,-0.23144 -0.081,-0.36423 -0.0881,-0.16888 -0.18754,-0.2464 -0.40263,-0.31391 -0.11919,-0.0374 -0.48615,-0.0883 -0.63726,-0.0884 -0.0339,-2e-5 -0.0363,0.0516 -0.0363,0.7944 0,0.43693 0.007,0.80169 0.0155,0.81058 0.0232,0.0242 0.45116,-0.002 0.61049,-0.0379 z"
           id="path2590"
           inkscape:connector-curvature="0" />
        <path
           style="opacity:1;fill:#b3b3b3;fill-opacity:1;fill-rule:nonzero;stroke:none;stroke-width:0.32082638;stroke-linecap:round;stroke-linejoin:miter;stroke-miterlimit:4;stroke-dasharray:none;stroke-opacity:1;paint-order:markers fill stroke"
           d="m 129.4903,115.87742 0.005,-1.18645 0.65281,-0.006 c 0.35904,-0.003 0.67379,-6.6e-4 0.69943,0.006 0.0441,0.0108 0.0466,0.0215 0.0466,0.20078 v 0.18941 l -0.44252,-0.0138 -0.44251,-0.0137 -0.014,0.24361 c -0.008,0.13399 -0.0197,0.27534 -0.0267,0.31412 l -0.0126,0.0705 0.13242,-0.0128 c 0.0728,-0.007 0.26998,-0.0191 0.4381,-0.0269 l 0.30568,-0.0141 v 0.21024 0.21024 l -0.23314,-0.001 c -0.12823,-8.2e-4 -0.31708,-0.009 -0.41966,-0.0182 -0.10259,-0.009 -0.19118,-0.0141 -0.19688,-0.0109 -0.006,0.003 -0.002,0.15591 0.008,0.3394 l 0.0188,0.33362 h 0.49409 0.49409 v 0.057 c 1e-5,0.0313 -0.0254,0.11528 -0.0564,0.18651 l -0.0564,0.12953 h -0.70017 -0.70018 z"
           id="path2592"
           inkscape:connector-curvature="0" />
        <path
           style="opacity:1;fill:#b3b3b3;fill-opacity:1;fill-rule:nonzero;stroke:none;stroke-width:0.32082638;stroke-linecap:round;stroke-linejoin:miter;stroke-miterlimit:4;stroke-dasharray:none;stroke-opacity:1;paint-order:markers fill stroke"
           d="m 128.03462,116.06184 v -1.00202 l -0.40412,0.0101 c -0.45703,0.0115 -0.44382,0.017 -0.36267,-0.15102 0.022,-0.0456 0.0404,-0.0933 0.0407,-0.10601 3.9e-4,-0.0127 0.02,-0.0477 0.0437,-0.0777 l 0.0429,-0.0546 h 0.93244 c 0.60312,0 0.94659,0.008 0.97252,0.0215 0.0337,0.018 0.0401,0.0443 0.0401,0.1641 0,0.22389 0.0306,0.20821 -0.40634,0.20821 h -0.38117 v 0.99475 0.99475 h -0.25905 -0.25905 z"
           id="path2594"
           inkscape:connector-curvature="0" />
        <path
           style="opacity:1;fill:#b3b3b3;fill-opacity:1;fill-rule:nonzero;stroke:none;stroke-width:0.32082638;stroke-linecap:round;stroke-linejoin:miter;stroke-miterlimit:4;stroke-dasharray:none;stroke-opacity:1;paint-order:markers fill stroke"
           d="m 126.58808,117.039 c -0.0187,-0.0187 -0.0249,-0.3064 -0.0249,-1.1674 v -1.14254 l 0.0468,-0.025 c 0.0301,-0.0161 0.12063,-0.0229 0.25387,-0.0191 l 0.20708,0.006 0.005,1.18645 0.005,1.18644 h -0.23435 c -0.15464,0 -0.24281,-0.008 -0.25922,-0.0249 z"
           id="path2596"
           inkscape:connector-curvature="0" />
        <path
           style="opacity:1;fill:#b3b3b3;fill-opacity:1;fill-rule:nonzero;stroke:none;stroke-width:0.32082638;stroke-linecap:round;stroke-linejoin:miter;stroke-miterlimit:4;stroke-dasharray:none;stroke-opacity:1;paint-order:markers fill stroke"
           d="m 123.37173,116.86918 c 0,-0.21356 0.0307,-0.57089 0.0617,-0.71717 0.0109,-0.0513 0.0344,-0.35904 0.0524,-0.68389 0.0337,-0.6104 0.05,-0.73984 0.0968,-0.7695 0.0151,-0.01 0.1402,-0.0175 0.27806,-0.0177 0.27112,-3.3e-4 0.29552,0.009 0.32974,0.12402 0.008,0.0285 0.0422,0.10311 0.0749,0.1658 0.0328,0.0627 0.0599,0.1233 0.0603,0.1347 4.1e-4,0.0114 0.0188,0.058 0.0408,0.10362 0.022,0.0456 0.0404,0.0921 0.0407,0.10332 4.1e-4,0.0112 0.0227,0.0672 0.0496,0.12435 0.0946,0.2013 0.13767,0.30211 0.13767,0.3223 0,0.0112 0.0181,0.0599 0.0403,0.10824 0.0457,0.0995 0.10995,0.27931 0.16341,0.45717 l 0.0363,0.12062 0.0706,-0.1828 c 0.0388,-0.10053 0.0921,-0.22611 0.11833,-0.27906 0.0263,-0.0529 0.0478,-0.1066 0.0478,-0.11924 0,-0.0126 0.0187,-0.0578 0.0414,-0.1003 0.0228,-0.0425 0.0414,-0.0917 0.0414,-0.1093 0,-0.0176 0.0127,-0.0503 0.0283,-0.0728 0.0156,-0.0225 0.0353,-0.0642 0.0439,-0.0927 0.009,-0.0285 0.0367,-0.0984 0.0625,-0.15542 0.0258,-0.057 0.0814,-0.18289 0.1237,-0.27978 0.0423,-0.0969 0.097,-0.21812 0.12162,-0.26941 l 0.0448,-0.0933 0.25947,-0.006 c 0.18682,-0.004 0.26884,0.002 0.29295,0.0207 0.029,0.0229 0.0368,0.13393 0.0582,0.82436 0.0136,0.43883 0.0334,0.83768 0.044,0.88634 0.0106,0.0487 0.0253,0.21419 0.0326,0.36785 l 0.0134,0.27938 h -0.26227 -0.26226 l -0.003,-0.12953 c -0.002,-0.0712 -0.009,-0.4466 -0.0155,-0.83413 l -0.0126,-0.70462 -0.0593,0.12434 c -0.10682,0.22401 -0.13445,0.2877 -0.21087,0.48613 -0.0415,0.10779 -0.0926,0.22903 -0.11364,0.26941 -0.021,0.0404 -0.0684,0.15735 -0.10544,0.25994 -0.037,0.10258 -0.0737,0.19584 -0.0816,0.20724 -0.008,0.0114 -0.026,0.058 -0.0403,0.10362 -0.0143,0.0456 -0.0442,0.1132 -0.0666,0.15025 l -0.0406,0.0673 h -0.21549 -0.21549 l -0.039,-0.0777 c -0.0215,-0.0427 -0.0834,-0.20361 -0.13759,-0.35748 -0.0965,-0.27396 -0.23336,-0.62974 -0.29208,-0.75956 -0.0162,-0.0359 -0.0295,-0.0723 -0.0295,-0.0808 0,-0.009 -0.0224,-0.0631 -0.0498,-0.12121 -0.0274,-0.0581 -0.062,-0.13367 -0.0769,-0.16786 -0.0249,-0.057 -0.0283,-0.0406 -0.0408,0.19688 -0.007,0.14247 -0.0235,0.31034 -0.0355,0.37303 -0.0121,0.0627 -0.0276,0.24454 -0.0346,0.40412 -0.007,0.15957 -0.0183,0.35774 -0.0253,0.44038 l -0.0127,0.15025 h -0.21456 -0.21456 z"
           id="path2598"
           inkscape:connector-curvature="0" />
        <path
           style="opacity:1;fill:#b3b3b3;fill-opacity:1;fill-rule:nonzero;stroke:none;stroke-width:0.32082638;stroke-linecap:round;stroke-linejoin:miter;stroke-miterlimit:4;stroke-dasharray:none;stroke-opacity:1;paint-order:markers fill stroke"
           d="m 122.58923,115.87742 0.005,-1.18645 0.18651,-0.006 c 0.10259,-0.003 0.2075,-8.5e-4 0.23315,0.006 l 0.0466,0.0117 v 1.18087 1.18087 h -0.2385 -0.23849 z"
           id="path2600"
           inkscape:connector-curvature="0" />
        <path
           style="opacity:1;fill:#b3b3b3;fill-opacity:1;fill-rule:nonzero;stroke:none;stroke-width:0.32082638;stroke-linecap:round;stroke-linejoin:miter;stroke-miterlimit:4;stroke-dasharray:none;stroke-opacity:1;paint-order:markers fill stroke"
           d="m 120.87699,116.78927 c -0.007,-0.15102 -0.0179,-0.67354 -0.0249,-1.16114 -0.01,-0.68306 -0.007,-0.89355 0.0125,-0.91704 0.0191,-0.023 0.0749,-0.0305 0.2283,-0.0305 0.11166,0 0.21776,0.006 0.23579,0.0126 0.0293,0.0112 0.0328,0.11917 0.0328,1.00511 v 0.99253 h 0.50774 0.50774 v 0.0591 c 0,0.0758 -0.037,0.18446 -0.0875,0.25696 l -0.0397,0.057 h -0.68036 -0.68035 z"
           id="path2602"
           inkscape:connector-curvature="0" />
        <path
           style="opacity:1;fill:#b3b3b3;fill-opacity:1;fill-rule:nonzero;stroke:none;stroke-width:0.32082638;stroke-linecap:round;stroke-linejoin:miter;stroke-miterlimit:4;stroke-dasharray:none;stroke-opacity:1;paint-order:markers fill stroke"
           d="m 118.69951,117.03796 c -0.004,-0.0143 -0.0139,-0.25905 -0.021,-0.544 -0.0124,-0.49475 -0.0151,-0.52137 -0.0607,-0.59064 -0.0262,-0.0399 -0.0812,-0.12453 -0.12212,-0.18809 -0.0409,-0.0636 -0.089,-0.12765 -0.10676,-0.14242 -0.0178,-0.0148 -0.0324,-0.0383 -0.0324,-0.0522 0,-0.0139 -0.0187,-0.0422 -0.0415,-0.0629 -0.0228,-0.0206 -0.0414,-0.0462 -0.0414,-0.0569 0,-0.0107 -0.0192,-0.0442 -0.0426,-0.0745 -0.045,-0.0582 -0.0939,-0.12803 -0.22004,-0.31414 -0.0425,-0.0627 -0.0947,-0.13399 -0.11612,-0.15845 -0.0238,-0.0272 -0.0362,-0.0674 -0.0321,-0.10362 l 0.007,-0.0592 0.24611,-0.006 c 0.19527,-0.005 0.25628,8.2e-4 0.29539,0.0264 0.0475,0.0311 0.135,0.15158 0.18828,0.25921 0.0528,0.10672 0.37352,0.59063 0.39141,0.59063 0.0102,0 0.0341,-0.031 0.053,-0.0688 0.0189,-0.0378 0.0492,-0.0852 0.0674,-0.10526 0.0182,-0.02 0.033,-0.0467 0.033,-0.0591 0,-0.0125 0.021,-0.0491 0.0466,-0.0814 0.0256,-0.0323 0.0577,-0.0773 0.0713,-0.10003 0.11371,-0.19048 0.24928,-0.39811 0.28,-0.42883 0.0318,-0.0318 0.0742,-0.0373 0.28664,-0.0373 0.20703,0 0.25144,0.005 0.26177,0.0324 0.0217,0.0566 -0.0323,0.14423 -0.23377,0.37923 -0.0355,0.0415 -0.0706,0.0946 -0.0779,0.11814 -0.007,0.0235 -0.0451,0.0775 -0.084,0.11999 -0.0389,0.0425 -0.0996,0.12213 -0.13477,0.17702 -0.0352,0.0549 -0.0826,0.11658 -0.10525,0.13709 -0.0227,0.0205 -0.0412,0.0453 -0.0412,0.055 0,0.0179 -0.12649,0.2071 -0.1789,0.26762 -0.0201,0.0232 -0.0283,0.0961 -0.0283,0.25057 0,0.11982 -0.006,0.35923 -0.0136,0.53201 l -0.0136,0.31416 h -0.23574 c -0.17049,0 -0.23796,-0.007 -0.24376,-0.0259 z"
           id="path2604"
           inkscape:connector-curvature="0" />
        <path
           style="opacity:1;fill:#b3b3b3;fill-opacity:1;fill-rule:nonzero;stroke:none;stroke-width:0.32082638;stroke-linecap:round;stroke-linejoin:miter;stroke-miterlimit:4;stroke-dasharray:none;stroke-opacity:1;paint-order:markers fill stroke"
           d="m 115.6467,115.87742 0.005,-1.18645 0.23833,-0.006 c 0.22451,-0.005 0.24099,-0.003 0.2844,0.0414 0.0567,0.058 0.15117,0.17464 0.19776,0.24405 0.0191,0.0285 0.0675,0.0984 0.10757,0.15543 0.04,0.057 0.0729,0.1246 0.0731,0.15025 2.4e-4,0.0329 0.0127,0.0466 0.0423,0.0466 0.0238,0 0.0506,0.0202 0.0619,0.0466 0.011,0.0256 0.0614,0.10258 0.11208,0.17097 0.0507,0.0684 0.0928,0.13084 0.0935,0.13879 0.001,0.0118 0.15887,0.23291 0.2279,0.3194 0.0101,0.0126 0.0402,0.0639 0.0669,0.11398 l 0.0485,0.091 0.005,-0.745 c 0.004,-0.56436 0.0117,-0.74895 0.0311,-0.76129 0.0141,-0.009 0.11045,-0.0164 0.21412,-0.0166 0.15654,-2.4e-4 0.1943,0.006 0.22278,0.0376 0.031,0.0343 0.0343,0.14554 0.0343,1.16837 0,0.94157 -0.005,1.13447 -0.0289,1.15445 -0.019,0.0158 -0.10562,0.022 -0.2533,0.0181 -0.20174,-0.005 -0.22656,-0.0102 -0.2457,-0.0481 -0.0117,-0.0232 -0.0336,-0.0559 -0.0486,-0.0725 -0.0515,-0.0573 -0.35508,-0.5277 -0.35559,-0.55107 -2.5e-4,-0.0129 -0.0159,-0.0361 -0.0347,-0.0517 -0.0188,-0.0156 -0.12166,-0.15896 -0.22858,-0.31858 -0.10693,-0.15962 -0.22615,-0.33218 -0.26495,-0.38347 -0.0388,-0.0513 -0.0713,-0.10259 -0.0723,-0.11399 -9.5e-4,-0.0114 -0.0249,-0.0427 -0.0532,-0.0695 l -0.0515,-0.0488 v 0.83114 0.83113 h -0.21777 -0.21778 z"
           id="path2606"
           inkscape:connector-curvature="0" />
        <path
           style="opacity:1;fill:#b3b3b3;fill-opacity:1;fill-rule:nonzero;stroke:none;stroke-width:0.32082638;stroke-linecap:round;stroke-linejoin:miter;stroke-miterlimit:4;stroke-dasharray:none;stroke-opacity:1;paint-order:markers fill stroke"
           d="m 113.0512,117.00717 c 0,-0.0312 0.0226,-0.10345 0.0503,-0.16061 0.15653,-0.32318 0.28125,-0.58951 0.28125,-0.60058 0,-0.0169 0.17765,-0.41641 0.22606,-0.50845 0.021,-0.0399 0.0446,-0.10206 0.0524,-0.13815 0.008,-0.0361 0.0276,-0.0708 0.044,-0.0771 0.0164,-0.006 0.0298,-0.0284 0.0298,-0.0492 0,-0.0207 0.0186,-0.0743 0.0414,-0.11901 0.0228,-0.0447 0.0414,-0.0892 0.0414,-0.0989 0,-0.0167 0.0228,-0.0687 0.17002,-0.38809 0.0341,-0.0741 0.0769,-0.14637 0.0951,-0.16061 0.0212,-0.0167 0.10439,-0.0259 0.23304,-0.0259 0.23751,0 0.23268,-0.004 0.32789,0.24869 0.0366,0.0969 0.0789,0.19947 0.0941,0.22796 0.0152,0.0285 0.0342,0.0798 0.0424,0.11398 0.008,0.0342 0.0275,0.0901 0.043,0.12435 0.0155,0.0342 0.1092,0.26734 0.20822,0.5181 0.099,0.25076 0.18698,0.46525 0.19547,0.47665 0.008,0.0114 0.027,0.058 0.0412,0.10362 0.0142,0.0456 0.0376,0.10187 0.0521,0.12507 0.0529,0.0847 0.13484,0.31511 0.13484,0.37911 v 0.0657 h -0.25701 -0.257 l -0.0407,-0.0689 c -0.0428,-0.0725 -0.11002,-0.24409 -0.16385,-0.41809 -0.0176,-0.057 -0.0427,-0.11047 -0.0557,-0.11884 -0.013,-0.008 -0.21688,-0.0154 -0.45306,-0.0156 l -0.42942,-3.2e-4 -0.0524,0.1108 c -0.0288,0.0609 -0.0524,0.12414 -0.0524,0.14045 0,0.0163 -0.0143,0.0501 -0.0317,0.075 -0.0175,0.0249 -0.0457,0.0848 -0.0627,0.13311 -0.0547,0.15498 -0.0694,0.16237 -0.32323,0.16237 h -0.22475 z m 1.38332,-0.99149 c 0.0484,-0.006 0.0881,-0.0153 0.0881,-0.0202 0,-0.0138 -0.10367,-0.27902 -0.14734,-0.37693 -0.0215,-0.0483 -0.0392,-0.10287 -0.0392,-0.12122 0,-0.0183 -0.0153,-0.0657 -0.0341,-0.10525 -0.042,-0.0885 -0.0689,-0.0681 -0.12046,0.0913 -0.0193,0.0597 -0.0437,0.11388 -0.0542,0.12039 -0.0105,0.007 -0.0191,0.0269 -0.0191,0.0452 0,0.0184 -0.0274,0.0901 -0.0609,0.15939 -0.0335,0.0693 -0.0666,0.14929 -0.0735,0.17779 l -0.0126,0.0518 0.19265,-0.006 c 0.10596,-0.003 0.23229,-0.0106 0.28073,-0.0168 z"
           id="path2608"
           inkscape:connector-curvature="0" />
        <path
           style="opacity:1;fill:#b3b3b3;fill-opacity:1;fill-rule:nonzero;stroke:none;stroke-width:0.16041319;stroke-linecap:round;stroke-linejoin:miter;stroke-miterlimit:4;stroke-dasharray:none;stroke-opacity:1;paint-order:markers fill stroke"
           d="m 111.43336,117.06457 c -0.004,-0.004 -0.007,-0.5374 -0.007,-1.18553 0,-1.06502 0.002,-1.17904 0.0164,-1.18472 0.0305,-0.0117 0.88767,-0.007 0.93173,0.006 0.0228,0.006 0.0694,0.0136 0.10362,0.0162 0.0342,0.003 0.0666,0.009 0.072,0.0142 0.005,0.005 0.0164,0.009 0.0243,0.009 0.0139,0 0.0696,0.0219 0.10906,0.0429 0.0104,0.006 0.0384,0.0201 0.0622,0.0324 0.0238,0.0123 0.049,0.0279 0.056,0.0347 0.007,0.007 0.0303,0.023 0.0518,0.0361 0.0465,0.0283 0.0543,0.0381 0.0545,0.0689 1.7e-4,0.0189 0.006,0.0233 0.0306,0.0233 0.0281,0 0.034,0.007 0.0777,0.0966 0.026,0.0531 0.0473,0.10645 0.0473,0.11855 0,0.0121 0.005,0.0249 0.0104,0.0284 0.0139,0.009 0.0139,0.36442 0,0.37303 -0.006,0.004 -0.0104,0.0218 -0.0104,0.0405 0,0.0714 -0.19073,0.30783 -0.28414,0.35215 -0.0188,0.009 -0.04,0.0232 -0.047,0.0317 -0.02,0.0241 -0.13529,0.0782 -0.16666,0.0782 -0.0155,0 -0.0416,0.007 -0.0579,0.0155 -0.0163,0.009 -0.0439,0.0155 -0.0613,0.0156 -0.0174,3e-5 -0.0362,0.005 -0.0418,0.0102 -0.006,0.006 -0.11217,0.0113 -0.25336,0.013 l -0.24318,0.003 -0.005,0.45593 -0.005,0.45592 -0.22863,0.003 c -0.12575,0.002 -0.23183,-4.1e-4 -0.23573,-0.004 z m 0.59907,-1.30112 c 0.0399,-0.005 0.10751,-0.0131 0.15025,-0.0181 0.17833,-0.0208 0.23791,-0.0434 0.30651,-0.11651 l 0.0458,-0.0488 v -0.16101 -0.161 l -0.0492,-0.0493 c -0.0499,-0.05 -0.0945,-0.0737 -0.15553,-0.0828 -0.0186,-0.003 -0.0363,-0.009 -0.0395,-0.0142 -0.003,-0.005 -0.0206,-0.009 -0.0388,-0.01 -0.0182,-1.6e-4 -0.0447,-0.007 -0.059,-0.0152 -0.0156,-0.009 -0.0555,-0.015 -0.10042,-0.0152 -0.041,-1.6e-4 -0.0774,-0.005 -0.0809,-0.0107 -0.004,-0.006 -0.0294,-0.0104 -0.0576,-0.0104 h -0.0512 v 0.36612 c 0,0.20137 0.003,0.36907 0.007,0.37267 0.004,0.004 0.0164,0.001 0.0285,-0.005 0.0121,-0.006 0.0546,-0.0158 0.0945,-0.0208 z"
           id="path2610"
           inkscape:connector-curvature="0" />
        <path
           style="opacity:1;fill:#b3b3b3;fill-opacity:1;fill-rule:nonzero;stroke:none;stroke-width:0.16041319;stroke-linecap:round;stroke-linejoin:miter;stroke-miterlimit:4;stroke-dasharray:none;stroke-opacity:1;paint-order:markers fill stroke"
           d="m 108.1864,117.05495 c -0.009,-0.0234 0.007,-0.32683 0.0182,-0.34798 0.005,-0.01 0.01,-0.0518 0.01,-0.0935 1.6e-4,-0.0417 0.005,-0.0945 0.0113,-0.11726 0.006,-0.0228 0.0151,-0.0997 0.0201,-0.17097 0.0152,-0.21874 0.0269,-0.32772 0.0367,-0.34293 0.005,-0.008 0.0126,-0.0798 0.0166,-0.15962 0.0195,-0.39179 0.0277,-0.51272 0.0358,-0.52521 0.005,-0.007 0.0118,-0.0836 0.0156,-0.16905 0.008,-0.17812 0.0251,-0.33458 0.039,-0.3513 0.005,-0.006 0.011,-0.0277 0.0129,-0.0477 l 0.003,-0.0362 0.2684,-0.003 c 0.23865,-0.002 0.27052,-8.5e-4 0.28752,0.0145 0.0105,0.01 0.0453,0.0714 0.0772,0.13748 0.032,0.0661 0.0646,0.13254 0.0726,0.14767 0.008,0.0151 0.0144,0.037 0.0144,0.0486 0,0.0116 0.005,0.024 0.0104,0.0275 0.006,0.004 0.0104,0.0149 0.0104,0.0252 0,0.0104 0.007,0.0247 0.0156,0.0318 0.009,0.007 0.0155,0.0237 0.0155,0.0369 0,0.0132 0.005,0.0269 0.0104,0.0304 0.006,0.004 0.0104,0.0132 0.0104,0.0216 0,0.0122 0.055,0.1377 0.0929,0.21193 0.004,0.009 0.0114,0.0308 0.0154,0.0491 0.004,0.0183 0.0116,0.0359 0.0169,0.0391 0.005,0.003 0.01,0.015 0.01,0.026 0,0.0111 0.004,0.0201 0.01,0.0201 0.005,0 0.013,0.0164 0.0167,0.0364 0.004,0.02 0.011,0.0389 0.016,0.0421 0.005,0.003 0.009,0.014 0.009,0.0242 0,0.0102 0.0117,0.0405 0.0259,0.0673 0.0143,0.0268 0.0259,0.0549 0.0259,0.0625 0,0.008 0.007,0.0272 0.0155,0.0435 0.009,0.0163 0.0155,0.0378 0.0155,0.0478 3e-5,0.01 0.005,0.0181 0.0104,0.0181 0.006,0 0.0105,0.008 0.0107,0.0181 1.6e-4,0.01 0.007,0.0272 0.0155,0.0382 0.008,0.0111 0.0152,0.0286 0.0152,0.039 0,0.0104 0.004,0.027 0.009,0.0369 0.005,0.01 0.0174,0.0366 0.0274,0.0594 0.01,0.0228 0.0222,0.0495 0.0271,0.0594 0.005,0.01 0.009,0.0265 0.009,0.0369 0,0.0104 0.007,0.0279 0.0152,0.039 0.008,0.0111 0.0154,0.0327 0.0155,0.048 1.7e-4,0.0153 0.004,0.0304 0.01,0.0336 0.005,0.003 0.0122,0.0216 0.0158,0.041 0.008,0.0424 0.0372,0.0735 0.0372,0.0395 0,-0.0223 0.0308,-0.0877 0.044,-0.0936 0.004,-0.002 0.008,-0.0143 0.008,-0.0277 0,-0.0133 0.006,-0.0374 0.0141,-0.0535 0.0237,-0.0492 0.0704,-0.15216 0.0815,-0.17958 0.006,-0.0142 0.0169,-0.0383 0.0248,-0.0534 0.008,-0.0151 0.0143,-0.0334 0.0143,-0.0406 0,-0.0201 0.034,-0.0926 0.0434,-0.0926 0.005,0 0.008,-0.0117 0.008,-0.026 0,-0.0143 0.004,-0.0341 0.009,-0.044 0.005,-0.01 0.016,-0.0343 0.0248,-0.0543 0.009,-0.02 0.0234,-0.0533 0.0326,-0.0741 0.009,-0.0208 0.0167,-0.0424 0.0167,-0.048 0,-0.0132 0.0201,-0.0513 0.0477,-0.0904 0.012,-0.017 0.0244,-0.0426 0.0275,-0.0568 0.007,-0.0305 0.0274,-0.0909 0.0402,-0.11643 0.005,-0.01 0.009,-0.0247 0.009,-0.0328 0,-0.0174 0.0327,-0.0823 0.044,-0.0873 0.004,-0.002 0.008,-0.01 0.008,-0.0173 0,-0.0166 0.0331,-0.0815 0.044,-0.0863 0.004,-0.002 0.008,-0.0115 0.008,-0.0213 0,-0.01 0.007,-0.0269 0.0152,-0.038 0.008,-0.0111 0.0154,-0.0298 0.0155,-0.0417 4.1e-4,-0.028 0.11559,-0.26002 0.14744,-0.29705 l 0.0245,-0.0285 h 0.26522 c 0.20079,0 0.26786,0.003 0.27607,0.0131 0.006,0.007 0.0133,0.083 0.0164,0.16838 0.003,0.0854 0.009,0.26489 0.014,0.39882 0.005,0.13393 0.0124,0.24975 0.0171,0.25737 0.005,0.008 0.0131,0.15217 0.0185,0.32122 0.0157,0.4918 0.0256,0.68611 0.0385,0.75811 0.007,0.0404 0.0109,0.14602 0.009,0.26423 l -0.003,0.19688 -0.2176,0.003 c -0.11968,0.002 -0.22809,3.2e-4 -0.24092,-0.003 -0.0223,-0.005 -0.0233,-0.0103 -0.0233,-0.11365 0,-0.0594 -0.005,-0.12106 -0.0119,-0.1371 -0.007,-0.016 -0.0159,-0.12709 -0.0206,-0.24677 -0.0118,-0.29655 -0.0274,-0.83235 -0.0286,-0.98666 -8.4e-4,-0.10802 -0.003,-0.12573 -0.0165,-0.12064 -0.009,0.003 -0.0155,0.0121 -0.0155,0.0196 0,0.0164 -0.0331,0.0812 -0.044,0.0861 -0.004,0.002 -0.008,0.0144 -0.008,0.0279 0,0.0134 -0.005,0.0273 -0.0104,0.0308 -0.006,0.004 -0.0104,0.0141 -0.0104,0.0235 0,0.009 -0.0303,0.0786 -0.0673,0.15385 -0.0371,0.0752 -0.0674,0.14175 -0.0674,0.14778 0,0.0118 -0.0191,0.0581 -0.0584,0.14136 -0.0135,0.0286 -0.0245,0.0621 -0.0245,0.0745 0,0.0124 -0.005,0.0254 -0.0104,0.029 -0.006,0.004 -0.0104,0.0149 -0.0104,0.0252 0,0.0104 -0.007,0.0247 -0.0155,0.0318 -0.009,0.007 -0.0155,0.0213 -0.0155,0.0315 0,0.0102 -0.004,0.0201 -0.008,0.022 -0.0129,0.006 -0.044,0.0711 -0.044,0.0925 0,0.011 -0.004,0.0281 -0.009,0.038 -0.037,0.0721 -0.0737,0.16089 -0.0737,0.17839 0,0.0115 -0.005,0.0209 -0.0104,0.0209 -0.006,0 -0.0104,0.0111 -0.0104,0.0246 0,0.0136 -0.007,0.0304 -0.0156,0.0375 -0.009,0.007 -0.0155,0.0214 -0.0155,0.0318 0,0.0104 -0.005,0.0217 -0.0104,0.0252 -0.006,0.004 -0.0104,0.0166 -0.0104,0.029 0,0.02 -0.0217,0.0727 -0.0683,0.16617 -0.008,0.0161 -0.0146,0.0398 -0.0146,0.0526 0,0.0128 -0.0108,0.0334 -0.024,0.0458 -0.023,0.0216 -0.0326,0.0225 -0.23602,0.0225 -0.19962,0 -0.21309,-0.001 -0.22989,-0.0208 -0.01,-0.0115 -0.018,-0.0266 -0.0182,-0.0337 -1.7e-4,-0.007 -0.007,-0.0219 -0.0156,-0.0329 -0.008,-0.0111 -0.0152,-0.0332 -0.0152,-0.0492 0,-0.016 -0.005,-0.0291 -0.0104,-0.0291 -0.006,0 -0.0105,-0.0105 -0.0107,-0.0233 -1.7e-4,-0.0128 -0.007,-0.035 -0.0152,-0.0492 -0.008,-0.0143 -0.015,-0.0387 -0.0152,-0.0544 -1.7e-4,-0.0157 -0.005,-0.0285 -0.0107,-0.0285 -0.006,0 -0.0104,-0.0105 -0.0104,-0.0233 -3e-5,-0.0128 -0.007,-0.0367 -0.0155,-0.053 -0.009,-0.0163 -0.0155,-0.0385 -0.0155,-0.0494 0,-0.0108 -0.004,-0.0278 -0.01,-0.0377 -0.0309,-0.0564 -0.0731,-0.15863 -0.0731,-0.17688 0,-0.0117 -0.005,-0.0241 -0.0104,-0.0276 -0.006,-0.004 -0.0104,-0.0135 -0.0104,-0.0221 0,-0.009 -0.007,-0.0227 -0.0155,-0.0312 -0.009,-0.009 -0.0156,-0.0243 -0.0156,-0.0349 0,-0.0107 -0.005,-0.0223 -0.0104,-0.0258 -0.006,-0.004 -0.0104,-0.0166 -0.0104,-0.029 0,-0.02 -0.0265,-0.0836 -0.0686,-0.16434 -0.008,-0.0151 -0.0143,-0.0393 -0.0143,-0.0538 0,-0.0145 -0.005,-0.0292 -0.0104,-0.0327 -0.006,-0.004 -0.0104,-0.0159 -0.0104,-0.0275 0,-0.0116 -0.007,-0.0335 -0.0146,-0.0486 -0.029,-0.0547 -0.0683,-0.14755 -0.0683,-0.16154 0,-0.008 -0.0122,-0.0392 -0.0272,-0.0697 -0.015,-0.0304 -0.0348,-0.0717 -0.044,-0.0916 -0.009,-0.0199 -0.0203,-0.0378 -0.0246,-0.0397 -0.004,-0.002 -0.008,-0.0115 -0.008,-0.0212 0,-0.0182 -0.0187,-0.0427 -0.0326,-0.0427 -0.004,0 -0.01,0.0571 -0.0126,0.12694 -0.009,0.2254 -0.0236,0.4182 -0.0334,0.43336 -0.0109,0.0169 -0.0191,0.1413 -0.0343,0.52025 -0.006,0.14693 -0.0155,0.28449 -0.0214,0.30568 -0.006,0.0212 -0.0107,0.067 -0.0108,0.1017 -9e-5,0.0983 0.002,0.0974 -0.2473,0.0974 -0.181,0 -0.21019,-0.002 -0.21561,-0.0163 z"
           id="path2612"
           inkscape:connector-curvature="0" />
        <path
           style="opacity:1;fill:#b3b3b3;fill-opacity:1;fill-rule:nonzero;stroke:none;stroke-width:0.16041319;stroke-linecap:round;stroke-linejoin:miter;stroke-miterlimit:4;stroke-dasharray:none;stroke-opacity:1;paint-order:markers fill stroke"
           d="m 106.31323,117.05541 c -0.0111,-0.008 -0.0306,-0.0152 -0.0434,-0.0152 -0.0128,0 -0.0262,-0.005 -0.0297,-0.0104 -0.004,-0.006 -0.0166,-0.0104 -0.0291,-0.0104 -0.0309,0 -0.19388,-0.0825 -0.21993,-0.11138 -0.0116,-0.0128 -0.0291,-0.0233 -0.0389,-0.0233 -0.01,0 -0.0178,-0.005 -0.0178,-0.0104 0,-0.006 -0.007,-0.0104 -0.0155,-0.0104 -0.0226,0 -0.20589,-0.18821 -0.23197,-0.23825 -0.0123,-0.0235 -0.0339,-0.0553 -0.048,-0.0705 -0.0142,-0.0153 -0.0257,-0.036 -0.0257,-0.046 0,-0.01 -0.005,-0.0182 -0.0104,-0.0182 -0.006,0 -0.0104,-0.009 -0.0104,-0.0195 0,-0.0107 -0.007,-0.0253 -0.0155,-0.0324 -0.009,-0.007 -0.0155,-0.0214 -0.0155,-0.0317 0,-0.0104 -0.005,-0.0217 -0.0104,-0.0252 -0.006,-0.004 -0.0105,-0.019 -0.0107,-0.0343 -1.6e-4,-0.0153 -0.007,-0.0369 -0.0155,-0.048 -0.008,-0.0111 -0.0152,-0.0379 -0.0152,-0.0596 0,-0.0217 -0.005,-0.0395 -0.0104,-0.0395 -0.0132,0 -0.0142,-0.57208 -10e-4,-0.58597 0.005,-0.005 0.0115,-0.0308 0.0141,-0.0565 0.004,-0.0417 0.0125,-0.071 0.0397,-0.13989 0.004,-0.0114 0.0111,-0.0312 0.0147,-0.044 0.004,-0.0128 0.0109,-0.0233 0.0162,-0.0233 0.005,0 0.01,-0.005 0.01,-0.0121 0,-0.0193 0.0343,-0.0915 0.0434,-0.0915 0.005,0 0.008,-0.009 0.008,-0.0199 0,-0.0109 0.0245,-0.047 0.0544,-0.0802 0.0299,-0.0332 0.0649,-0.072 0.0777,-0.0862 0.0128,-0.0142 0.0233,-0.0315 0.0233,-0.0382 0,-0.0207 0.0311,-0.0449 0.0577,-0.0449 0.0196,0 0.0252,-0.005 0.0252,-0.0247 0,-0.0233 0.0569,-0.0789 0.0806,-0.0789 0.005,0 0.0177,-0.009 0.0278,-0.0203 0.0101,-0.0112 0.0362,-0.0296 0.0578,-0.0409 0.0217,-0.0113 0.0479,-0.025 0.0583,-0.0305 0.0587,-0.031 0.14051,-0.0643 0.19505,-0.0794 0.0342,-0.009 0.0765,-0.0215 0.094,-0.0267 0.0175,-0.005 0.0457,-0.009 0.0627,-0.009 0.017,0 0.0367,-0.006 0.0438,-0.013 0.0214,-0.0215 0.42537,-0.0242 0.48922,-0.003 0.0274,0.009 0.0639,0.0163 0.081,0.0163 0.0171,0 0.034,0.005 0.0375,0.0104 0.004,0.006 0.0213,0.0104 0.0395,0.0104 0.0182,3e-5 0.0464,0.007 0.0628,0.0155 0.0163,0.009 0.0373,0.0155 0.0466,0.0156 0.0359,1.6e-4 0.24302,0.11359 0.29187,0.15984 0.0275,0.026 0.0565,0.0473 0.0645,0.0473 0.0179,0 0.0906,0.0711 0.0906,0.0886 0,0.007 0.035,0.0513 0.0777,0.0986 0.0427,0.0473 0.0777,0.0939 0.0777,0.10354 0,0.01 0.007,0.0234 0.0155,0.0305 0.009,0.007 0.0156,0.0217 0.0156,0.0324 0,0.0107 0.005,0.0195 0.0104,0.0195 0.006,0 0.0104,0.009 0.0104,0.0199 0,0.0109 0.007,0.0331 0.0145,0.0492 0.0203,0.0411 0.0372,0.0988 0.0377,0.12851 1.6e-4,0.0138 0.007,0.0368 0.0152,0.0511 0.0118,0.0206 0.0148,0.0808 0.0148,0.29532 0,0.21454 -0.003,0.27468 -0.0148,0.29531 -0.008,0.0143 -0.015,0.0431 -0.0152,0.0641 -1.7e-4,0.021 -0.005,0.0411 -0.0107,0.0447 -0.006,0.004 -0.0104,0.0169 -0.0104,0.0297 0,0.0128 -0.007,0.0324 -0.0152,0.0434 -0.008,0.0111 -0.0154,0.0277 -0.0155,0.0369 -3.3e-4,0.0171 -0.0775,0.17193 -0.0946,0.18994 -0.005,0.005 -0.009,0.0161 -0.009,0.0237 0,0.008 -0.0186,0.0316 -0.0414,0.0533 -0.0228,0.0217 -0.0414,0.0448 -0.0414,0.0514 0,0.007 -0.005,0.012 -0.0104,0.012 -0.006,0 -0.0104,0.008 -0.0104,0.0188 0,0.0207 -0.0509,0.0745 -0.0705,0.0745 -0.007,0 -0.0124,0.004 -0.0124,0.01 0,0.005 -0.01,0.0128 -0.022,0.0167 -0.0121,0.004 -0.0486,0.0333 -0.0811,0.0655 -0.0583,0.0576 -0.11323,0.0947 -0.14031,0.0947 -0.008,0 -0.0154,0.004 -0.0173,0.008 -0.006,0.0142 -0.0721,0.044 -0.0969,0.044 -0.0134,0 -0.0273,0.005 -0.0309,0.0104 -0.004,0.006 -0.0169,0.0104 -0.0297,0.0104 -0.0128,0 -0.0324,0.007 -0.0434,0.0152 -0.03,0.0227 -0.81846,0.0227 -0.84847,0 z m 0.53821,-0.35716 c 0.004,-0.006 0.0219,-0.0104 0.0409,-0.0104 0.019,0 0.0478,-0.007 0.0641,-0.0155 0.0163,-0.009 0.0376,-0.0155 0.0472,-0.0155 0.01,-3e-5 0.0204,-0.005 0.0239,-0.0104 0.004,-0.006 0.0137,-0.0104 0.0225,-0.0104 0.009,0 0.0399,-0.0175 0.0689,-0.0389 0.029,-0.0214 0.062,-0.0435 0.0733,-0.0492 0.0113,-0.006 0.0382,-0.036 0.0599,-0.0674 0.0217,-0.0313 0.0465,-0.0652 0.0551,-0.0752 0.009,-0.01 0.0156,-0.0237 0.0156,-0.0304 0,-0.007 0.0102,-0.023 0.0226,-0.0362 0.0241,-0.0256 0.0484,-0.0818 0.0574,-0.1327 0.003,-0.0171 0.0107,-0.0376 0.0172,-0.0456 0.0174,-0.0217 0.0162,-0.54462 -0.001,-0.5621 -0.007,-0.007 -0.013,-0.0251 -0.013,-0.04 0,-0.0149 -0.007,-0.0361 -0.0152,-0.0471 -0.008,-0.0111 -0.0154,-0.0329 -0.0155,-0.0486 -1.6e-4,-0.0157 -0.005,-0.0285 -0.0107,-0.0285 -0.006,0 -0.0104,-0.006 -0.0104,-0.0141 0,-0.0119 -0.0308,-0.0575 -0.0724,-0.10719 -0.006,-0.007 -0.0105,-0.0186 -0.0105,-0.026 0,-0.0204 -0.0821,-0.10076 -0.11012,-0.10779 -0.0135,-0.003 -0.0246,-0.0103 -0.0246,-0.0154 0,-0.005 -0.006,-0.009 -0.0137,-0.009 -0.008,0 -0.0247,-0.0117 -0.0381,-0.0259 -0.0134,-0.0142 -0.0323,-0.0259 -0.042,-0.0259 -0.01,0 -0.0234,-0.007 -0.0305,-0.0155 -0.008,-0.01 -0.0311,-0.0155 -0.0628,-0.0155 -0.0275,0 -0.0528,-0.005 -0.0563,-0.0104 -0.009,-0.0138 -0.30231,-0.0138 -0.31086,0 -0.004,0.006 -0.0261,0.0104 -0.0502,0.0104 -0.0241,0 -0.0602,0.008 -0.0803,0.0186 -0.0439,0.0224 -0.10653,0.0657 -0.1113,0.0769 -0.002,0.004 -0.01,0.008 -0.0178,0.008 -0.0217,0 -0.0876,0.0618 -0.0876,0.0822 0,0.01 -0.0108,0.028 -0.024,0.0404 -0.0132,0.0124 -0.044,0.0633 -0.0683,0.1132 -0.0244,0.0499 -0.0485,0.0987 -0.0537,0.10863 -0.0132,0.0252 -0.0123,0.70953 9.6e-4,0.71771 0.006,0.004 0.0104,0.0172 0.0104,0.0304 0,0.0132 0.007,0.0298 0.0155,0.0369 0.009,0.007 0.0155,0.0216 0.0155,0.0324 0,0.0107 0.005,0.0194 0.0104,0.0194 0.006,0 0.0104,0.01 0.0104,0.0212 0,0.0131 0.0406,0.0615 0.10667,0.12693 0.1249,0.12382 0.13453,0.13166 0.16169,0.13166 0.0113,0 0.0234,0.005 0.0269,0.0104 0.004,0.006 0.0143,0.0104 0.0239,0.0104 0.01,3e-5 0.0309,0.007 0.0472,0.0156 0.0163,0.009 0.0452,0.0155 0.0641,0.0155 0.019,0 0.0374,0.005 0.0409,0.0104 0.004,0.006 0.0534,0.0104 0.11398,0.0104 0.0605,0 0.11038,-0.005 0.11398,-0.0104 z"
           id="path2614"
           inkscape:connector-curvature="0" />
        <path
           style="opacity:1;fill:#b3b3b3;fill-opacity:1;fill-rule:nonzero;stroke:none;stroke-width:0.16041319;stroke-linecap:round;stroke-linejoin:miter;stroke-miterlimit:4;stroke-dasharray:none;stroke-opacity:1;paint-order:markers fill stroke"
           d="m 104.14697,117.0539 c -0.0563,-0.0305 -0.0668,-0.0344 -0.0918,-0.0344 -0.0136,0 -0.0306,-0.007 -0.0377,-0.0155 -0.007,-0.009 -0.0216,-0.0155 -0.0323,-0.0155 -0.0107,0 -0.0195,-0.005 -0.0195,-0.0104 0,-0.006 -0.009,-0.0104 -0.0195,-0.0104 -0.0107,0 -0.0253,-0.007 -0.0324,-0.0155 -0.007,-0.009 -0.0186,-0.0155 -0.0256,-0.0155 -0.035,0 -0.0963,-0.0483 -0.23077,-0.18188 -0.0813,-0.0807 -0.14776,-0.15333 -0.14776,-0.16132 0,-0.008 -0.0162,-0.0331 -0.0361,-0.0558 -0.0198,-0.0227 -0.0362,-0.0495 -0.0363,-0.0595 -8e-5,-0.01 -0.005,-0.0181 -0.0101,-0.0181 -0.005,0 -0.013,-0.0164 -0.0167,-0.0364 -0.004,-0.02 -0.011,-0.0389 -0.016,-0.0421 -0.005,-0.003 -0.009,-0.0208 -0.009,-0.0393 0,-0.0185 -0.005,-0.0389 -0.0119,-0.0455 -0.007,-0.007 -0.0166,-0.0343 -0.0224,-0.0617 -0.0147,-0.0701 -0.0212,-0.5735 -0.008,-0.58716 0.006,-0.006 0.0107,-0.0206 0.0107,-0.0326 0,-0.012 0.007,-0.0309 0.0152,-0.042 0.008,-0.0111 0.0154,-0.0373 0.0155,-0.0584 1.6e-4,-0.021 0.005,-0.0411 0.0107,-0.0447 0.006,-0.004 0.0104,-0.0182 0.0104,-0.0327 0,-0.0145 0.007,-0.0398 0.0155,-0.0564 0.0438,-0.0847 0.0508,-0.0987 0.0574,-0.11299 0.0328,-0.0713 0.0654,-0.11239 0.17908,-0.22656 0.0717,-0.072 0.14787,-0.14025 0.16917,-0.15165 0.0213,-0.0114 0.0493,-0.0312 0.0621,-0.044 0.0129,-0.0128 0.0302,-0.0233 0.0386,-0.0233 0.008,0 0.0167,-0.003 0.0186,-0.008 0.005,-0.011 0.0697,-0.044 0.0863,-0.044 0.008,0 0.0154,-0.004 0.0173,-0.008 0.006,-0.0125 0.0708,-0.044 0.0911,-0.044 0.0102,0 0.0354,-0.007 0.0558,-0.0156 0.0205,-0.009 0.0511,-0.0155 0.068,-0.0155 0.0169,0 0.0337,-0.005 0.0372,-0.0104 0.004,-0.006 0.0259,-0.0104 0.0498,-0.0105 0.0239,-8e-5 0.0621,-0.007 0.0849,-0.0151 0.0533,-0.0192 0.44418,-0.0222 0.48893,-0.004 0.016,0.007 0.0548,0.0157 0.0862,0.0201 0.0945,0.0134 0.14903,0.0256 0.17288,0.0385 0.0125,0.007 0.0324,0.0123 0.0442,0.0123 0.021,0 0.0954,0.0416 0.122,0.0682 0.0149,0.0149 0.018,0.0934 0.004,0.102 -0.005,0.003 -0.0115,0.0186 -0.0144,0.0343 -0.003,0.0157 -0.0111,0.0449 -0.0183,0.0649 -0.0443,0.12277 -0.0573,0.1347 -0.1459,0.1347 -0.0386,0 -0.073,-0.005 -0.0765,-0.0104 -0.004,-0.006 -0.0169,-0.0104 -0.0297,-0.0104 -0.0128,0 -0.0324,-0.007 -0.0434,-0.0152 -0.0132,-0.01 -0.0456,-0.0153 -0.0946,-0.0156 -0.041,-1.6e-4 -0.0774,-0.005 -0.0809,-0.0107 -0.009,-0.0139 -0.34372,-0.0139 -0.35231,0 -0.004,0.006 -0.0306,0.0104 -0.0602,0.0104 -0.0452,0 -0.0738,0.01 -0.17813,0.0626 -0.13348,0.0672 -0.20633,0.12719 -0.24465,0.20147 -0.0118,0.0229 -0.0303,0.0512 -0.0411,0.0628 -0.0108,0.0117 -0.0226,0.0362 -0.0263,0.0546 -0.004,0.0184 -0.0107,0.0359 -0.0157,0.039 -0.005,0.003 -0.009,0.0164 -0.009,0.0297 0,0.0133 -0.007,0.0375 -0.0155,0.0538 -0.0227,0.0436 -0.0227,0.5339 0,0.57746 0.009,0.0163 0.0155,0.0379 0.0155,0.048 0,0.0101 0.007,0.0317 0.0155,0.048 0.009,0.0163 0.0155,0.0367 0.0156,0.0452 4e-5,0.009 0.0141,0.0319 0.0312,0.0518 0.0171,0.0199 0.0339,0.0449 0.0373,0.0554 0.006,0.0182 0.16623,0.18287 0.17808,0.18287 0.0145,0 0.0851,0.0361 0.0851,0.0434 0,0.005 0.0114,0.008 0.0253,0.008 0.0139,0 0.0282,0.005 0.0317,0.0104 0.004,0.006 0.0143,0.0104 0.0239,0.0104 0.01,3e-5 0.0309,0.007 0.0472,0.0155 0.0163,0.009 0.0445,0.0155 0.0627,0.0155 0.0182,0 0.0379,0.005 0.0439,0.0109 0.0192,0.0192 0.3947,5.8e-4 0.42325,-0.021 0.006,-0.004 0.0383,-0.0162 0.0725,-0.0265 0.0342,-0.0102 0.0695,-0.0249 0.0785,-0.0325 0.01,-0.008 0.0425,-0.0139 0.0837,-0.0139 0.057,0 0.0704,0.004 0.0873,0.0233 0.0277,0.0323 0.0458,0.0666 0.0458,0.0863 0,0.009 0.008,0.0314 0.017,0.0494 0.009,0.018 0.021,0.0408 0.0259,0.0507 0.0135,0.0273 0.0106,0.11128 -0.004,0.12619 -0.0231,0.0231 -0.13002,0.0786 -0.15145,0.0786 -0.0114,0 -0.0236,0.005 -0.0271,0.0104 -0.004,0.006 -0.019,0.0105 -0.0343,0.0107 -0.0153,1.6e-4 -0.0369,0.007 -0.048,0.0155 -0.017,0.0128 -0.0897,0.0152 -0.46629,0.0149 -0.39181,-2.5e-4 -0.44996,-0.002 -0.47726,-0.0171 z"
           id="path2616"
           inkscape:connector-curvature="0" />
        <path
           style="opacity:1;fill:#b3b3b3;fill-opacity:1;fill-rule:nonzero;stroke:none;stroke-width:0.32082638;stroke-linecap:round;stroke-linejoin:miter;stroke-miterlimit:4;stroke-dasharray:none;stroke-opacity:1;paint-order:markers fill stroke"
           d="m 101.06381,117.0417 c -0.007,-0.018 -0.0126,-0.55427 -0.0126,-1.19163 v -1.15885 h 0.71576 0.71575 l -0.006,0.1917 -0.006,0.19169 -0.1347,-8e-5 c -0.0741,-6e-5 -0.27693,-0.008 -0.45075,-0.0175 l -0.31604,-0.0174 -4e-5,0.31802 -4e-5,0.31802 0.41295,-0.0184 c 0.22712,-0.0101 0.42801,-0.0126 0.44642,-0.006 0.028,0.0107 0.0325,0.0428 0.0275,0.19452 l -0.006,0.18167 -0.44038,-0.005 -0.44039,-0.005 v 0.33102 0.33102 l 0.4922,0.006 0.49219,0.006 0.007,0.0705 c 0.004,0.0388 -0.007,0.0994 -0.0239,0.13471 -0.0168,0.0353 -0.0406,0.0898 -0.0529,0.12116 l -0.0223,0.057 h -0.69248 c -0.61233,0 -0.69393,-0.004 -0.70506,-0.0328 z"
           id="path2618"
           inkscape:connector-curvature="0" />
        <path
           style="opacity:1;fill:#b3b3b3;fill-opacity:1;fill-rule:nonzero;stroke:none;stroke-width:0.32082638;stroke-linecap:round;stroke-linejoin:miter;stroke-miterlimit:4;stroke-dasharray:none;stroke-opacity:1;paint-order:markers fill stroke"
           d="m 99.590192,117.03139 c -0.215901,-0.0851 -0.316468,-0.148 -0.436702,-0.27326 -0.167964,-0.17498 -0.206862,-0.23553 -0.267665,-0.41665 -0.04499,-0.13404 -0.05206,-0.19171 -0.05206,-0.42504 0,-0.14848 0.0081,-0.29139 0.01811,-0.31757 0.01,-0.0262 0.03501,-0.0989 0.05567,-0.16159 0.04515,-0.13703 0.1037,-0.24078 0.144776,-0.25654 0.01657,-0.006 0.03013,-0.0238 0.03013,-0.0388 0,-0.0299 0.180728,-0.20877 0.280785,-0.27782 0.220515,-0.15218 0.457439,-0.21432 0.817124,-0.21432 0.35638,0 0.63708,0.0667 0.67284,0.15991 0.0155,0.0403 -0.0439,0.23039 -0.0876,0.28048 -0.0408,0.0468 -0.0837,0.0457 -0.29509,-0.008 -0.40283,-0.10187 -0.792505,0.005 -0.956061,0.26339 -0.110292,0.17391 -0.141822,0.2887 -0.141822,0.51635 0,0.26756 0.07193,0.47107 0.22552,0.63806 0.09756,0.10607 0.391549,0.22198 0.563003,0.22198 0.10795,0 0.13179,-0.005 0.34091,-0.0733 0.18359,-0.0598 0.21031,-0.0602 0.26659,-0.004 0.0283,0.0283 0.0633,0.0909 0.0777,0.13921 0.0379,0.12642 0.002,0.17844 -0.16552,0.24104 -0.12383,0.0462 -0.15867,0.0492 -0.55955,0.0482 -0.374767,-0.001 -0.440273,-0.006 -0.531113,-0.042 z"
           id="path2620"
           inkscape:connector-curvature="0" />
        <path
           style="opacity:1;fill:#b3b3b3;fill-opacity:1;fill-rule:nonzero;stroke:none;stroke-width:0.32082638;stroke-linecap:round;stroke-linejoin:miter;stroke-miterlimit:4;stroke-dasharray:none;stroke-opacity:1;paint-order:markers fill stroke"
           d="m 96.512685,115.88357 v -1.19235 h 0.258083 c 0.252163,0 0.258935,0.001 0.295315,0.0522 0.02048,0.0287 0.08303,0.11033 0.139008,0.18134 0.05598,0.071 0.133042,0.17574 0.17126,0.23273 0.03822,0.057 0.101378,0.14559 0.140357,0.19688 0.03898,0.0513 0.07149,0.10124 0.07225,0.11099 0.0012,0.0161 0.06103,0.0984 0.130144,0.17924 0.02576,0.0301 0.187152,0.27349 0.322925,0.48692 l 0.06592,0.10362 2.46e-4,-0.77267 2.46e-4,-0.77267 0.222782,0.006 0.222783,0.006 v 1.18126 1.18127 l -0.215459,0.006 -0.215459,0.006 -0.05874,-0.0681 c -0.03231,-0.0375 -0.08903,-0.11474 -0.126053,-0.17173 -0.03702,-0.057 -0.07917,-0.11595 -0.09365,-0.13101 -0.01449,-0.0151 -0.02634,-0.036 -0.02634,-0.0465 0,-0.0105 -0.034,-0.0634 -0.07555,-0.11768 -0.04155,-0.0542 -0.08804,-0.12829 -0.103306,-0.16455 -0.01526,-0.0363 -0.03758,-0.072 -0.04958,-0.0794 -0.01201,-0.007 -0.102504,-0.13629 -0.201107,-0.28637 -0.0986,-0.15009 -0.191457,-0.28687 -0.20634,-0.30397 -0.06734,-0.0773 -0.127356,-0.16021 -0.155692,-0.21494 -0.02989,-0.0577 -0.03122,-0.0537 -0.04446,0.13271 -0.0075,0.10572 -0.01473,0.41227 -0.01607,0.68123 -0.0013,0.26896 -0.0083,0.54963 -0.01554,0.62372 l -0.01312,0.1347 -0.21242,0.006 -0.21242,0.006 z"
           id="path2622"
           inkscape:connector-curvature="0" />
        <path
           style="opacity:1;fill:#b3b3b3;fill-opacity:1;fill-rule:nonzero;stroke:none;stroke-width:0.32082638;stroke-linecap:round;stroke-linejoin:miter;stroke-miterlimit:4;stroke-dasharray:none;stroke-opacity:1;paint-order:markers fill stroke"
           d="m 93.938824,116.99799 c 0,-0.0591 0.03249,-0.14671 0.113982,-0.30751 0.06269,-0.12368 0.113982,-0.23465 0.113982,-0.24659 0,-0.0119 0.04197,-0.1026 0.09326,-0.20147 0.05129,-0.0989 0.09326,-0.19181 0.09326,-0.20652 0,-0.0147 0.02331,-0.0706 0.05181,-0.1242 0.0285,-0.0536 0.05181,-0.10874 0.05181,-0.12255 0,-0.0138 0.01996,-0.0623 0.04436,-0.10771 0.05166,-0.0962 0.146953,-0.31453 0.287937,-0.65978 0.05516,-0.13509 0.116316,-0.26332 0.135898,-0.28496 0.03079,-0.034 0.06593,-0.0393 0.259876,-0.0393 0.25131,0 0.254373,0.002 0.308516,0.17615 0.01415,0.0456 0.03219,0.0922 0.04009,0.10362 0.0079,0.0114 0.0451,0.10466 0.08267,0.20724 0.120776,0.32974 0.375212,0.95529 0.426979,1.04976 0.01658,0.0303 0.03018,0.0676 0.03022,0.0829 4.2e-5,0.0153 0.02799,0.0838 0.06209,0.15223 0.03411,0.0684 0.06205,0.14011 0.06209,0.15939 4.1e-5,0.0193 0.0087,0.0404 0.01929,0.0469 0.01057,0.007 0.0304,0.0467 0.04407,0.0893 0.01367,0.0426 0.03755,0.092 0.05308,0.10988 0.01552,0.0178 0.0338,0.0603 0.04061,0.0944 0.02008,0.10039 -0.01631,0.1136 -0.294615,0.10696 l -0.245748,-0.006 -0.04478,-0.0933 c -0.08995,-0.18734 -0.131376,-0.28486 -0.131376,-0.30928 0,-0.0137 -0.0198,-0.071 -0.044,-0.12726 l -0.044,-0.10228 h -0.444071 -0.44407 l -0.0312,0.0777 c -0.08321,0.20723 -0.163159,0.39052 -0.17808,0.40826 -0.0091,0.0108 -0.01656,0.0358 -0.01656,0.0555 0,0.0813 -0.05468,0.10095 -0.281255,0.10095 h -0.216121 z m 1.381681,-0.98617 0.06571,-0.0101 -0.03828,-0.1289 c -0.04085,-0.13754 -0.115692,-0.34095 -0.179826,-0.48875 l -0.03925,-0.0905 -0.144271,0.35809 c -0.07935,0.19695 -0.146911,0.36447 -0.150139,0.37228 -0.0061,0.0148 0.372133,0.005 0.486057,-0.0122 z"
           id="path2624"
           inkscape:connector-curvature="0" />
        <path
           style="opacity:1;fill:#b3b3b3;fill-opacity:1;fill-rule:nonzero;stroke:none;stroke-width:0.32082638;stroke-linecap:round;stroke-linejoin:miter;stroke-miterlimit:4;stroke-dasharray:none;stroke-opacity:1;paint-order:markers fill stroke"
           d="m 93.355346,117.08814 c -0.01886,-0.0212 -0.0735,-0.12029 -0.121423,-0.22012 -0.04792,-0.0998 -0.09381,-0.18564 -0.10198,-0.19069 -0.0082,-0.005 -0.04525,-0.0726 -0.0824,-0.15007 -0.03715,-0.0775 -0.08058,-0.16421 -0.0965,-0.19271 -0.01592,-0.0285 -0.04268,-0.0808 -0.05945,-0.11621 -0.02587,-0.0546 -0.04523,-0.0664 -0.127603,-0.0777 -0.190985,-0.0262 -0.172733,-0.0729 -0.179006,0.45816 l -0.0056,0.47147 -0.212428,0.006 c -0.123263,0.003 -0.229822,-0.003 -0.253868,-0.0163 -0.04067,-0.0218 -0.04143,-0.0433 -0.04112,-1.16645 1.64e-4,-0.62935 0.0082,-1.15674 0.01788,-1.17198 0.01416,-0.0223 0.123607,-0.0261 0.56441,-0.0195 0.538919,0.008 0.548947,0.009 0.691912,0.0654 0.228877,0.0902 0.35646,0.24036 0.403983,0.47534 0.02046,0.10115 0.01874,0.14597 -0.01067,0.27817 -0.03098,0.13925 -0.04746,0.17103 -0.141651,0.27317 -0.13098,0.14203 -0.134625,0.14488 -0.20503,0.16019 -0.03135,0.007 -0.05697,0.0182 -0.05695,0.0253 2.3e-5,0.007 0.04315,0.0782 0.09583,0.15802 0.05268,0.0798 0.124352,0.20102 0.159267,0.26941 0.03491,0.0684 0.114073,0.19744 0.175908,0.28678 0.11624,0.16794 0.14618,0.27268 0.08705,0.30453 -0.146139,0.0787 -0.23542,0.10961 -0.341945,0.11826 -0.10333,0.008 -0.130139,0.004 -0.158637,-0.0285 z m -0.272664,-1.42228 c 0.121914,-0.0525 0.130116,-0.0693 0.130521,-0.26791 2.46e-4,-0.11517 -0.0076,-0.1474 -0.04635,-0.18978 -0.05514,-0.0604 -0.2622,-0.12888 -0.445565,-0.14745 l -0.129525,-0.0131 v 0.33952 c 0,0.18674 0.0044,0.34389 0.0097,0.34922 0.02442,0.0244 0.382632,-0.0281 0.481214,-0.0705 z"
           id="path2626"
           inkscape:connector-curvature="0" />
        <path
           style="opacity:1;fill:#b3b3b3;fill-opacity:1;fill-rule:nonzero;stroke:none;stroke-width:0.32082638;stroke-linecap:round;stroke-linejoin:miter;stroke-miterlimit:4;stroke-dasharray:none;stroke-opacity:1;paint-order:markers fill stroke"
           d="m 90.291409,117.04826 c -0.0285,-0.0161 -0.06669,-0.0293 -0.08487,-0.0295 -0.01818,-1.7e-4 -0.04993,-0.019 -0.07056,-0.0417 -0.02063,-0.0228 -0.04804,-0.0414 -0.06091,-0.0414 -0.02763,0 -0.218167,-0.19453 -0.264614,-0.27015 -0.08163,-0.1329 -0.09932,-0.34172 -0.09932,-1.17238 v -0.79566 h 0.259049 0.259049 v 0.74226 c 0,0.95962 0.01352,1.03779 0.20171,1.16614 0.08687,0.0592 0.119266,0.0685 0.268542,0.0768 0.09336,0.005 0.203781,0.003 0.245368,-0.005 0.104134,-0.0195 0.246169,-0.15415 0.280541,-0.26589 0.01919,-0.0624 0.03035,-0.32073 0.03868,-0.8959 l 0.01171,-0.80823 0.234199,-0.006 0.234199,-0.006 -0.007,0.86592 c -0.0053,0.65853 -0.01362,0.88328 -0.03468,0.93845 -0.0973,0.25486 -0.270273,0.44107 -0.499254,0.53746 -0.104271,0.0439 -0.837607,0.0523 -0.911855,0.0105 z"
           id="path2628"
           inkscape:connector-curvature="0" />
        <path
           style="opacity:1;fill:#b3b3b3;fill-opacity:1;fill-rule:nonzero;stroke:none;stroke-width:0.32082638;stroke-linecap:round;stroke-linejoin:miter;stroke-miterlimit:4;stroke-dasharray:none;stroke-opacity:1;paint-order:markers fill stroke"
           d="m 87.997619,117.04021 c -0.07048,-0.0198 -0.153124,-0.0523 -0.183664,-0.0723 -0.04968,-0.0326 -0.05413,-0.0451 -0.04226,-0.11935 0.0073,-0.0456 0.03399,-0.11927 0.05932,-0.16363 0.04078,-0.0714 0.05506,-0.0807 0.124795,-0.0808 0.04331,-8e-5 0.103928,0.0128 0.134706,0.0287 0.08444,0.0435 0.361683,0.0819 0.50031,0.0694 0.140635,-0.0128 0.282275,-0.0825 0.299768,-0.14773 0.02195,-0.0818 0.01241,-0.20047 -0.02008,-0.25007 -0.03968,-0.0606 -0.225256,-0.17306 -0.39245,-0.23791 -0.165811,-0.0643 -0.277661,-0.12236 -0.348716,-0.18097 -0.03222,-0.0266 -0.06656,-0.0483 -0.07632,-0.0483 -0.0098,0 -0.02366,-0.0187 -0.03089,-0.0414 -0.0072,-0.0228 -0.02632,-0.0415 -0.04242,-0.0415 -0.05737,0 -0.119622,-0.16631 -0.129482,-0.34591 -0.01345,-0.24508 0.005,-0.33239 0.09529,-0.45191 0.100595,-0.13309 0.203802,-0.20078 0.407626,-0.26733 0.137886,-0.045 0.203485,-0.0539 0.396556,-0.0539 0.141779,0 0.270371,0.0116 0.332158,0.03 0.05545,0.0165 0.142785,0.0422 0.194077,0.057 0.08609,0.0249 0.0936,0.0326 0.09775,0.0995 0.0028,0.0447 -0.01709,0.11622 -0.05181,0.18652 -0.04589,0.0929 -0.06709,0.11522 -0.114629,0.12067 -0.03208,0.004 -0.08337,-0.01 -0.113982,-0.03 -0.07579,-0.0499 -0.540719,-0.0555 -0.635923,-0.008 -0.05803,0.0292 -0.06259,0.04 -0.0684,0.163 -0.0076,0.16165 0.01163,0.18718 0.213323,0.28248 0.530095,0.25045 0.539835,0.25574 0.629584,0.34184 0.0839,0.0805 0.143544,0.17716 0.169082,0.27405 0.01285,0.0487 0.0334,0.12348 0.04568,0.16608 0.01775,0.0616 0.0153,0.0992 -0.012,0.18371 -0.01887,0.0584 -0.03433,0.11685 -0.03435,0.12979 -1.9e-5,0.0129 -0.03516,0.0741 -0.07809,0.13602 -0.0887,0.12783 -0.231748,0.24071 -0.331406,0.2615 -0.03717,0.008 -0.07269,0.0224 -0.07894,0.0325 -0.0062,0.0101 -0.185665,0.0174 -0.398708,0.0161 -0.298931,-0.002 -0.4166,-0.0104 -0.515487,-0.0382 z"
           id="path2630"
           inkscape:connector-curvature="0" />
        <path
           style="opacity:1;fill:#b3b3b3;fill-opacity:1;fill-rule:nonzero;stroke:none;stroke-width:0.32082638;stroke-linecap:round;stroke-linejoin:miter;stroke-miterlimit:4;stroke-dasharray:none;stroke-opacity:1;paint-order:markers fill stroke"
           d="m 86.167342,117.04884 c -0.03989,-0.0154 -0.09144,-0.0286 -0.114552,-0.0292 -0.02311,-6.5e-4 -0.06274,-0.0157 -0.08808,-0.0334 -0.06027,-0.0422 -0.0595,-0.1528 0.0019,-0.2786 0.04077,-0.0835 0.05384,-0.0939 0.124566,-0.0998 0.04346,-0.004 0.0913,0.004 0.10631,0.0161 0.07877,0.0654 0.50175,0.10547 0.657179,0.0623 0.09322,-0.0259 0.203763,-0.14594 0.203763,-0.22127 0,-0.0842 -0.06576,-0.20376 -0.134705,-0.24499 -0.0977,-0.0584 -0.379579,-0.19629 -0.401349,-0.19629 -0.04842,0 -0.24917,-0.11872 -0.329468,-0.19484 -0.04861,-0.0461 -0.116218,-0.13728 -0.150248,-0.20267 -0.05437,-0.10447 -0.06188,-0.14005 -0.06188,-0.29336 0,-0.21214 0.0279,-0.28585 0.15989,-0.42242 0.12373,-0.12803 0.176394,-0.16046 0.364001,-0.22414 0.120462,-0.0409 0.191321,-0.0508 0.363425,-0.0509 0.267356,-1.6e-4 0.558169,0.0629 0.626748,0.13586 l 0.04578,0.0487 -0.06104,0.15114 c -0.07019,0.1738 -0.09555,0.18662 -0.250721,0.12675 -0.07573,-0.0292 -0.155804,-0.0378 -0.35345,-0.0378 h -0.255543 l -0.0605,0.0677 c -0.08274,0.0926 -0.08171,0.18649 0.0031,0.28308 0.0611,0.0696 0.132068,0.10975 0.4027,0.22791 0.06839,0.0298 0.147657,0.0676 0.176153,0.0839 0.0285,0.0163 0.08678,0.0489 0.129524,0.0725 0.04274,0.0236 0.07771,0.0567 0.07771,0.0735 0,0.0169 0.01726,0.0307 0.03835,0.0307 0.0263,0 0.05944,0.0416 0.105464,0.13223 0.06582,0.12967 0.06698,0.13681 0.06009,0.36855 -0.0061,0.2045 -0.01415,0.25017 -0.05996,0.33924 -0.03547,0.069 -0.06794,0.1051 -0.09844,0.10954 -0.02653,0.004 -0.04551,0.0214 -0.04551,0.0421 0,0.0236 -0.05037,0.0595 -0.150248,0.10736 l -0.150249,0.0719 -0.404117,0.003 c -0.297019,0.002 -0.42334,-0.004 -0.476651,-0.0247 z"
           id="path2632"
           inkscape:connector-curvature="0" />
        <path
           style="opacity:1;fill:#b3b3b3;fill-opacity:1;fill-rule:nonzero;stroke:none;stroke-width:0.32082638;stroke-linecap:round;stroke-linejoin:miter;stroke-miterlimit:4;stroke-dasharray:none;stroke-opacity:1;paint-order:markers fill stroke"
           d="m 83.445595,117.0668 c -0.03325,-0.0332 -0.008,-0.14922 0.0665,-0.3051 0.04417,-0.0924 0.100989,-0.21473 0.126262,-0.27172 0.02527,-0.057 0.0684,-0.152 0.09584,-0.21113 0.02744,-0.0591 0.04989,-0.11295 0.04989,-0.11958 0,-0.007 0.03571,-0.0888 0.07935,-0.18262 0.04364,-0.0938 0.09889,-0.21719 0.122785,-0.27418 0.05711,-0.13623 0.222967,-0.51151 0.283934,-0.64244 0.02654,-0.057 0.06,-0.14092 0.07437,-0.18652 0.05587,-0.1773 0.05748,-0.17814 0.328312,-0.1716 l 0.240708,0.006 0.03445,0.0725 c 0.04314,0.0908 0.09852,0.2297 0.181815,0.45593 0.03567,0.0969 0.07854,0.2009 0.09527,0.23116 0.01673,0.0303 0.03041,0.0669 0.03041,0.0815 0,0.0146 0.018,0.0644 0.03999,0.11079 0.04181,0.0881 0.187971,0.45912 0.187971,0.47716 0,0.006 0.03603,0.0875 0.08006,0.18179 0.04403,0.0943 0.0872,0.19468 0.09592,0.22318 0.0087,0.0285 0.05249,0.12966 0.09726,0.22481 0.05358,0.11389 0.07922,0.19533 0.07505,0.23833 l -0.0063,0.0653 h -0.268617 c -0.303497,0 -0.282064,0.0121 -0.35,-0.19688 -0.01668,-0.0513 -0.06117,-0.17486 -0.09887,-0.27459 l -0.06855,-0.18134 -0.446303,2.5e-4 -0.446302,2.4e-4 -0.03718,0.11703 c -0.02045,0.0644 -0.06008,0.16709 -0.08808,0.22829 -0.02799,0.0612 -0.05089,0.12121 -0.05089,0.13336 0,0.0254 -0.08067,0.14541 -0.112984,0.16806 -0.02716,0.019 -0.393214,0.0209 -0.412023,0.002 z m 1.457585,-1.03896 c 0,-0.0205 -0.0082,-0.0462 -0.01818,-0.057 -0.01,-0.0108 -0.03455,-0.071 -0.05455,-0.13367 -0.02001,-0.0627 -0.04359,-0.12331 -0.0524,-0.13471 -0.0088,-0.0114 -0.03148,-0.0741 -0.05038,-0.13932 -0.01889,-0.0652 -0.04915,-0.14827 -0.06725,-0.18454 -0.03089,-0.0619 -0.0346,-0.0636 -0.06087,-0.0277 -0.01538,0.021 -0.02797,0.0529 -0.02797,0.0709 0,0.0179 -0.01865,0.0674 -0.04145,0.10994 -0.0228,0.0425 -0.04145,0.0893 -0.04145,0.10388 0,0.0146 -0.01632,0.0496 -0.03627,0.0778 -0.01995,0.0282 -0.0522,0.10222 -0.07168,0.16453 -0.0433,0.13851 -0.03667,0.14459 0.159757,0.14664 0.07979,8.3e-4 0.18237,0.009 0.227963,0.0187 0.125463,0.026 0.134705,0.0249 0.134705,-0.0154 z"
           id="path2634"
           inkscape:connector-curvature="0" />
      </g>
    </g>
  </g>
</svg>
