<?xml version="1.0" encoding="UTF-8" standalone="no"?>
<svg
   xmlns:dc="http://purl.org/dc/elements/1.1/"
   xmlns:cc="http://creativecommons.org/ns#"
   xmlns:rdf="http://www.w3.org/1999/02/22-rdf-syntax-ns#"
   xmlns:svg="http://www.w3.org/2000/svg"
   xmlns="http://www.w3.org/2000/svg"
   xmlns:xlink="http://www.w3.org/1999/xlink"
   xmlns:sodipodi="http://sodipodi.sourceforge.net/DTD/sodipodi-0.dtd"
   xmlns:inkscape="http://www.inkscape.org/namespaces/inkscape"
   id="062a65d4-6310-416e-8fb8-777315adf84b"
   data-name="Layer 1"
   width="1823.6313"
   height="1262.0184"
   viewBox="0 0 1823.6313 1262.0184"
   version="1.1"
   sodipodi:docname="main-show.svg"
   inkscape:version="0.92.4 (5da689c313, 2019-01-14)">
  <metadata
     id="metadata1544">
    <rdf:RDF>
      <cc:Work
         rdf:about="">
        <dc:format>image/svg+xml</dc:format>
        <dc:type
           rdf:resource="http://purl.org/dc/dcmitype/StillImage" />
      </cc:Work>
    </rdf:RDF>
  </metadata>
  <sodipodi:namedview
     pagecolor="#ffffff"
     bordercolor="#666666"
     borderopacity="1"
     objecttolerance="10"
     gridtolerance="10"
     guidetolerance="10"
     inkscape:pageopacity="0"
     inkscape:pageshadow="2"
     inkscape:window-width="1600"
     inkscape:window-height="838"
     id="namedview1542"
     showgrid="false"
     inkscape:zoom="0.31091811"
     inkscape:cx="838.70062"
     inkscape:cy="588.07881"
     inkscape:window-x="-8"
     inkscape:window-y="-8"
     inkscape:window-maximized="1"
     inkscape:current-layer="062a65d4-6310-416e-8fb8-777315adf84b" />
  <defs
     id="defs1481">
    <linearGradient
       id="7db19e5e-7cc3-41df-8a16-c81cf46c1195"
       x1="758.38"
       y1="801.59003"
       x2="758.38"
       y2="131.56"
       gradientTransform="rotate(4.65,1291.9236,-1733.3727)"
       gradientUnits="userSpaceOnUse">
      <stop
         offset="0"
         stop-color="gray"
         stop-opacity="0.25"
         id="stop1463" />
      <stop
         offset="0.54"
         stop-color="gray"
         stop-opacity="0.12"
         id="stop1465" />
      <stop
         offset="1"
         stop-color="gray"
         stop-opacity="0.1"
         id="stop1467" />
    </linearGradient>
    <linearGradient
       id="87908c47-1c47-4a2f-b745-20cb7009bb75"
       x1="685.96997"
       y1="797.20001"
       x2="685.96997"
       y2="126.94"
       gradientTransform="rotate(-10.87,147.51519,1302.0211)"
       xlink:href="#7db19e5e-7cc3-41df-8a16-c81cf46c1195" />
    <linearGradient
       id="f482b758-09b8-4320-b57c-ecd1bdf3658e"
       x1="517.92999"
       y1="719.46002"
       x2="517.92999"
       y2="49.68"
       xlink:href="#7db19e5e-7cc3-41df-8a16-c81cf46c1195"
       gradientTransform="matrix(1.3385099,0,0,1.3385099,15.356321,0)" />
    <linearGradient
       id="720977dd-28dd-4cd1-b9d4-02f8d793e7ce"
       x1="553.47998"
       y1="380.79001"
       x2="559.92999"
       y2="535.01001"
       gradientTransform="matrix(-1.3385099,0.0133851,-0.0133851,-1.3385099,1461.884,834.06567)"
       gradientUnits="userSpaceOnUse">
      <stop
         offset="0"
         stop-opacity="0.12"
         id="stop1472" />
      <stop
         offset="0.55"
         stop-opacity="0.09"
         id="stop1474" />
      <stop
         offset="1"
         stop-opacity="0.02"
         id="stop1476" />
    </linearGradient>
    <linearGradient
       id="e8979000-d63e-4fe0-8af1-0dfdd65d3420"
       x1="356.17001"
       y1="639.40002"
       x2="356.17001"
       y2="574"
       xlink:href="#7db19e5e-7cc3-41df-8a16-c81cf46c1195"
       gradientTransform="matrix(1.3385099,0,0,1.3385099,15.356321,0)" />
    <linearGradient
       id="3889af47-bc7c-4009-b8ee-af9d60c73d61"
       x1="296"
       y1="675.65997"
       x2="296"
       y2="478.29999"
       xlink:href="#7db19e5e-7cc3-41df-8a16-c81cf46c1195"
       gradientTransform="translate(103.3019,-65)" />
    <linearGradient
       gradientUnits="userSpaceOnUse"
       y2="513.71002"
       x2="654.15997"
       y1="770.88"
       x1="654.15997"
       id="acc8b6a5-9f39-4130-a42e-d6ce30e2b206"
       gradientTransform="translate(1377.4236,71.99365)">
      <stop
         id="stop1940"
         stop-opacity="0.25"
         stop-color="gray"
         offset="0" />
      <stop
         id="stop1942"
         stop-opacity="0.12"
         stop-color="gray"
         offset="0.54" />
      <stop
         id="stop1944"
         stop-opacity="0.1"
         stop-color="gray"
         offset="1" />
    </linearGradient>
    <linearGradient
       inkscape:collect="always"
       xlink:href="#7db19e5e-7cc3-41df-8a16-c81cf46c1195"
       id="linearGradient2459"
       gradientUnits="userSpaceOnUse"
       gradientTransform="rotate(4.65,1291.9236,-1733.3727)"
       x1="758.38"
       y1="801.59003"
       x2="758.38"
       y2="131.56" />
  </defs>
  <title
     id="title1483">files</title>
  <g
     id="g3926">
    <g
       transform="matrix(1.8621182,0,0,1.8621182,-2780.6406,-198.37315)"
       id="g2427">
      <path
         style="opacity:0.1;fill:#6c63ff"
         inkscape:connector-curvature="0"
         d="m 1553.8836,450.22365 c 20.84,47.07 -5.75,101.29 -37,142.16 -10.48,13.68 -22,28 -23.47,45.22 -1.75,21 12.47,40.31 29.35,52.93 30.77,23 72.81,30.11 109.43,18.51 31.65,-10 58.26,-32.67 90.18,-41.81 53.42,-15.29 110,10.06 155.71,41.63 32.35,22.34 67,49.5 106,44.73 27.46,-3.36 50.76,-22.63 66.56,-45.33 7.63,-11 14.27,-23.23 25.39,-30.63 6.61,-4.4 14.37,-6.73 22.14,-8.39 70.9,-15.15 146.13,21.83 216.09,2.81 47.25,-12.85 84.93,-50.2 108.35,-93.19 23.42,-42.99 34.36,-91.55 43.47,-139.66 6.47,-34.19 11.84,-71.08 -3,-102.54 -15.74,-33.28 -52.17,-53.45 -88.78,-57.22 -36.61,-3.77 -73.34,6.68 -107.07,21.42 -42.15,18.43 -83.46,44.23 -129.47,44.32 -31.33,0.06 -61.2,-12 -91.16,-21.13 -50.18,-15.33 -102.18,-22.95 -154.11,-29.98 -49.69,-6.73 -99.86,-13 -149.85,-9 -35.37,2.81 -66.6,16.33 -100.92,22.58 -22.37,4.08 -44.85,1 -66.8,7.91 -27,8.45 -54.84,28.06 -56.33,58.91 -1.41,29.33 24.23,50.76 35.29,75.75 z"
         id="path1951" />
      <ellipse
         style="opacity:0.1;fill:#6c63ff"
         cx="1970.4736"
         cy="743.18365"
         rx="427.67001"
         ry="41.080002"
         id="ellipse1983" />
    </g>
    <g
       id="g3859">
      <polygon
         style="fill:url(#linearGradient2459)"
         points="363.91,62.28 853.53,102.43 799.57,770 309.95,729.85 "
         id="polygon1485"
         transform="matrix(1.3385099,0,0,1.3385099,15.356321,0)" />
      <polygon
         style="fill:url(#87908c47-1c47-4a2f-b745-20cb7009bb75)"
         points="214,93.34 696.42,0 821.86,657.75 339.44,751.09 "
         id="polygon1489"
         transform="matrix(1.3385099,0,0,1.3385099,15.356321,0)" />
      <polygon
         points="793.7,760.47 317.27,721.39 369.78,71.81 846.21,110.88 "
         id="polygon1487"
         style="opacity:0.66300001;fill:#95b903;fill-opacity:1"
         transform="matrix(1.3385099,0,0,1.3385099,15.356321,0)" />
      <polygon
         style="fill:#f9f0ae;fill-opacity:1"
         points="813.67,650.15 344.25,740.98 222.19,100.94 691.61,10.12 "
         id="polygon1491"
         transform="matrix(1.3385099,0,0,1.3385099,15.356321,0)" />
      <rect
         style="fill:url(#f482b758-09b8-4320-b57c-ecd1bdf3658e);stroke-width:1.33850992"
         x="379.84598"
         y="66.497169"
         width="657.5296"
         height="896.5072"
         id="rect1493" />
      <rect
         style="fill:#ffffff;stroke-width:1.33850992"
         x="388.70691"
         y="78.570534"
         width="639.82111"
         height="872.34705"
         id="rect1495" />
      <path
         inkscape:connector-curvature="0"
         style="fill:url(#720977dd-28dd-4cd1-b9d4-02f8d793e7ce);stroke-width:1.33850992"
         d="m 604.31406,229.08597 c 0.69603,58.37242 48.25328,105.12657 106.21076,104.40377 57.95748,-0.72279 104.40377,-48.60129 103.68098,-106.98709 a 105.74228,105.74228 0 0 0 -70.6064,-98.6348 l 0.32124,27.22529 a 35.77837,35.77837 0 0 1 -35.10911,36.31378 v 0 a 35.764985,35.764985 0 0 1 -35.96576,-35.36344 l -0.32124,-27.22529 a 105.74228,105.74228 0 0 0 -68.21047,100.26778 z"
         id="path1497" />
      <path
         inkscape:connector-curvature="0"
         d="m 814.24595,217.96295 c 0,-58.3858 -46.98169,-105.74228 -104.95256,-105.74228 -57.97086,0 -104.95256,47.32971 -104.95256,105.74228 a 105.74228,105.74228 0 0 0 69.41513,99.49144 V 290.2291 a 35.764985,35.764985 0 0 1 35.53743,-35.79175 v 0 a 35.764985,35.764985 0 0 1 35.53744,35.79175 v 27.23868 a 105.74228,105.74228 0 0 0 69.41512,-99.50483 z"
         id="path1499"
         style="opacity:0.63800001;fill:#95b903;fill-opacity:1;stroke-width:1.33850992" />
      <ellipse
         style="fill:#ffffff;stroke:#ffffff;stroke-width:1.33850992;stroke-miterlimit:10"
         cx="709.36029"
         cy="203.42673"
         rx="40.342686"
         ry="40.637161"
         stroke-miterlimit="10"
         id="ellipse1501" />
      <path
         style="fill:#ffffff;stroke:#ffffff;stroke-width:1.33850992;stroke-miterlimit:10"
         inkscape:connector-curvature="0"
         d="m 709.29339,254.43735 v 0 a 35.764985,35.764985 0 0 0 -35.53743,35.79175 v 27.23868 a 104.63132,104.63132 0 0 0 71.07487,0 V 290.2291 a 35.764985,35.764985 0 0 0 -35.53744,-35.79175 z"
         stroke-miterlimit="10"
         id="path1503" />
      <path
         style="fill:#ffffff;stroke:#ffffff;stroke-width:1.33850992;stroke-miterlimit:10"
         inkscape:connector-curvature="0"
         d="m 668.66962,201.17804 a 39.660048,39.660048 0 0 1 -4.29662,-20.4792 27.412683,27.412683 0 0 1 8.94125,-18.53837 c 5.87606,-5.04618 13.84019,-6.8264 21.53662,-7.44211 7.69643,-0.61572 15.49995,-0.24093 23.07591,-1.75345 a 48.186356,48.186356 0 0 0 30.78573,-21.04138 c 0.48186,5.95637 0.96373,12.04659 -0.17401,17.8825 -1.13773,5.8359 -4.13599,11.64503 -9.19556,14.72361 6.13038,-2.85103 5.46112,3.84152 4.136,7.84366 3.03841,3.69429 10.4136,4.31001 10.78839,9.08849 0.37478,4.77848 0.30785,9.71758 -1.53929,14.12128 -1.84714,4.40369 0.13385,12.18044 -4.60447,12.51506"
         stroke-miterlimit="10"
         id="path1505" />
      <path
         style="fill:#ffffff;stroke-width:1.33850992"
         inkscape:connector-curvature="0"
         d="m 741.59164,163.64622 c 0,0 28.10871,2.47624 8.11137,44.55899"
         id="path1507" />
      <rect
         style="fill:url(#e8979000-d63e-4fe0-8af1-0dfdd65d3420);stroke-width:1.33850992"
         x="448.64526"
         y="768.30469"
         width="86.909447"
         height="87.538551"
         id="rect1509" />
      <rect
         x="456.12766"
         y="775.85388"
         width="71.918137"
         height="72.440155"
         id="rect1511"
         style="opacity:0.673;fill:#95b903;fill-opacity:1;stroke-width:1.33850992" />
      <rect
         style="fill:#f9f0ae;fill-opacity:1;stroke-width:1.33850992"
         x="604.47467"
         y="406.07715"
         width="209.77127"
         height="15.098392"
         id="rect1513" />
      <rect
         style="fill:#e0e0e0;stroke-width:1.33850992"
         x="604.47467"
         y="427.21222"
         width="353.62094"
         height="15.098392"
         id="rect1515" />
      <rect
         style="fill:#e0e0e0;stroke-width:1.33850992"
         x="604.47467"
         y="448.33389"
         width="353.62094"
         height="15.098392"
         id="rect1517" />
      <rect
         style="fill:#f9f0ae;fill-opacity:1;stroke-width:1.33850992"
         x="604.47467"
         y="594.74011"
         width="209.77127"
         height="15.098392"
         id="rect1519" />
      <rect
         style="fill:#e0e0e0;stroke-width:1.33850992"
         x="604.47467"
         y="615.86176"
         width="353.62094"
         height="15.098392"
         id="rect1521" />
      <rect
         style="fill:#e0e0e0;stroke-width:1.33850992"
         x="604.47467"
         y="636.99683"
         width="353.62094"
         height="15.098392"
         id="rect1523" />
      <rect
         style="fill:#285657;fill-opacity:1;stroke-width:1.33850992"
         x="604.47467"
         y="783.38971"
         width="209.77127"
         height="15.098392"
         id="rect1525" />
      <rect
         style="fill:#e0e0e0;stroke-width:1.33850992"
         x="604.47467"
         y="804.52478"
         width="353.62094"
         height="15.098392"
         id="rect1527" />
      <rect
         style="fill:#e0e0e0;stroke-width:1.33850992"
         x="604.47467"
         y="825.65979"
         width="353.62094"
         height="15.098392"
         id="rect1529" />
    </g>
    <g
       transform="translate(-3.8129755e-6,247.55301)"
       id="g3672">
      <path
         style="fill:#c2c2cb;fill-opacity:1;stroke-width:1.99499631"
         inkscape:connector-curvature="0"
         d="m 602.09748,639.14972 c 0,0 233.91332,-149.44518 395.62772,-149.44518 0,0 194.6917,-30.32394 406.4605,20.92752 211.7689,51.25145 289.9927,117.70478 348.7054,98.19371 l -246.6613,7.22189 z"
         id="path2005" />
      <g
         id="g3633">
        <polygon
           transform="matrix(1.9949963,0,0,1.9949963,-24.386202,-264.49386)"
           id="polygon2009"
           points="172.26,486.83 293.86,454.5 867.68,469.58 867.68,565.6 152.6,565.6 "
           style="fill:#31464b;fill-opacity:1" />
        <path
           id="path2011"
           d="m 1781.7238,765.68232 v 50.15421 c 0,0 -42.3537,30.72294 -46.2041,54.7826 0,0 -60.6479,15.40137 -77.9644,15.40137 -1.5761,0 -3.2918,0 -5.0873,0.17955 a 143.99883,143.99883 0 0 0 6.3242,-22.32401 147.03123,147.03123 0 1 0 -288.3967,0 146.77188,146.77188 0 0 0 9.3565,29.92495 h -82.2337 c 0,0 -0.7581,0.25935 -1.995,0.798 -4.4089,1.99499 -14.8029,7.26178 -16.2991,15.54102 H 597.71349 l -13.96497,-0.1197 a 144.15843,144.15843 0 0 0 7.97998,-15.44127 142.46269,142.46269 0 0 0 9.69569,-30.6631 147.15093,147.15093 0 1 0 -291.40911,-28.92744 148.42772,148.42772 0 0 0 2.83289,28.86759 146.69208,146.69208 0 0 0 17.43627,45.68542 c -9.73558,-2.37405 -30.98229,-9.11714 -30.98229,-9.11714 0,0 -90.47308,-9.61588 -113.57514,-29.92494 l 3.49124,-2.41395 14.80287,-10.11463 -6.74308,-25.93495 a 15.95997,15.95997 0 0 1 -1.995,-3.55109 c -1.7955,-4.32914 -3.37154,-12.36898 2.97254,-22.46366 9.61589,-15.40137 4.80795,-70.26377 4.80795,-70.26377 0,0 130.91165,-90.47308 388.88462,-110.70234 0,0 6.16454,4.78799 18.89262,5.78548 8.61838,0.69825 20.24921,-0.35909 35.03213,-5.78548 0,0 21.16692,9.61588 111.7198,-42.35378 0,0 154.03366,-105.8944 356.1866,-96.23862 0,0 207.9186,-12.52857 385.0343,55.8599 76.3286,29.44614 134.4029,45.14677 175.7991,53.44595 38.2241,7.68074 62.2239,9.09718 73.2164,9.21688 h 0.2394 c 3.591,0 5.7256,0 6.4837,0 h 0.3192 c 0,0 0,22.92251 1.2169,49.99461 v 0.13965 c 0.4389,9.41638 1.0374,19.33151 1.8753,28.96735 v 0.5985 c 2.3142,26.8327 6.3042,51.21155 13.2269,56.03944 z"
           inkscape:connector-curvature="0"
           style="fill:#285657;fill-opacity:1;stroke-width:1.99499631" />
        <path
           id="path2013"
           d="m 223.87114,733.56288 c 0,0 57.99454,-45.24651 130.19346,-35.61068 0,0 -65.69523,51.9896 -95.30098,48.61806 l -5.04734,-4.32914 -29.92494,1.6758 c 0,0 -4.46879,-6.98249 0.0798,-10.35404 z"
           inkscape:connector-curvature="0"
           style="fill:#c2c2cb;fill-opacity:1;stroke-width:1.99499631" />
        <path
           id="path2015"
           d="m 280.16993,811.84654 v 26.713 c 0,0 -1.99499,25.516 -25.0372,26.4736 l -65.83488,3.25184 14.78292,-10.11463 -6.74308,-25.93495 a 15.421321,15.421321 0 0 1 -1.995,-3.53114 c 5.98499,-5.50619 20.08961,-14.80287 48.77766,-16.79787 z"
           inkscape:connector-curvature="0"
           style="opacity:0.2;fill:#ffffff;stroke-width:1.99499631" />
        <path
           id="path2017"
           d="m 586.52156,699.88735 50.53326,-1.995 c 0,0 -20.44871,16.11957 -34.89248,17.57592 -14.44378,1.45635 -15.64078,-15.58092 -15.64078,-15.58092 z"
           inkscape:connector-curvature="0"
           style="opacity:0.2;fill:#ffffff;stroke-width:1.99499631" />
        <path
           id="path2019"
           d="m 692.89477,853.18286 c 0,0 456.99383,-63.54063 567.45673,-43.33132 0,0 32.4786,2.17455 44.7677,15.16197 12.2892,12.98743 0,4.56855 0,4.56855 z"
           inkscape:connector-curvature="0"
           style="opacity:0.2;fill:#ffffff;stroke-width:1.99499631" />
        <path
           id="path2021"
           d="m 948.71314,674.85014 c 0,0 5.78549,-10.83283 15.16197,-11.07223 l 60.88729,-3.13214 c 0,0 -0.9576,8.41888 -11.7904,11.55103 z"
           inkscape:connector-curvature="0"
           style="opacity:0.5;fill:#c2c2cb;fill-opacity:1;stroke-width:1.99499631" />
        <path
           id="path2023"
           d="m 1301.0295,656.55603 c 0,0 5.7855,-10.83283 15.162,-11.07223 l 60.8872,-3.21195 c 0,0 -0.9575,8.41889 -11.7904,11.55103 z"
           inkscape:connector-curvature="0"
           style="opacity:0.5;fill:#c2c2cb;fill-opacity:1;stroke-width:1.99499631" />
        <path
           id="path2025"
           d="m 1093.1309,508.1283 -46.7228,122.53268 -168.45748,0.17954 H 834.5794 796.85402 764.23584 727.2885 c 0,0 22.50356,-16.51856 58.75264,-37.56578 11.96998,-6.98248 25.55591,-14.44377 40.29893,-21.94495 13.56597,-6.94259 28.16935,-13.96498 43.51087,-20.62827 11.96998,-5.26679 24.57835,-10.33408 37.46603,-15.06222 58.43344,-21.36641 124.10873,-35.71043 185.81393,-27.511 z"
           inkscape:connector-curvature="0"
           style="fill:#c2c2cb;fill-opacity:1;stroke-width:1.99499631" />
        <path
           id="path2027"
           d="m 1357.827,597.60389 c 0,0 -70.3834,10.43383 -137.555,18.15446 -25.6756,2.9526 -50.8724,5.50619 -71.5006,6.92264 l -2.8728,0.1995 c -7.98,0.5187 -15.3814,0.85785 -21.6657,0.97755 -9.975,0.17955 -17.4363,-0.25935 -21.1669,-1.45635 l 19.4113,-117.20603 c 0,0 23.94,0.25935 59.3512,1.99499 l 7.7405,0.41895 c 7.3616,0.41895 15.1221,0.89775 23.2218,1.45635 11.571,0.798 23.7604,1.7556 36.3289,2.9127 60.6878,5.56603 129.4353,15.56097 172.9662,33.55583 92.6276,38.34383 -64.2589,52.06941 -64.2589,52.06941 z"
           inkscape:connector-curvature="0"
           style="fill:#c2c2cb;fill-opacity:1;stroke-width:1.99499631" />
        <path
           id="path2029"
           d="m 1682.2134,656.55603 v 31.28154 c 0,0 -50.5332,0.7182 -39.7004,-9.37648 a 154.83166,154.83166 0 0 0 19.0123,-21.94496 z"
           inkscape:connector-curvature="0"
           style="fill:#c2c2cb;fill-opacity:1;stroke-width:1.99499631" />
        <path
           id="path2031"
           d="m 1757.9235,684.64558 -41.037,3.21194 v -37.60568 c 0,0 19.0123,-26.713 38.0246,2.89274 l 1.0972,1.73565 z"
           inkscape:connector-curvature="0"
           style="fill:#c2c2cb;fill-opacity:1;stroke-width:1.99499631" />
        <circle
           id="circle2033"
           r="117.44543"
           cy="834.98846"
           cx="457.18588"
           style="fill:#34383b;fill-opacity:1;stroke-width:1.99499631" />
        <path
           id="path2035"
           d="m 551.38968,834.88875 a 94.522925,94.522925 0 1 1 -1.995,-19.15197 94.722424,94.722424 0 0 1 1.995,19.15197 z"
           inkscape:connector-curvature="0"
           style="fill:#d7d7e2;fill-opacity:1;stroke-width:1.99499631" />
        <ellipse
           id="ellipse2037"
           ry="81.176399"
           rx="80.976898"
           cy="834.86877"
           cx="457.04636"
           style="opacity:0.5;fill:#848484;fill-opacity:1;stroke-width:1.99499631" />
        <path
           id="path2039"
           d="m 484.13835,744.25606 v 3.4314 l -26.9524,89.23618 -21.62576,-94.14387 a 94.742374,94.742374 0 0 1 48.57816,1.47629 z"
           inkscape:connector-curvature="0"
           style="fill:#d7d7e2;fill-opacity:1;stroke-width:1.99499631" />
        <path
           id="path2041"
           d="m 483.93885,925.56133 a 94.762324,94.762324 0 0 1 -47.50086,1.6359 L 457.166,836.92364 Z"
           inkscape:connector-curvature="0"
           style="fill:#d7d7e2;fill-opacity:1;stroke-width:1.99499631" />
        <path
           id="path2043"
           d="m 551.38968,834.88875 a 94.722424,94.722424 0 0 1 -4.50869,29.00724 h -0.37905 l -89.23619,-26.9524 92.28853,-21.18686 a 95.241123,95.241123 0 0 1 1.8354,19.13202 z"
           inkscape:connector-curvature="0"
           style="fill:#d7d7e2;fill-opacity:1;stroke-width:1.99499631" />
        <path
           id="path2045"
           d="m 457.18595,836.92364 -89.23618,26.9524 h -0.69825 a 95.520423,95.520423 0 0 1 -2.57354,-48.19911 z"
           inkscape:connector-curvature="0"
           style="fill:#d7d7e2;fill-opacity:1;stroke-width:1.99499631" />
        <circle
           id="circle2047"
           r="10.354031"
           cy="834.86877"
           cx="457.04636"
           style="fill:#182a7c;stroke-width:1.99499631" />
        <circle
           id="circle2049"
           r="117.44543"
           cy="834.98846"
           cx="1513.8754"
           style="fill:#414448;fill-opacity:1;stroke-width:1.99499631" />
        <path
           id="path2051"
           d="m 1608.0993,834.88875 a 94.522925,94.522925 0 1 1 -1.995,-19.15197 94.722424,94.722424 0 0 1 1.995,19.15197 z"
           inkscape:connector-curvature="0"
           style="fill:#d7d7e2;fill-opacity:1;stroke-width:1.99499631" />
        <ellipse
           id="ellipse2053"
           ry="81.176399"
           rx="80.976898"
           cy="834.86877"
           cx="1513.7561"
           style="opacity:0.5;fill:#adadb3;fill-opacity:1;stroke-width:1.99499631" />
        <path
           id="path2055"
           d="m 1540.828,744.25606 v 3.4314 l -26.9524,89.23618 -21.6257,-94.14387 a 94.742374,94.742374 0 0 1 48.5781,1.47629 z"
           inkscape:connector-curvature="0"
           style="fill:#d7d7e2;fill-opacity:1;stroke-width:1.99499631" />
        <path
           id="path2057"
           d="m 1540.6485,925.56133 a 94.762324,94.762324 0 0 1 -47.5009,1.6359 l 20.728,-90.27359 z"
           inkscape:connector-curvature="0"
           style="fill:#d7d7e2;fill-opacity:1;stroke-width:1.99499631" />
        <path
           id="path2059"
           d="m 1608.0993,834.88875 a 94.722424,94.722424 0 0 1 -4.5087,29.00724 h -0.4588 l -89.2562,-26.97235 92.2886,-21.18686 a 95.241123,95.241123 0 0 1 1.9351,19.15197 z"
           inkscape:connector-curvature="0"
           style="fill:#d7d7e2;fill-opacity:1;stroke-width:1.99499631" />
        <path
           id="path2061"
           d="m 1513.8756,836.92364 -89.2361,26.9524 h -0.6983 a 95.520423,95.520423 0 0 1 -2.5735,-48.19911 z"
           inkscape:connector-curvature="0"
           style="fill:#d7d7e2;fill-opacity:1;stroke-width:1.99499631" />
        <circle
           id="circle2063"
           r="10.354031"
           cy="834.86877"
           cx="1513.7561"
           style="fill:#182a7c;stroke-width:1.99499631" />
        <path
           id="path2065"
           d="m 826.36002,571.44949 -29.506,59.47083 h -32.61818 l 21.8053,-37.52588 c 12.02983,-6.98248 25.57586,-14.42382 40.31888,-21.94495 z"
           inkscape:connector-curvature="0"
           style="opacity:0.2;fill:#ffffff;stroke-width:1.99499631" />
        <path
           id="path2067"
           d="m 907.31697,535.759 -29.3863,95.10147 h -43.37122 l 35.31144,-80.07915 c 12.04978,-5.22689 24.57835,-10.25428 37.44608,-15.02232 z"
           inkscape:connector-curvature="0"
           style="opacity:0.2;fill:#ffffff;stroke-width:1.99499631" />
        <path
           id="path2069"
           d="m 1212.8307,509.1657 -64.0194,113.53524 -2.8728,0.1995 c -7.98,0.5187 -15.3814,0.85785 -21.6657,0.97755 l 57.5956,-116.56764 7.7405,0.41895 c 7.2618,0.399 15.0822,0.8778 23.2218,1.4364 z"
           inkscape:connector-curvature="0"
           style="opacity:0.2;fill:#ffffff;stroke-width:1.99499631" />
        <polygon
           transform="matrix(1.9949963,0,0,1.9949963,-24.386202,-264.49386)"
           id="polygon2071"
           stroke-miterlimit="10"
           points="512.03,571.47 537.15,449.18 377.34,448.63 359.02,574.82 "
           style="opacity:0.2;fill:none;stroke:#ffffff;stroke-miterlimit:10" />
        <path
           id="path2073"
           d="m 1295.5432,894.51919 c -4.4089,1.99499 -14.8028,7.26178 -16.2991,15.54102 H 597.71349 l -13.96497,-0.1197 a 144.15843,144.15843 0 0 0 7.97998,-15.44127 z"
           inkscape:connector-curvature="0"
           style="opacity:0.5;fill:#182132;fill-opacity:1;stroke-width:1.99499631" />
        <path
           id="path2119"
           d="m 1010.0393,788.58488 h -0.6982 c 0,0 22.9424,-6.18449 0.6982,0 z"
           inkscape:connector-curvature="0"
           style="opacity:0.1;stroke-width:1.99499631" />
        <path
           id="path2123"
           d="m 1199.7036,904.11512 v 3.39149 a 7.3814863,7.3814863 0 0 1 0,-3.39149 z"
           inkscape:connector-curvature="0"
           style="opacity:0.1;stroke-width:1.99499631" />
      </g>
    </g>
  </g>
</svg>
