<?xml version="1.0" encoding="UTF-8" standalone="no"?>
<svg
   xmlns:dc="http://purl.org/dc/elements/1.1/"
   xmlns:cc="http://creativecommons.org/ns#"
   xmlns:rdf="http://www.w3.org/1999/02/22-rdf-syntax-ns#"
   xmlns:svg="http://www.w3.org/2000/svg"
   xmlns="http://www.w3.org/2000/svg"
   xmlns:xlink="http://www.w3.org/1999/xlink"
   xmlns:sodipodi="http://sodipodi.sourceforge.net/DTD/sodipodi-0.dtd"
   xmlns:inkscape="http://www.inkscape.org/namespaces/inkscape"
   id="062a65d4-6310-416e-8fb8-777315adf84b"
   data-name="Layer 1"
   width="1397.6667"
   height="1094.7666"
   viewBox="0 0 1397.6667 1094.7666"
   version="1.1"
   sodipodi:docname="main-show2.svg"
   inkscape:version="0.92.4 (5da689c313, 2019-01-14)">
  <metadata
     id="metadata1544">
    <rdf:RDF>
      <cc:Work
         rdf:about="">
        <dc:format>image/svg+xml</dc:format>
        <dc:type
           rdf:resource="http://purl.org/dc/dcmitype/StillImage" />
        <dc:title>files</dc:title>
      </cc:Work>
    </rdf:RDF>
  </metadata>
  <sodipodi:namedview
     pagecolor="#ffffff"
     bordercolor="#666666"
     borderopacity="1"
     objecttolerance="10"
     gridtolerance="10"
     guidetolerance="10"
     inkscape:pageopacity="0"
     inkscape:pageshadow="2"
     inkscape:window-width="1600"
     inkscape:window-height="838"
     id="namedview1542"
     showgrid="false"
     inkscape:zoom="0.58551293"
     inkscape:cx="585.03865"
     inkscape:cy="482.59901"
     inkscape:window-x="-8"
     inkscape:window-y="-8"
     inkscape:window-maximized="1"
     inkscape:current-layer="062a65d4-6310-416e-8fb8-777315adf84b"
     showguides="true"
     inkscape:guide-bbox="true" />
  <defs
     id="defs1481">
    <linearGradient
       id="7db19e5e-7cc3-41df-8a16-c81cf46c1195"
       x1="758.38"
       y1="801.59003"
       x2="758.38"
       y2="131.56"
       gradientTransform="rotate(4.65,1291.9236,-1733.3727)"
       gradientUnits="userSpaceOnUse">
      <stop
         offset="0"
         stop-color="gray"
         stop-opacity="0.25"
         id="stop1463" />
      <stop
         offset="0.54"
         stop-color="gray"
         stop-opacity="0.12"
         id="stop1465" />
      <stop
         offset="1"
         stop-color="gray"
         stop-opacity="0.1"
         id="stop1467" />
    </linearGradient>
    <linearGradient
       id="87908c47-1c47-4a2f-b745-20cb7009bb75"
       x1="685.96997"
       y1="797.20001"
       x2="685.96997"
       y2="126.94"
       gradientTransform="rotate(-10.87,147.51519,1302.0211)"
       xlink:href="#7db19e5e-7cc3-41df-8a16-c81cf46c1195" />
    <linearGradient
       id="f482b758-09b8-4320-b57c-ecd1bdf3658e"
       x1="517.92999"
       y1="719.46002"
       x2="517.92999"
       y2="49.68"
       xlink:href="#7db19e5e-7cc3-41df-8a16-c81cf46c1195"
       gradientTransform="matrix(1.3385099,0,0,1.3385099,15.356321,0)" />
    <linearGradient
       id="720977dd-28dd-4cd1-b9d4-02f8d793e7ce"
       x1="553.47998"
       y1="380.79001"
       x2="559.92999"
       y2="535.01001"
       gradientTransform="matrix(-1.3385099,0.0133851,-0.0133851,-1.3385099,1461.884,834.06567)"
       gradientUnits="userSpaceOnUse">
      <stop
         offset="0"
         stop-opacity="0.12"
         id="stop1472" />
      <stop
         offset="0.55"
         stop-opacity="0.09"
         id="stop1474" />
      <stop
         offset="1"
         stop-opacity="0.02"
         id="stop1476" />
    </linearGradient>
    <linearGradient
       id="e8979000-d63e-4fe0-8af1-0dfdd65d3420"
       x1="356.17001"
       y1="639.40002"
       x2="356.17001"
       y2="574"
       xlink:href="#7db19e5e-7cc3-41df-8a16-c81cf46c1195"
       gradientTransform="matrix(1.3385099,0,0,1.3385099,15.356321,-630.14949)" />
    <linearGradient
       id="3889af47-bc7c-4009-b8ee-af9d60c73d61"
       x1="296"
       y1="675.65997"
       x2="296"
       y2="478.29999"
       xlink:href="#7db19e5e-7cc3-41df-8a16-c81cf46c1195"
       gradientTransform="translate(103.3019,-65)" />
    <linearGradient
       gradientUnits="userSpaceOnUse"
       y2="513.71002"
       x2="654.15997"
       y1="770.88"
       x1="654.15997"
       id="acc8b6a5-9f39-4130-a42e-d6ce30e2b206"
       gradientTransform="translate(1377.4236,71.99365)">
      <stop
         id="stop1940"
         stop-opacity="0.25"
         stop-color="gray"
         offset="0" />
      <stop
         id="stop1942"
         stop-opacity="0.12"
         stop-color="gray"
         offset="0.54" />
      <stop
         id="stop1944"
         stop-opacity="0.1"
         stop-color="gray"
         offset="1" />
    </linearGradient>
    <linearGradient
       inkscape:collect="always"
       xlink:href="#7db19e5e-7cc3-41df-8a16-c81cf46c1195"
       id="linearGradient2459"
       gradientUnits="userSpaceOnUse"
       gradientTransform="rotate(4.65,1291.9236,-1733.3727)"
       x1="758.38"
       y1="801.59003"
       x2="758.38"
       y2="131.56" />
  </defs>
  <title
     id="title1483">files</title>
  <path
     style="opacity:0.1;fill:#6c63ff;stroke-width:1.86211824"
     inkscape:connector-curvature="0"
     d="m 74.90981,639.9965 c 38.80655,87.64991 38.3519,117.20185 -19.83929,193.30662 -19.515,25.47377 -52.1039691,85.55142 -54.8412821,117.61709 -3.258707,39.10449 28.7892991,80.63069 60.2218521,104.13059 57.29738,42.8287 150.54491,42.6244 219.7201,20.0394 172.92075,-45.2131 723.07281,33.5309 831.99001,17.4812 137.2058,-41.1554 103.6655,-92.78813 158.3867,-165.69819 102.4488,-136.50184 97.0379,-164.24715 114.9862,-281.39725 12.0479,-63.66582 22.0474,-102.35936 -5.5864,-160.9416 -29.3097,-61.97129 -80.9285,-65.48098 -149.1007,-72.50116 -169.6663,30.27798 -182.849,55.24308 -271.38752,26.67695 C 636.19324,506.39271 508.33903,463.07719 270.183,420.14287 180.62401,415.38291 107.75201,438.33942 78.408695,497.59728 55.252707,573.95128 54.31479,593.46217 74.90981,639.9965 Z"
     id="path1951"
     sodipodi:nodetypes="ccccccsccccccc" />
  <g
     id="g1060"
     transform="translate(-67.96452)">
    <polygon
       transform="matrix(1.3385099,0,0,1.3385099,15.356321,0)"
       id="polygon1485"
       points="799.57,770 309.95,729.85 363.91,62.28 853.53,102.43 "
       style="fill:url(#linearGradient2459)" />
    <polygon
       transform="matrix(1.3385099,0,0,1.3385099,15.356321,0)"
       id="polygon1489"
       points="821.86,657.75 339.44,751.09 214,93.34 696.42,0 "
       style="fill:url(#87908c47-1c47-4a2f-b745-20cb7009bb75)" />
    <polygon
       transform="matrix(1.3385099,0,0,1.3385099,15.356321,0)"
       style="opacity:0.66300001;fill:#45e644;fill-opacity:1"
       id="polygon1487"
       points="369.78,71.81 846.21,110.88 793.7,760.47 317.27,721.39 " />
    <polygon
       transform="matrix(1.3385099,0,0,1.3385099,15.356321,0)"
       id="polygon1491"
       points="222.19,100.94 691.61,10.12 813.67,650.15 344.25,740.98 "
       style="fill:#f9f0ae;fill-opacity:1" />
    <rect
       id="rect1493"
       height="896.5072"
       width="657.5296"
       y="66.497169"
       x="379.84598"
       style="fill:url(#f482b758-09b8-4320-b57c-ecd1bdf3658e);stroke-width:1.33850992" />
    <rect
       id="rect1495"
       height="872.34705"
       width="639.82111"
       y="78.570534"
       x="388.70691"
       style="fill:#ffffff;stroke-width:1.33850992" />
    <rect
       id="rect1509"
       height="87.538551"
       width="86.909447"
       y="138.1552"
       x="448.64526"
       style="fill:url(#e8979000-d63e-4fe0-8af1-0dfdd65d3420);stroke-width:1.33850992" />
    <rect
       style="opacity:0.67299996;fill:#45e644;fill-opacity:1;stroke-width:1.33850992"
       id="rect1511"
       height="72.440155"
       width="71.918137"
       y="145.70439"
       x="456.12766" />
    <rect
       id="rect1513"
       height="15.098392"
       width="209.77127"
       y="142.25426"
       x="598.56818"
       style="fill:#285657;fill-opacity:1;stroke-width:1.33850992" />
    <rect
       id="rect1515"
       height="15.098392"
       width="353.62094"
       y="163.38933"
       x="598.56818"
       style="fill:#e0e0e0;stroke-width:1.33850992" />
    <rect
       id="rect1517"
       height="15.098392"
       width="353.62094"
       y="184.511"
       x="598.56818"
       style="fill:#e0e0e0;stroke-width:1.33850992" />
    <rect
       id="rect1519"
       height="15.098392"
       width="209.77127"
       y="274.91724"
       x="598.56818"
       style="fill:#f9f0ae;fill-opacity:1;stroke-width:1.33850992" />
    <rect
       id="rect1521"
       height="15.098392"
       width="353.62094"
       y="296.03888"
       x="598.56818"
       style="fill:#e0e0e0;stroke-width:1.33850992" />
    <rect
       id="rect1523"
       height="15.098392"
       width="353.62094"
       y="317.17395"
       x="598.56818"
       style="fill:#e0e0e0;stroke-width:1.33850992" />
    <rect
       id="rect1525"
       height="15.098392"
       width="209.77127"
       y="415.56683"
       x="598.56818"
       style="fill:#45e644;fill-opacity:1;stroke-width:1.33850992" />
    <rect
       id="rect1527"
       height="15.098392"
       width="353.62094"
       y="436.7019"
       x="598.56818"
       style="fill:#e0e0e0;stroke-width:1.33850992" />
    <rect
       id="rect1529"
       height="15.098392"
       width="353.62094"
       y="457.83691"
       x="598.56818"
       style="fill:#e0e0e0;stroke-width:1.33850992" />
    <rect
       id="rect1519-3"
       height="15.098392"
       width="209.77127"
       y="546.76642"
       x="598.56818"
       style="fill:#f9f0ae;fill-opacity:1;stroke-width:1.33850992" />
    <rect
       id="rect1521-1"
       height="15.098392"
       width="353.62094"
       y="567.88806"
       x="598.56818"
       style="fill:#e0e0e0;stroke-width:1.33850992" />
    <rect
       id="rect1523-6"
       height="15.098392"
       width="353.62094"
       y="589.02313"
       x="598.56818"
       style="fill:#e0e0e0;stroke-width:1.33850992" />
    <rect
       id="rect1525-0"
       height="15.098392"
       width="209.77127"
       y="687.41602"
       x="598.56818"
       style="fill:#285657;fill-opacity:1;stroke-width:1.33850992" />
    <rect
       id="rect1527-8"
       height="15.098392"
       width="353.62094"
       y="708.55109"
       x="598.56818"
       style="fill:#e0e0e0;stroke-width:1.33850992" />
    <rect
       id="rect1529-5"
       height="15.098392"
       width="353.62094"
       y="729.6861"
       x="598.56818"
       style="fill:#e0e0e0;stroke-width:1.33850992" />
    <rect
       id="rect1519-6"
       height="15.098392"
       width="209.77127"
       y="815.80499"
       x="598.56818"
       style="fill:#f9f0ae;fill-opacity:1;stroke-width:1.33850992" />
    <rect
       id="rect1521-3"
       height="15.098392"
       width="353.62094"
       y="836.92664"
       x="598.56818"
       style="fill:#e0e0e0;stroke-width:1.33850992" />
    <rect
       id="rect1523-1"
       height="15.098392"
       width="353.62094"
       y="858.06171"
       x="598.56818"
       style="fill:#e0e0e0;stroke-width:1.33850992" />
  </g>
  <g
     id="g3672"
     transform="matrix(0.68691268,0,0,0.68691268,47.54702,224.87298)">
    <path
       id="path2005"
       d="m 602.09748,639.14972 c 0,0 233.91332,-149.44518 395.62772,-149.44518 0,0 194.6917,-30.32394 406.4605,20.92752 211.7689,51.25145 289.9927,117.70478 348.7054,98.19371 l -246.6613,7.22189 z"
       inkscape:connector-curvature="0"
       style="fill:#c2c2cb;fill-opacity:1;stroke-width:1.99499631" />
    <g
       id="g3633">
      <polygon
         style="fill:#31464b;fill-opacity:1"
         points="867.68,565.6 152.6,565.6 172.26,486.83 293.86,454.5 867.68,469.58 "
         id="polygon2009"
         transform="matrix(1.9949963,0,0,1.9949963,-24.386202,-264.49386)" />
      <path
         style="fill:#285657;fill-opacity:1;stroke-width:1.99499631"
         inkscape:connector-curvature="0"
         d="m 1781.7238,765.68232 v 50.15421 c 0,0 -42.3537,30.72294 -46.2041,54.7826 0,0 -60.6479,15.40137 -77.9644,15.40137 -1.5761,0 -3.2918,0 -5.0873,0.17955 a 143.99883,143.99883 0 0 0 6.3242,-22.32401 147.03123,147.03123 0 1 0 -288.3967,0 146.77188,146.77188 0 0 0 9.3565,29.92495 h -82.2337 c 0,0 -0.7581,0.25935 -1.995,0.798 -4.4089,1.99499 -14.8029,7.26178 -16.2991,15.54102 H 597.71349 l -13.96497,-0.1197 a 144.15843,144.15843 0 0 0 7.97998,-15.44127 142.46269,142.46269 0 0 0 9.69569,-30.6631 147.15093,147.15093 0 1 0 -291.40911,-28.92744 148.42772,148.42772 0 0 0 2.83289,28.86759 146.69208,146.69208 0 0 0 17.43627,45.68542 c -9.73558,-2.37405 -30.98229,-9.11714 -30.98229,-9.11714 0,0 -90.47308,-9.61588 -113.57514,-29.92494 l 3.49124,-2.41395 14.80287,-10.11463 -6.74308,-25.93495 a 15.95997,15.95997 0 0 1 -1.995,-3.55109 c -1.7955,-4.32914 -3.37154,-12.36898 2.97254,-22.46366 9.61589,-15.40137 4.80795,-70.26377 4.80795,-70.26377 0,0 130.91165,-90.47308 388.88462,-110.70234 0,0 6.16454,4.78799 18.89262,5.78548 8.61838,0.69825 20.24921,-0.35909 35.03213,-5.78548 0,0 21.16692,9.61588 111.7198,-42.35378 0,0 154.03366,-105.8944 356.1866,-96.23862 0,0 207.9186,-12.52857 385.0343,55.8599 76.3286,29.44614 134.4029,45.14677 175.7991,53.44595 38.2241,7.68074 62.2239,9.09718 73.2164,9.21688 h 0.2394 c 3.591,0 5.7256,0 6.4837,0 h 0.3192 c 0,0 0,22.92251 1.2169,49.99461 v 0.13965 c 0.4389,9.41638 1.0374,19.33151 1.8753,28.96735 v 0.5985 c 2.3142,26.8327 6.3042,51.21155 13.2269,56.03944 z"
         id="path2011" />
      <path
         style="fill:#c2c2cb;fill-opacity:1;stroke-width:1.99499631"
         inkscape:connector-curvature="0"
         d="m 223.87114,733.56288 c 0,0 57.99454,-45.24651 130.19346,-35.61068 0,0 -65.69523,51.9896 -95.30098,48.61806 l -5.04734,-4.32914 -29.92494,1.6758 c 0,0 -4.46879,-6.98249 0.0798,-10.35404 z"
         id="path2013" />
      <path
         style="opacity:0.2;fill:#ffffff;stroke-width:1.99499631"
         inkscape:connector-curvature="0"
         d="m 280.16993,811.84654 v 26.713 c 0,0 -1.99499,25.516 -25.0372,26.4736 l -65.83488,3.25184 14.78292,-10.11463 -6.74308,-25.93495 a 15.421321,15.421321 0 0 1 -1.995,-3.53114 c 5.98499,-5.50619 20.08961,-14.80287 48.77766,-16.79787 z"
         id="path2015" />
      <path
         style="opacity:0.2;fill:#ffffff;stroke-width:1.99499631"
         inkscape:connector-curvature="0"
         d="m 586.52156,699.88735 50.53326,-1.995 c 0,0 -20.44871,16.11957 -34.89248,17.57592 -14.44378,1.45635 -15.64078,-15.58092 -15.64078,-15.58092 z"
         id="path2017" />
      <path
         style="opacity:0.2;fill:#ffffff;stroke-width:1.99499631"
         inkscape:connector-curvature="0"
         d="m 692.89477,853.18286 c 0,0 456.99383,-63.54063 567.45673,-43.33132 0,0 32.4786,2.17455 44.7677,15.16197 12.2892,12.98743 0,4.56855 0,4.56855 z"
         id="path2019" />
      <path
         style="opacity:0.5;fill:#c2c2cb;fill-opacity:1;stroke-width:1.99499631"
         inkscape:connector-curvature="0"
         d="m 948.71314,674.85014 c 0,0 5.78549,-10.83283 15.16197,-11.07223 l 60.88729,-3.13214 c 0,0 -0.9576,8.41888 -11.7904,11.55103 z"
         id="path2021" />
      <path
         style="opacity:0.5;fill:#c2c2cb;fill-opacity:1;stroke-width:1.99499631"
         inkscape:connector-curvature="0"
         d="m 1301.0295,656.55603 c 0,0 5.7855,-10.83283 15.162,-11.07223 l 60.8872,-3.21195 c 0,0 -0.9575,8.41889 -11.7904,11.55103 z"
         id="path2023" />
      <path
         style="fill:#c2c2cb;fill-opacity:1;stroke-width:1.99499631"
         inkscape:connector-curvature="0"
         d="m 1093.1309,508.1283 -46.7228,122.53268 -168.45748,0.17954 H 834.5794 796.85402 764.23584 727.2885 c 0,0 22.50356,-16.51856 58.75264,-37.56578 11.96998,-6.98248 25.55591,-14.44377 40.29893,-21.94495 13.56597,-6.94259 28.16935,-13.96498 43.51087,-20.62827 11.96998,-5.26679 24.57835,-10.33408 37.46603,-15.06222 58.43344,-21.36641 124.10873,-35.71043 185.81393,-27.511 z"
         id="path2025" />
      <path
         style="fill:#c2c2cb;fill-opacity:1;stroke-width:1.99499631"
         inkscape:connector-curvature="0"
         d="m 1357.827,597.60389 c 0,0 -70.3834,10.43383 -137.555,18.15446 -25.6756,2.9526 -50.8724,5.50619 -71.5006,6.92264 l -2.8728,0.1995 c -7.98,0.5187 -15.3814,0.85785 -21.6657,0.97755 -9.975,0.17955 -17.4363,-0.25935 -21.1669,-1.45635 l 19.4113,-117.20603 c 0,0 23.94,0.25935 59.3512,1.99499 l 7.7405,0.41895 c 7.3616,0.41895 15.1221,0.89775 23.2218,1.45635 11.571,0.798 23.7604,1.7556 36.3289,2.9127 60.6878,5.56603 129.4353,15.56097 172.9662,33.55583 92.6276,38.34383 -64.2589,52.06941 -64.2589,52.06941 z"
         id="path2027" />
      <path
         style="fill:#c2c2cb;fill-opacity:1;stroke-width:1.99499631"
         inkscape:connector-curvature="0"
         d="m 1682.2134,656.55603 v 31.28154 c 0,0 -50.5332,0.7182 -39.7004,-9.37648 a 154.83166,154.83166 0 0 0 19.0123,-21.94496 z"
         id="path2029" />
      <path
         style="fill:#c2c2cb;fill-opacity:1;stroke-width:1.99499631"
         inkscape:connector-curvature="0"
         d="m 1757.9235,684.64558 -41.037,3.21194 v -37.60568 c 0,0 19.0123,-26.713 38.0246,2.89274 l 1.0972,1.73565 z"
         id="path2031" />
      <circle
         style="fill:#34383b;fill-opacity:1;stroke-width:1.99499631"
         cx="457.18588"
         cy="834.98846"
         r="117.44543"
         id="circle2033" />
      <path
         style="fill:#d7d7e2;fill-opacity:1;stroke-width:1.99499631"
         inkscape:connector-curvature="0"
         d="m 551.38968,834.88875 a 94.522925,94.522925 0 1 1 -1.995,-19.15197 94.722424,94.722424 0 0 1 1.995,19.15197 z"
         id="path2035" />
      <ellipse
         style="opacity:0.5;fill:#848484;fill-opacity:1;stroke-width:1.99499631"
         cx="457.04636"
         cy="834.86877"
         rx="80.976898"
         ry="81.176399"
         id="ellipse2037" />
      <path
         style="fill:#d7d7e2;fill-opacity:1;stroke-width:1.99499631"
         inkscape:connector-curvature="0"
         d="m 484.13835,744.25606 v 3.4314 l -26.9524,89.23618 -21.62576,-94.14387 a 94.742374,94.742374 0 0 1 48.57816,1.47629 z"
         id="path2039" />
      <path
         style="fill:#d7d7e2;fill-opacity:1;stroke-width:1.99499631"
         inkscape:connector-curvature="0"
         d="m 483.93885,925.56133 a 94.762324,94.762324 0 0 1 -47.50086,1.6359 L 457.166,836.92364 Z"
         id="path2041" />
      <path
         style="fill:#d7d7e2;fill-opacity:1;stroke-width:1.99499631"
         inkscape:connector-curvature="0"
         d="m 551.38968,834.88875 a 94.722424,94.722424 0 0 1 -4.50869,29.00724 h -0.37905 l -89.23619,-26.9524 92.28853,-21.18686 a 95.241123,95.241123 0 0 1 1.8354,19.13202 z"
         id="path2043" />
      <path
         style="fill:#d7d7e2;fill-opacity:1;stroke-width:1.99499631"
         inkscape:connector-curvature="0"
         d="m 457.18595,836.92364 -89.23618,26.9524 h -0.69825 a 95.520423,95.520423 0 0 1 -2.57354,-48.19911 z"
         id="path2045" />
      <circle
         style="fill:#182a7c;stroke-width:1.99499631"
         cx="457.04636"
         cy="834.86877"
         r="10.354031"
         id="circle2047" />
      <circle
         style="fill:#414448;fill-opacity:1;stroke-width:1.99499631"
         cx="1513.8754"
         cy="834.98846"
         r="117.44543"
         id="circle2049" />
      <path
         style="fill:#d7d7e2;fill-opacity:1;stroke-width:1.99499631"
         inkscape:connector-curvature="0"
         d="m 1608.0993,834.88875 a 94.522925,94.522925 0 1 1 -1.995,-19.15197 94.722424,94.722424 0 0 1 1.995,19.15197 z"
         id="path2051" />
      <ellipse
         style="opacity:0.5;fill:#adadb3;fill-opacity:1;stroke-width:1.99499631"
         cx="1513.7561"
         cy="834.86877"
         rx="80.976898"
         ry="81.176399"
         id="ellipse2053" />
      <path
         style="fill:#d7d7e2;fill-opacity:1;stroke-width:1.99499631"
         inkscape:connector-curvature="0"
         d="m 1540.828,744.25606 v 3.4314 l -26.9524,89.23618 -21.6257,-94.14387 a 94.742374,94.742374 0 0 1 48.5781,1.47629 z"
         id="path2055" />
      <path
         style="fill:#d7d7e2;fill-opacity:1;stroke-width:1.99499631"
         inkscape:connector-curvature="0"
         d="m 1540.6485,925.56133 a 94.762324,94.762324 0 0 1 -47.5009,1.6359 l 20.728,-90.27359 z"
         id="path2057" />
      <path
         style="fill:#d7d7e2;fill-opacity:1;stroke-width:1.99499631"
         inkscape:connector-curvature="0"
         d="m 1608.0993,834.88875 a 94.722424,94.722424 0 0 1 -4.5087,29.00724 h -0.4588 l -89.2562,-26.97235 92.2886,-21.18686 a 95.241123,95.241123 0 0 1 1.9351,19.15197 z"
         id="path2059" />
      <path
         style="fill:#d7d7e2;fill-opacity:1;stroke-width:1.99499631"
         inkscape:connector-curvature="0"
         d="m 1513.8756,836.92364 -89.2361,26.9524 h -0.6983 a 95.520423,95.520423 0 0 1 -2.5735,-48.19911 z"
         id="path2061" />
      <circle
         style="fill:#182a7c;stroke-width:1.99499631"
         cx="1513.7561"
         cy="834.86877"
         r="10.354031"
         id="circle2063" />
      <path
         style="opacity:0.2;fill:#ffffff;stroke-width:1.99499631"
         inkscape:connector-curvature="0"
         d="m 826.36002,571.44949 -29.506,59.47083 h -32.61818 l 21.8053,-37.52588 c 12.02983,-6.98248 25.57586,-14.42382 40.31888,-21.94495 z"
         id="path2065" />
      <path
         style="opacity:0.2;fill:#ffffff;stroke-width:1.99499631"
         inkscape:connector-curvature="0"
         d="m 907.31697,535.759 -29.3863,95.10147 h -43.37122 l 35.31144,-80.07915 c 12.04978,-5.22689 24.57835,-10.25428 37.44608,-15.02232 z"
         id="path2067" />
      <path
         style="opacity:0.2;fill:#ffffff;stroke-width:1.99499631"
         inkscape:connector-curvature="0"
         d="m 1212.8307,509.1657 -64.0194,113.53524 -2.8728,0.1995 c -7.98,0.5187 -15.3814,0.85785 -21.6657,0.97755 l 57.5956,-116.56764 7.7405,0.41895 c 7.2618,0.399 15.0822,0.8778 23.2218,1.4364 z"
         id="path2069" />
      <polygon
         style="opacity:0.2;fill:none;stroke:#ffffff;stroke-miterlimit:10"
         points="512.03,571.47 537.15,449.18 377.34,448.63 359.02,574.82 "
         stroke-miterlimit="10"
         id="polygon2071"
         transform="matrix(1.9949963,0,0,1.9949963,-24.386202,-264.49386)" />
      <path
         style="opacity:0.5;fill:#182132;fill-opacity:1;stroke-width:1.99499631"
         inkscape:connector-curvature="0"
         d="m 1295.5432,894.51919 c -4.4089,1.99499 -14.8028,7.26178 -16.2991,15.54102 H 597.71349 l -13.96497,-0.1197 a 144.15843,144.15843 0 0 0 7.97998,-15.44127 z"
         id="path2073" />
      <path
         style="opacity:0.1;stroke-width:1.99499631"
         inkscape:connector-curvature="0"
         d="m 1010.0393,788.58488 h -0.6982 c 0,0 22.9424,-6.18449 0.6982,0 z"
         id="path2119" />
      <path
         style="opacity:0.1;stroke-width:1.99499631"
         inkscape:connector-curvature="0"
         d="m 1199.7036,904.11512 v 3.39149 a 7.3814863,7.3814863 0 0 1 0,-3.39149 z"
         id="path2123" />
    </g>
  </g>
</svg>
