<?xml version="1.0" encoding="UTF-8" standalone="no"?>
<!-- Created with Inkscape (http://www.inkscape.org/) -->

<svg
   xmlns:dc="http://purl.org/dc/elements/1.1/"
   xmlns:cc="http://creativecommons.org/ns#"
   xmlns:rdf="http://www.w3.org/1999/02/22-rdf-syntax-ns#"
   xmlns:svg="http://www.w3.org/2000/svg"
   xmlns="http://www.w3.org/2000/svg"
   xmlns:sodipodi="http://sodipodi.sourceforge.net/DTD/sodipodi-0.dtd"
   xmlns:inkscape="http://www.inkscape.org/namespaces/inkscape"
   width="97.201385mm"
   height="27.26549mm"
   viewBox="0 0 97.201385 27.265489"
   version="1.1"
   id="svg8"
   inkscape:version="0.92.4 (5da689c313, 2019-01-14)"
   sodipodi:docname="mansard.svg">
  <defs
     id="defs2" />
  <sodipodi:namedview
     id="base"
     pagecolor="#ffffff"
     bordercolor="#666666"
     borderopacity="1.0"
     inkscape:pageopacity="0.0"
     inkscape:pageshadow="2"
     inkscape:zoom="2.1826701"
     inkscape:cx="186.77443"
     inkscape:cy="44.683511"
     inkscape:document-units="mm"
     inkscape:current-layer="layer1"
     showgrid="false"
     inkscape:window-width="1600"
     inkscape:window-height="838"
     inkscape:window-x="-8"
     inkscape:window-y="-8"
     inkscape:window-maximized="1"
     showguides="true"
     inkscape:guide-bbox="true" />
  <metadata
     id="metadata5">
    <rdf:RDF>
      <cc:Work
         rdf:about="">
        <dc:format>image/svg+xml</dc:format>
        <dc:type
           rdf:resource="http://purl.org/dc/dcmitype/StillImage" />
        <dc:title />
      </cc:Work>
    </rdf:RDF>
  </metadata>
  <g
     inkscape:label="Layer 1"
     inkscape:groupmode="layer"
     id="layer1"
     transform="translate(-19.948218,-136.90489)">
    <g
       id="g2117">
      <path
         inkscape:connector-curvature="0"
         id="path878"
         d="m 50.689676,158.05933 c 0.0817,-0.86813 0.45376,-5.38029 0.592635,-7.18717 l 0.0779,-1.01355 h 1.325338 c 0.962549,0 1.335855,0.0396 1.363765,0.14479 0.02114,0.0796 0.202494,0.69211 0.403014,1.36106 0.200522,0.66894 0.607115,2.06521 0.903541,3.10281 0.296426,1.0376 0.574546,1.84555 0.618041,1.79544 0.04349,-0.0501 0.292459,-0.6645 0.553254,-1.3653 0.260794,-0.70079 0.790069,-2.04579 1.176168,-2.98887 0.386098,-0.94308 0.701995,-1.79012 0.701995,-1.88231 0,-0.13708 0.256585,-0.16762 1.408208,-0.16762 h 1.408205 l -0.07611,1.92977 c -0.04186,1.06137 -0.07611,3.09427 -0.07611,4.51755 v 2.58778 h -0.941618 -0.941617 l 0.07075,-1.01356 c 0.125169,-1.79309 0.222967,-6.11284 0.136554,-6.03166 -0.04602,0.0432 -0.672661,1.63307 -1.392531,3.53296 l -1.308854,3.45434 -0.929341,0.0335 -0.929344,0.0335 -0.171341,-0.61266 c -1.335035,-4.7736 -1.743099,-6.19781 -1.813484,-6.32935 -0.112561,-0.21037 -0.351025,2.77854 -0.497683,6.23794 l -0.02701,0.63709 -0.856938,0.0344 -0.856938,0.0344 z"
         style="opacity:1;fill:#808080;fill-opacity:1;fill-rule:nonzero;stroke:none;stroke-width:1.79322958;stroke-linecap:round;stroke-linejoin:miter;stroke-miterlimit:4;stroke-dasharray:none;stroke-opacity:1;paint-order:markers fill stroke" />
      <path
         inkscape:connector-curvature="0"
         id="path880"
         d="m 51.455251,149.07087 c 0,-0.14619 4.642252,-4.25107 4.807577,-4.25107 0.17582,0 4.806698,4.08216 4.806698,4.23714 0,0.0587 -0.567404,0.10666 -1.260896,0.10666 h -1.260895 l -1.10376,-0.98459 c -0.607065,-0.54153 -1.140788,-0.9846 -1.186045,-0.9846 -0.04526,0 -0.571923,0.44307 -1.170363,0.9846 l -1.088078,0.98459 H 52.72737 c -0.699664,0 -1.272119,-0.0417 -1.272119,-0.0927 z"
         style="opacity:1;fill:#b3b3b3;fill-opacity:1;fill-rule:nonzero;stroke:none;stroke-width:1.79322958;stroke-linecap:round;stroke-linejoin:miter;stroke-miterlimit:4;stroke-dasharray:none;stroke-opacity:1;paint-order:markers fill stroke" />
      <path
         inkscape:connector-curvature="0"
         id="path882"
         d="m 61.301195,158.80174 c 0,-0.0506 0.434166,-0.89763 0.964811,-1.88232 0.530646,-0.98468 1.577224,-2.97619 2.32573,-4.42558 l 1.360919,-2.63523 1.236184,1.3e-4 1.236186,1.3e-4 0.385588,1.12926 c 0.379129,1.11033 2.273527,6.27802 2.696366,7.35536 l 0.215953,0.55022 h -1.08612 -1.086123 l -0.513112,-1.53481 -0.513111,-1.53481 -1.797437,-0.0318 -1.797438,-0.0318 -0.742728,1.56479 -0.742728,1.56479 -1.07147,0.002 c -0.589309,0.001 -1.07147,-0.0396 -1.07147,-0.0901 z m 6.718409,-4.63449 c 0,-0.14532 -0.776129,-2.41383 -0.904058,-2.64242 -0.09434,-0.16857 -0.219128,0.005 -0.714084,0.99091 -0.329874,0.65736 -0.646771,1.3188 -0.704212,1.46989 l -0.104439,0.27469 h 1.213395 c 0.667369,0 1.213398,-0.0419 1.213398,-0.0931 z"
         style="opacity:1;fill:#808080;fill-opacity:1;fill-rule:nonzero;stroke:none;stroke-width:1.79322958;stroke-linecap:round;stroke-linejoin:miter;stroke-miterlimit:4;stroke-dasharray:none;stroke-opacity:1;paint-order:markers fill stroke" />
      <path
         inkscape:connector-curvature="0"
         id="path884"
         d="m 72.191514,158.80683 c 0.0011,-0.0478 0.07809,-1.28576 0.171262,-2.75107 0.09317,-1.46531 0.170974,-3.18545 0.172895,-3.82254 0.0019,-0.63709 0.03637,-1.43201 0.07654,-1.76648 l 0.07305,-0.60813 1.229088,0.007 1.229087,0.007 0.881203,1.47014 c 2.184881,3.6451 3.178707,5.21722 3.250615,5.14212 0.04271,-0.0446 0.109805,-1.33213 0.149085,-2.86114 0.03928,-1.52902 0.09876,-3.00157 0.132175,-3.27233 l 0.06075,-0.4923 h 0.924827 0.92483 l -0.06117,0.37646 c -0.08984,0.55293 -0.280268,3.87103 -0.369171,6.43257 l -0.07752,2.23356 -1.217975,-0.0327 -1.217977,-0.0327 -2.095257,-3.35642 -2.095259,-3.35641 -0.07538,0.9818 c -0.04146,0.54 -0.08086,1.63338 -0.08757,2.42975 -0.0067,0.79636 -0.04567,1.87796 -0.08658,2.40356 l -0.07439,0.95564 h -0.909508 c -0.500229,0 -0.908672,-0.0391 -0.907645,-0.0869 z"
         style="opacity:1;fill:#808080;fill-opacity:1;fill-rule:nonzero;stroke:none;stroke-width:1.79322958;stroke-linecap:round;stroke-linejoin:miter;stroke-miterlimit:4;stroke-dasharray:none;stroke-opacity:1;paint-order:markers fill stroke" />
      <path
         inkscape:connector-curvature="0"
         id="path886"
         d="m 83.52583,158.87235 c -0.632844,-0.11325 -0.654836,-0.12969 -0.722691,-0.54002 -0.03849,-0.23277 -0.07056,-0.61368 -0.07126,-0.84647 l -0.0013,-0.42325 0.608132,0.23139 c 0.884735,0.33663 2.120921,0.39795 2.633998,0.13066 0.222298,-0.1158 0.451319,-0.34658 0.508937,-0.51283 0.225076,-0.64946 0.01058,-0.93966 -1.873271,-2.53451 -1.075648,-0.91063 -1.439265,-1.45343 -1.505048,-2.24669 -0.143103,-1.72562 1.600631,-2.74678 4.115758,-2.41026 0.548486,0.0734 1.03356,0.17361 1.077939,0.22271 0.04438,0.0491 0.108624,0.41888 0.142771,0.82172 0.0532,0.62755 0.03653,0.72263 -0.116366,0.66396 -1.051954,-0.40367 -2.411431,-0.37996 -2.86915,0.05 -0.363786,0.34176 -0.384153,0.89455 -0.04868,1.32104 0.133374,0.16956 0.75964,0.72708 1.391706,1.23895 1.440249,1.16635 1.874557,1.82585 1.80771,2.745 -0.05848,0.80413 -0.521377,1.47266 -1.296141,1.87192 -0.504108,0.25978 -0.730281,0.29821 -1.852292,0.31468 -0.70294,0.0103 -1.571789,-0.0338 -1.930776,-0.098 z"
         style="opacity:1;fill:#808080;fill-opacity:1;fill-rule:nonzero;stroke:none;stroke-width:1.79322958;stroke-linecap:round;stroke-linejoin:miter;stroke-miterlimit:4;stroke-dasharray:none;stroke-opacity:1;paint-order:markers fill stroke" />
      <path
         inkscape:connector-curvature="0"
         id="path888"
         d="m 88.638167,158.82217 c 0,-0.0393 0.417566,-0.84855 0.92792,-1.79823 0.510355,-0.94968 1.557341,-2.95039 2.326632,-4.44601 l 1.398715,-2.71932 h 1.237268 1.237271 l 0.334635,0.95563 c 0.332981,0.95091 1.921203,5.30158 2.600571,7.12383 l 0.35628,0.95564 -1.068557,-8e-4 -1.068557,-7.9e-4 -0.527296,-1.53392 -0.527293,-1.53392 -1.800797,-0.0318 -1.800796,-0.0318 -0.741527,1.5666 -0.741526,1.56661 -1.07147,1e-5 c -0.589309,1e-5 -1.071473,-0.0322 -1.071473,-0.0715 z m 6.324314,-5.95895 c -0.270806,-0.7684 -0.537294,-1.39857 -0.59219,-1.40036 -0.0549,-0.002 -0.399053,0.6269 -0.764789,1.3971 l -0.664972,1.40036 h 1.257165 1.257163 z"
         style="opacity:1;fill:#808080;fill-opacity:1;fill-rule:nonzero;stroke:none;stroke-width:1.79322958;stroke-linecap:round;stroke-linejoin:miter;stroke-miterlimit:4;stroke-dasharray:none;stroke-opacity:1;paint-order:markers fill stroke" />
      <path
         inkscape:connector-curvature="0"
         id="path890"
         d="m 99.577555,158.51725 c 0.08519,-0.52209 0.273204,-3.88386 0.362779,-6.48674 l 0.07475,-2.1719 h 2.51852 c 2.65422,0 3.02442,0.0546 3.68259,0.54324 0.54589,0.40527 0.7644,0.90086 0.75844,1.72019 -0.009,1.23759 -0.71537,2.14127 -1.94223,2.48477 l -0.52872,0.14803 0.44998,0.82421 c 0.24748,0.45332 0.74815,1.38456 1.11258,2.06944 l 0.66261,1.24522 h -1.09493 -1.09493 l -0.20761,-0.55022 c -0.11418,-0.30261 -0.61646,-1.40511 -1.11617,-2.44998 -0.4997,-1.04487 -0.90855,-1.91798 -0.90855,-1.94023 0,-0.0222 0.31442,-0.0405 0.69872,-0.0405 1.2157,0 1.94668,-0.50387 2.0481,-1.41176 0.0697,-0.62418 -0.24378,-1.07394 -0.86978,-1.2478 -0.51889,-0.14412 -1.98943,-0.15581 -2.20761,-0.0176 -0.1197,0.0759 -0.18001,0.74012 -0.25486,2.80722 -0.0539,1.48931 -0.10065,3.19001 -0.10382,3.77932 l -0.006,1.07147 h -1.04776 -1.047457 z"
         style="opacity:1;fill:#808080;fill-opacity:1;fill-rule:nonzero;stroke:none;stroke-width:1.79322958;stroke-linecap:round;stroke-linejoin:miter;stroke-miterlimit:4;stroke-dasharray:none;stroke-opacity:1;paint-order:markers fill stroke" />
      <path
         inkscape:connector-curvature="0"
         id="path894"
         d="m 108.14573,157.94757 c 0.16342,-2.06621 0.29696,-4.97546 0.29852,-6.50335 l 0.002,-1.59985 2.98274,0.0361 c 3.31663,0.0401 3.53688,0.0848 4.47296,0.90665 1.26555,1.11117 1.57556,3.61017 0.69207,5.57886 -0.41313,0.92058 -1.36352,1.79529 -2.36199,2.17391 -0.69849,0.26487 -0.92273,0.28616 -3.45462,0.32804 l -2.70765,0.0448 z m 5.1295,-0.7889 c 1.26053,-0.55677 1.82701,-1.5444 1.82853,-3.18793 7.9e-4,-0.84414 -0.0461,-1.13068 -0.24651,-1.50585 -0.52937,-0.99114 -1.05863,-1.20413 -3.0097,-1.21118 l -1.40548,-0.005 -0.0683,0.72396 c -0.0376,0.39819 -0.10297,1.81376 -0.14531,3.14574 l -0.077,2.42176 1.2834,-0.0677 c 0.94333,-0.0498 1.431,-0.1329 1.84038,-0.31372 z"
         style="opacity:1;fill:#808080;fill-opacity:1;fill-rule:nonzero;stroke:none;stroke-width:1.79322958;stroke-linecap:round;stroke-linejoin:miter;stroke-miterlimit:4;stroke-dasharray:none;stroke-opacity:1;paint-order:markers fill stroke" />
      <path
         sodipodi:nodetypes="ccccccccscccccccccccscccccscccccccscssccscssccscccccccccccccccsssccccscccc"
         inkscape:connector-curvature="0"
         id="path896"
         d="m 19.948231,160.10997 v -1.21626 l 0.550215,-0.001 c 0.507792,-0.001 0.571754,-0.0348 0.829576,-0.43438 0.153649,-0.23812 0.794534,-1.09754 1.424189,-1.90983 l 1.144828,-1.4769 h 1.829148 1.829148 l 0.197054,0.70877 c 0.229619,0.8259 0.272971,0.72269 -0.9182,2.18611 l -0.755076,0.92767 h 0.797704 0.797705 l 0.381929,-0.60813 0.381928,-0.60813 0.151419,0.3475 c 0.08328,0.19113 0.153768,0.46479 0.156641,0.60813 0.005,0.24779 0.04946,0.26042 0.902944,0.2564 l 0.897718,-0.004 0.32762,-0.51703 c 0.180194,-0.28436 0.374914,-0.51703 0.432713,-0.51703 0.0578,0 0.164155,0.23457 0.236344,0.52126 l 0.131255,0.52125 h 1.08903 1.089033 l -0.221531,-0.43438 c -0.229684,-0.45036 -0.82569,-2.30215 -0.82569,-2.56541 0,-0.0824 0.107802,-0.30129 0.239556,-0.48632 l 0.239559,-0.33643 h 1.841934 1.841937 l 0.473511,1.50192 c 0.260435,0.82605 0.50341,1.68612 0.539944,1.91127 l 0.06643,0.40935 h 1.097667 c 1.002646,0 1.089834,-0.0175 1.007178,-0.20271 -0.423648,-0.94905 -2.714328,-8.36505 -2.714328,-8.78754 0,-0.12269 -0.204724,-0.16068 -0.865786,-0.16068 -0.860155,0 -0.867034,0.002 -1.057883,0.37646 -0.147614,0.28928 -2.047312,2.87131 -3.012072,4.09394 -0.193625,0.24538 -0.254823,0.2032 -0.384006,-0.26466 -0.135382,-0.49031 -0.234961,-0.32743 1.636456,-2.67666 0.62421,-0.78359 1.13493,-1.44819 1.13493,-1.47689 0,-0.0287 -0.36418,-0.0522 -0.809289,-0.0522 -0.802545,0 -0.810641,0.003 -0.971508,0.37646 -0.258185,0.59918 -1.604309,2.21498 -1.695807,2.03554 -0.04297,-0.0843 -0.195876,-0.59629 -0.339783,-1.13782 -0.143907,-0.54153 -0.281498,-1.05179 -0.30576,-1.13393 -0.03267,-0.11058 -0.307594,-0.14063 -1.059559,-0.11583 -0.837472,0.0276 -1.006737,0.064 -0.965747,0.20725 0.02733,0.0956 0.325154,1.00533 0.661823,2.02171 l 0.612122,1.84796 -0.297059,0.38947 c -0.163383,0.2142 -0.313335,0.373 -0.333232,0.35289 -0.08665,-0.0876 -1.211969,-3.90634 -1.282282,-4.3514 l -0.07777,-0.4923 h -0.909924 -0.90992 l -0.287285,0.56693 c -0.319277,0.63006 -3.138055,4.39089 -5.82321,7.76937 -0.111193,0.1399 -0.141891,-2.08794 -0.144794,-10.5082 l -0.0037,-10.65455 11.531746,-1.9e-4 c 6.391726,-1.1e-4 11.529576,-0.028 11.529576,0.002 0,0.03 -2.076378,2.7494 -4.601669,6.01636 l -4.591439,5.93992 0.666779,0.0352 c 0.536323,0.0283 0.696055,-0.006 0.816422,-0.17376 0.738624,-1.03109 9.060682,-11.78962 9.145399,-11.8191 0,0 -0.03946,4.53275 -8.48e-4,12.23971 l 0.06098,12.17022 H 32.226702 19.948231 Z"
         style="opacity:1;fill:#808080;fill-opacity:1;fill-rule:nonzero;stroke:none;stroke-width:1.79322958;stroke-linecap:round;stroke-linejoin:miter;stroke-miterlimit:4;stroke-dasharray:none;stroke-opacity:1;paint-order:markers fill stroke" />
      <path
         sodipodi:nodetypes="csscccscc"
         inkscape:connector-curvature="0"
         id="path900"
         d="m 19.948231,163.72059 c 0,-0.113 0,-0.41745 0,-0.41745 0.388796,-0.008 1.549971,-0.008 48.600685,-0.008 H 117.1496 v 0.41421 0.4096 l -48.560308,0.046 c -26.66747,0.0253 -48.573634,-0.046 -48.641061,-0.046 z"
         style="opacity:1;fill:#b3b3b3;fill-opacity:1;fill-rule:nonzero;stroke:none;stroke-width:2.254354;stroke-linecap:round;stroke-linejoin:miter;stroke-miterlimit:4;stroke-dasharray:none;stroke-opacity:1;paint-order:markers fill stroke" />
      <path
         inkscape:connector-curvature="0"
         id="path915"
         d="m 30.207579,157.16901 c -0.01071,-0.0107 -0.0195,-0.0429 -0.0195,-0.0716 0,-0.0287 -0.01797,-0.0949 -0.03992,-0.14721 -0.02196,-0.0523 -0.06248,-0.17328 -0.09005,-0.26885 -0.02757,-0.0956 -0.06656,-0.21936 -0.08665,-0.2751 -0.07985,-0.22163 -0.131107,-0.39309 -0.129845,-0.43438 0.0013,-0.0452 0.03532,-0.094 0.345165,-0.49594 0.17245,-0.22372 0.253966,-0.31169 0.290883,-0.31395 0.008,-5.3e-4 0.04661,0.10432 0.08588,0.2329 0.03927,0.12858 0.08162,0.24009 0.09411,0.24782 0.01249,0.008 0.02273,0.0389 0.02273,0.0693 0,0.0304 0.01844,0.098 0.04098,0.15032 0.107641,0.24981 0.161684,0.40001 0.161174,0.44797 -5.29e-4,0.0595 -0.520206,0.78598 -0.60211,0.84187 -0.02933,0.02 -0.06211,0.0276 -0.07284,0.0169 z"
         style="opacity:1;fill:#808080;fill-opacity:1;fill-rule:nonzero;stroke:none;stroke-width:0.44830739;stroke-linecap:round;stroke-linejoin:miter;stroke-miterlimit:4;stroke-dasharray:none;stroke-opacity:1;paint-order:markers fill stroke" />
      <path
         inkscape:connector-curvature="0"
         id="path917"
         d="m 34.230352,153.94886 c -0.01519,-0.0246 0.100047,-0.18988 0.306633,-0.43994 0.05855,-0.0709 0.172279,-0.21357 0.252717,-0.31709 0.08044,-0.10353 0.156877,-0.20127 0.16986,-0.21719 0.134393,-0.16486 0.60325,-0.80398 0.751049,-1.02378 0.196196,-0.29179 0.268814,-0.36544 0.2697,-0.27356 0.0016,0.16289 0.06252,0.60454 0.08678,0.6288 0.01572,0.0157 0.02855,0.0518 0.02855,0.0802 0,0.0284 0.03881,0.17243 0.08625,0.32 0.04744,0.14756 0.107503,0.33997 0.133485,0.42757 0.02598,0.0876 0.06351,0.20488 0.0834,0.26063 0.09062,0.25401 0.109093,0.311 0.134364,0.41451 0.01484,0.0607 0.01942,0.12265 0.01021,0.13756 -0.02125,0.0344 -2.291774,0.0366 -2.313004,0.002 z"
         style="opacity:1;fill:#808080;fill-opacity:1;fill-rule:nonzero;stroke:none;stroke-width:0.44830739;stroke-linecap:round;stroke-linejoin:miter;stroke-miterlimit:4;stroke-dasharray:none;stroke-opacity:1;paint-order:markers fill stroke" />
      <path
         inkscape:connector-curvature="0"
         id="path919"
         d="m 24.830725,153.93147 c 0,-0.0236 0.0815,-0.14428 0.181114,-0.2682 0.289793,-0.36049 0.319869,-0.39931 0.769012,-0.9927 0.449408,-0.59374 0.671559,-0.90865 0.671559,-0.95198 0,-0.0143 0.03067,-0.0461 0.06815,-0.0706 l 0.06815,-0.0447 0.01786,0.29315 c 0.0098,0.16124 0.0368,0.3525 0.05994,0.42503 0.02315,0.0725 0.08051,0.25567 0.127476,0.40698 0.240094,0.77352 0.276813,0.88809 0.303284,0.94625 0.01577,0.0347 0.03025,0.11285 0.03217,0.17375 l 0.0035,0.11074 -1.151106,0.008 c -1.000916,0.007 -1.151107,0.002 -1.151107,-0.0353 z"
         style="opacity:1;fill:#808080;fill-opacity:1;fill-rule:nonzero;stroke:none;stroke-width:0.44830739;stroke-linecap:round;stroke-linejoin:miter;stroke-miterlimit:4;stroke-dasharray:none;stroke-opacity:1;paint-order:markers fill stroke" />
      <path
         sodipodi:nodetypes="sccccccs"
         inkscape:connector-curvature="0"
         id="path923"
         d="m 33.816432,148.87464 c 0,-0.12063 8.932085,-11.74019 9.194121,-11.95766 0.06459,0 0.420303,0.008 0.818593,0 l 0.615886,-4e-5 -4.579297,6.01653 -4.601371,5.98957 -0.723966,0.005 c -0.398182,0.003 -0.723966,-0.0214 -0.723966,-0.0534 z"
         style="opacity:1;fill:#b3b3b3;fill-opacity:1;fill-rule:nonzero;stroke:none;stroke-width:1.79322958;stroke-linecap:round;stroke-linejoin:miter;stroke-miterlimit:4;stroke-dasharray:none;stroke-opacity:1;paint-order:markers fill stroke" />
    </g>
  </g>
</svg>
