<svg xmlns="http://www.w3.org/2000/svg" xmlns:xlink="http://www.w3.org/1999/xlink" version="1.1" x="0px" y="0px" viewBox="0 0 100 125" style="enable-background:new 0 0 100 100;" xml:space="preserve"><path d="M22.3,49.3h1.3v1.2c0,2.3,1.9,4.2,4.2,4.2s4.2-1.9,4.2-4.2v-1.2h21.6v1.2c0,2.3,1.9,4.2,4.2,4.2c2.3,0,4.2-1.9,4.2-4.2v-1.2  h1.3c1.7,0,3.1-1.4,3.1-3.1v-7.9c0-1.3-0.7-2.6-1.8-3.3L62,33.1c1.1-0.6,1.8-1.7,1.8-3c0-1.9-1.6-3.5-3.5-3.5h-3l-2.4-5.8  c-0.6-1.8-2.3-3-4.2-3H34.9c-1.9,0-3.6,1.2-4.1,2.9l-2.4,5.9h-3c-1.9,0-3.5,1.6-3.5,3.5c0,1.3,0.7,2.5,1.8,3L21,34.9  c-1.1,0.8-1.8,2-1.8,3.3v7.9C19.3,47.9,20.7,49.3,22.3,49.3z M29.6,50.5c0,0.9-0.8,1.7-1.7,1.7s-1.7-0.8-1.7-1.7v-1.2h3.4V50.5z   M59.5,50.5c0,0.9-0.8,1.7-1.7,1.7c-0.9,0-1.7-0.8-1.7-1.7v-1.2h3.4V50.5z M60.3,29.1c0.5,0,1,0.4,1,1s-0.4,1-1,1h-1.2l-0.8-2H60.3z   M33.1,21.6c0.3-0.8,1-1.3,1.8-1.3h15.8c0.8,0,1.5,0.5,1.8,1.4l3,7.4v0h0l0.8,2H29.2l0.8-2h0v0L33.1,21.6z M25.3,29.1h2l-0.8,2h-1.2  c-0.5,0-1-0.4-1-1S24.8,29.1,25.3,29.1z M21.8,38.3c0-0.5,0.3-1,0.7-1.3l5.1-3.4h30.6l5.1,3.4c0.4,0.3,0.7,0.8,0.7,1.3v7.9  c0,0.3-0.3,0.6-0.6,0.6h-41c-0.3,0-0.6-0.3-0.6-0.6V38.3z"/><rect x="53.2" y="40" width="7.5" height="2.5"/><rect x="25" y="40" width="7.5" height="2.5"/><path d="M82.6,20.7v2.5h7.8c0.7,0,1.3-0.6,1.3-1.3v-8.6c0-4.4-3.6-8-8-8H18.8C13,5.3,8.3,10,8.3,15.8v71.6c0,4,3.2,7.2,7.2,7.2  l55.4,0c4,0,7.2-3.2,7.2-7.2V13.4c0-3.1,2.5-5.5,5.5-5.5c3.1,0,5.5,2.5,5.5,5.5v7.3H82.6z M75.6,13.4v74.1c0,2.6-2.1,4.7-4.7,4.7  l-55.4,0c-2.6,0-4.7-2.1-4.7-4.7V15.8c0-4.4,3.6-8,8-8h59C76.5,9.3,75.6,11.2,75.6,13.4z"/><rect x="20.6" y="62.7" width="44.4" height="2.5"/><rect x="20.6" y="75.2" width="44.4" height="2.5"/><text x="0" y="115" fill="#000000" font-size="5px" font-weight="bold" font-family="'Helvetica Neue', Helvetica, Arial-Unicode, Arial, Sans-serif">Created by Arfan Khan Kamol</text><text x="0" y="120" fill="#000000" font-size="5px" font-weight="bold" font-family="'Helvetica Neue', Helvetica, Arial-Unicode, Arial, Sans-serif">from the Noun Project</text></svg>