<?xml version="1.0" encoding="UTF-8" standalone="no"?>
<!-- Created with Inkscape (http://www.inkscape.org/) -->

<svg
   xmlns:dc="http://purl.org/dc/elements/1.1/"
   xmlns:cc="http://creativecommons.org/ns#"
   xmlns:rdf="http://www.w3.org/1999/02/22-rdf-syntax-ns#"
   xmlns:svg="http://www.w3.org/2000/svg"
   xmlns="http://www.w3.org/2000/svg"
   xmlns:sodipodi="http://sodipodi.sourceforge.net/DTD/sodipodi-0.dtd"
   xmlns:inkscape="http://www.inkscape.org/namespaces/inkscape"
   width="95.707809mm"
   height="20.843298mm"
   viewBox="0 0 95.707809 20.843298"
   version="1.1"
   id="svg2156"
   inkscape:version="0.92.4 (5da689c313, 2019-01-14)"
   sodipodi:docname="oldmutual.svg">
  <defs
     id="defs2150" />
  <sodipodi:namedview
     id="base"
     pagecolor="#ffffff"
     bordercolor="#666666"
     borderopacity="1.0"
     inkscape:pageopacity="0.0"
     inkscape:pageshadow="2"
     inkscape:zoom="1.4"
     inkscape:cx="198.81827"
     inkscape:cy="-55.582248"
     inkscape:document-units="mm"
     inkscape:current-layer="layer1"
     showgrid="false"
     inkscape:window-width="1600"
     inkscape:window-height="838"
     inkscape:window-x="-8"
     inkscape:window-y="-8"
     inkscape:window-maximized="1" />
  <metadata
     id="metadata2153">
    <rdf:RDF>
      <cc:Work
         rdf:about="">
        <dc:format>image/svg+xml</dc:format>
        <dc:type
           rdf:resource="http://purl.org/dc/dcmitype/StillImage" />
        <dc:title></dc:title>
      </cc:Work>
    </rdf:RDF>
  </metadata>
  <g
     inkscape:label="Layer 1"
     inkscape:groupmode="layer"
     id="layer1"
     transform="translate(-72.328221,-104.07046)">
    <g
       id="g2791">
      <path
         inkscape:connector-curvature="0"
         id="path2712"
         d="m 120.82459,118.40641 c -0.049,-0.049 -0.0891,-1.88289 -0.0891,-4.07532 v -3.98625 h 0.9846 0.98459 l 1.04494,1.68699 c 1.21301,1.9583 0.96473,1.98546 2.33056,-0.25488 l 0.86851,-1.42459 0.97068,-0.004 0.97069,-0.004 -0.0354,4.04192 -0.0353,4.04191 -0.83226,0.0397 -0.83226,0.0397 -0.0363,-2.64524 -0.0362,-2.64524 -1.12107,1.71161 c -0.61659,0.94138 -1.1628,1.66292 -1.21381,1.6034 -0.051,-0.0595 -0.5687,-0.82973 -1.15042,-1.71161 l -1.05768,-1.6034 -0.0362,2.63893 -0.0362,2.63894 h -0.77661 c -0.42713,0 -0.81669,-0.0401 -0.86568,-0.0891 z"
         style="opacity:1;fill:#808080;fill-opacity:1;fill-rule:nonzero;stroke:none;stroke-width:2.06851959;stroke-linecap:round;stroke-linejoin:miter;stroke-miterlimit:4;stroke-dasharray:none;stroke-opacity:1;paint-order:markers fill stroke" />
      <path
         inkscape:connector-curvature="0"
         id="path2714"
         d="m 132.63344,118.48867 c -0.96635,-0.19841 -1.7457,-0.76568 -2.17137,-1.5805 l -0.37336,-0.71469 v -2.92432 -2.92432 h 0.86852 0.8685 v 2.61875 c 0,2.89873 0.10179,3.36612 0.81309,3.73396 0.4596,0.23766 1.40687,0.24973 1.85926,0.0237 0.69394,-0.34674 0.80127,-0.84803 0.80149,-3.74356 l 2.1e-4,-2.64504 0.90192,0.0395 0.90191,0.0395 0.0396,2.00425 c 0.0745,3.77584 -0.29223,4.99629 -1.71423,5.70426 -0.82414,0.41032 -1.90067,0.55223 -2.79551,0.3685 z"
         style="opacity:1;fill:#808080;fill-opacity:1;fill-rule:nonzero;stroke:none;stroke-width:2.06851959;stroke-linecap:round;stroke-linejoin:miter;stroke-miterlimit:4;stroke-dasharray:none;stroke-opacity:1;paint-order:markers fill stroke" />
      <path
         inkscape:connector-curvature="0"
         id="path2716"
         d="m 140.60558,118.41206 c -0.0521,-0.0521 -0.0947,-1.52777 -0.0947,-3.27927 v -3.18454 h -1.20256 -1.20255 v -0.8017 -0.80171 h 3.34043 3.34043 v 0.80171 0.8017 h -1.20018 -1.20018 l -0.0358,3.24022 -0.0358,3.24021 -0.80719,0.0391 c -0.44395,0.0215 -0.84981,-0.004 -0.90191,-0.0557 z"
         style="opacity:1;fill:#808080;fill-opacity:1;fill-rule:nonzero;stroke:none;stroke-width:2.06851959;stroke-linecap:round;stroke-linejoin:miter;stroke-miterlimit:4;stroke-dasharray:none;stroke-opacity:1;paint-order:markers fill stroke" />
      <path
         inkscape:connector-curvature="0"
         id="path2718"
         d="m 148.46107,118.4969 c -0.82372,-0.17383 -1.19904,-0.34868 -1.70835,-0.79586 -0.84875,-0.74522 -0.94754,-1.18327 -1.00356,-4.45002 l -0.0498,-2.90618 h 0.87981 0.8798 v 2.34594 c 0,2.68512 0.12679,3.39128 0.69467,3.86913 0.53301,0.44849 1.63283,0.46998 2.17627,0.0425 0.65284,-0.51352 0.73673,-0.9365 0.73673,-3.71456 v -2.54302 h 0.87769 0.8777 l -0.0426,2.97299 c -0.0397,2.77119 -0.0627,3.01065 -0.33935,3.52793 -0.68446,1.27994 -2.38807,1.98688 -3.97899,1.65114 z"
         style="opacity:1;fill:#808080;fill-opacity:1;fill-rule:nonzero;stroke:none;stroke-width:2.06851959;stroke-linecap:round;stroke-linejoin:miter;stroke-miterlimit:4;stroke-dasharray:none;stroke-opacity:1;paint-order:markers fill stroke" />
      <path
         inkscape:connector-curvature="0"
         id="path2720"
         d="m 152.89883,118.40135 c -0.0696,-0.11997 3.14995,-7.7139 3.39628,-8.01071 0.11094,-0.13367 0.37889,-0.17957 0.88761,-0.15204 l 0.72871,0.0394 1.71327,4.00174 c 0.9423,2.20095 1.68352,4.04988 1.64716,4.10872 -0.0364,0.0589 -0.4283,0.10699 -0.87095,0.10699 h -0.80484 l -0.41722,-0.93901 -0.41722,-0.93901 -1.7191,0.0371 -1.71911,0.0371 -0.36164,0.86851 -0.36163,0.86851 -0.81981,0.0395 c -0.4509,0.0217 -0.84758,-0.008 -0.88151,-0.0668 z m 4.99268,-4.01459 c -0.1391,-0.34907 -0.38289,-0.93497 -0.54176,-1.30199 l -0.28885,-0.6673 -0.52434,1.26858 c -0.28839,0.69772 -0.52474,1.28362 -0.52523,1.30199 -3.8e-4,0.0184 0.47925,0.0334 1.0661,0.0334 h 1.06698 z"
         style="opacity:1;fill:#808080;fill-opacity:1;fill-rule:nonzero;stroke:none;stroke-width:2.06851959;stroke-linecap:round;stroke-linejoin:miter;stroke-miterlimit:4;stroke-dasharray:none;stroke-opacity:1;paint-order:markers fill stroke" />
      <path
         inkscape:connector-curvature="0"
         id="path2722"
         d="m 162.29045,114.42017 v -4.07533 h 0.86613 0.86614 l 0.0358,3.24022 0.0358,3.24022 1.97085,0.037 1.97086,0.037 v 0.79813 0.79813 h -2.87277 -2.87277 z"
         style="opacity:1;fill:#808080;fill-opacity:1;fill-rule:nonzero;stroke:none;stroke-width:2.06851959;stroke-linecap:round;stroke-linejoin:miter;stroke-miterlimit:4;stroke-dasharray:none;stroke-opacity:1;paint-order:markers fill stroke" />
      <path
         inkscape:connector-curvature="0"
         id="path2724"
         d="m 112.17342,118.40884 c -0.0432,-0.0432 -0.0567,-1.00445 -0.0567,-4.03819 v -3.98149 l 0.11838,-0.0297 c 0.21052,-0.0528 3.5262,0.0114 3.73175,0.0724 0.10393,0.0308 0.30588,0.091 0.44878,0.1337 1.39502,0.41722 2.35184,1.41665 2.74662,2.86889 0.0927,0.34088 0.082,1.61865 -0.0164,1.9605 -0.21975,0.76372 -0.52827,1.30369 -1.02848,1.80006 -0.72203,0.71649 -1.57659,1.10496 -2.68387,1.22006 -0.69391,0.0721 -3.18654,0.0674 -3.26012,-0.006 z m 3.96936,-0.97613 c 1.01563,-0.33572 1.69564,-1.01076 2.02901,-2.01421 0.0947,-0.28515 0.10987,-0.42501 0.10987,-1.01568 0,-0.59066 -0.0151,-0.73053 -0.10987,-1.01567 -0.29502,-0.888 -0.84531,-1.50749 -1.6792,-1.89035 -0.59116,-0.27142 -0.89176,-0.31096 -2.25002,-0.296 l -1.20464,0.0133 -0.0122,3.14151 c -0.007,1.72784 -10e-4,3.17029 0.0122,3.20546 0.02,0.0523 0.26263,0.0603 1.33497,0.0437 l 1.31054,-0.0202 z"
         style="opacity:1;fill:#808080;fill-opacity:1;fill-rule:nonzero;stroke:none;stroke-width:0.73133212;stroke-linecap:round;stroke-linejoin:miter;stroke-miterlimit:4;stroke-dasharray:none;stroke-opacity:1;paint-order:markers fill stroke" />
      <path
         inkscape:connector-curvature="0"
         id="path2726"
         d="m 105.93808,118.40306 c -0.0437,-0.0437 -0.0571,-0.98989 -0.0571,-4.03858 v -3.98149 l 0.10728,-0.0269 c 0.059,-0.0148 0.25564,-0.0205 0.43698,-0.0127 l 0.3297,0.0142 0.0243,3.61392 c 0.0134,1.98766 0.0293,3.61903 0.0354,3.62527 0.006,0.006 1.02617,0.0169 2.26683,0.0236 l 2.25574,0.0123 v 0.40154 0.40155 l -2.67108,0.0122 c -2.03823,0.009 -2.6846,-0.001 -2.72815,-0.0449 z"
         style="opacity:1;fill:#808080;fill-opacity:1;fill-rule:nonzero;stroke:none;stroke-width:0.73133212;stroke-linecap:round;stroke-linejoin:miter;stroke-miterlimit:4;stroke-dasharray:none;stroke-opacity:1;paint-order:markers fill stroke" />
      <path
         inkscape:connector-curvature="0"
         id="path2728"
         d="m 99.999523,118.52867 c -2.058729,-0.33548 -3.4718,-2.02005 -3.472136,-4.13926 -1.84e-4,-1.18283 0.48469,-2.30811 1.346299,-3.12444 0.409599,-0.38808 1.183434,-0.79664 1.818771,-0.96025 0.426963,-0.10995 1.559503,-0.10959 1.984113,7.5e-4 0.83835,0.21762 1.39093,0.52809 1.95756,1.09986 1.59975,1.61424 1.58071,4.37846 -0.0413,5.99291 -0.6097,0.60687 -1.35952,0.97752 -2.2942,1.13406 -0.47849,0.0801 -0.79095,0.0793 -1.299117,-0.003 z m 1.314557,-0.84573 c 1.13149,-0.21649 2.02587,-1.01874 2.39638,-2.1495 0.2953,-0.90121 0.20803,-1.9617 -0.23246,-2.82514 -0.10524,-0.20629 -0.45867,-0.66145 -0.66555,-0.85713 -0.22131,-0.20932 -0.73093,-0.51195 -1.08864,-0.64648 -0.32726,-0.12308 -0.4066,-0.13345 -1.0393,-0.13588 -0.6362,-0.003 -0.71158,0.007 -1.058326,0.13111 -1.321521,0.47341 -2.152594,1.69849 -2.152594,3.17311 0,0.58748 0.116339,1.08251 0.383028,1.62981 0.322581,0.662 1.107195,1.3626 1.755308,1.56736 0.570924,0.18037 1.148654,0.21864 1.702154,0.11274 z"
         style="opacity:1;fill:#808080;fill-opacity:1;fill-rule:nonzero;stroke:none;stroke-width:0.73133212;stroke-linecap:round;stroke-linejoin:miter;stroke-miterlimit:4;stroke-dasharray:none;stroke-opacity:1;paint-order:markers fill stroke" />
      <path
         inkscape:connector-curvature="0"
         id="path2740"
         d="m 91.053857,118.37515 c -0.214496,-0.17952 -0.482888,-0.44257 -0.596428,-0.58458 -0.19895,-0.24882 -0.207951,-0.28847 -0.248095,-1.09329 -0.04495,-0.90117 -0.15572,-1.5202 -0.413127,-2.30876 -0.193713,-0.59341 -0.667078,-1.56477 -0.820201,-1.68305 -0.151455,-0.117 -0.981955,-0.10542 -1.528414,0.0213 -1.026364,0.23803 -2.416485,0.75439 -3.506799,1.30259 -0.28748,0.14454 -0.55451,0.2628 -0.593401,0.2628 -0.04621,0 -0.06408,-0.22527 -0.05159,-0.65006 l 0.01912,-0.65006 0.434254,-0.32053 c 1.699136,-1.25416 2.741363,-2.24045 3.107234,-2.94046 l 0.199792,-0.38225 -0.194453,-0.35098 c -0.590603,-1.06604 -1.756408,-2.2263 -2.911027,-2.89719 -0.511354,-0.29711 -0.513199,-0.2992 -0.659505,-0.74651 -0.176323,-0.53907 -0.284315,-1.16311 -0.214072,-1.237 0.05283,-0.0556 0.189394,-0.01 1.306713,0.43661 2.257084,0.9021 4.915473,2.56683 6.621298,4.14636 0.405413,0.3754 0.408874,0.38176 0.524857,0.96402 0.52269,2.624 0.586086,5.7063 0.171452,8.33593 -0.08968,0.56874 -0.127743,0.70149 -0.201154,0.70149 -0.03105,0 -0.231963,-0.14688 -0.446458,-0.3264 z"
         style="opacity:1;fill:#808080;fill-opacity:1;fill-rule:nonzero;stroke:none;stroke-width:1.0342598;stroke-linecap:round;stroke-linejoin:miter;stroke-miterlimit:4;stroke-dasharray:none;stroke-opacity:1;paint-order:markers fill stroke" />
      <path
         inkscape:connector-curvature="0"
         id="path2742"
         d="m 86.788483,118.87849 c -0.433293,-0.20177 -0.737945,-0.55471 -0.869533,-1.00736 l -0.105284,-0.36216 -0.191707,0.11003 c -0.393429,0.2258 -0.810817,-0.12552 -0.827657,-0.69664 l -0.0096,-0.32529 -0.634682,-0.42078 c -0.349077,-0.23143 -0.670337,-0.44199 -0.713919,-0.46792 -0.09002,-0.0536 -0.194778,-1.01469 -0.12922,-1.18553 0.0306,-0.0798 0.06685,-0.0926 0.125737,-0.0443 0.210873,0.17276 1.999153,1.02449 2.071794,0.98676 0.04509,-0.0234 0.157152,-0.0861 0.249012,-0.1392 0.09186,-0.0531 0.281127,-0.097 0.420591,-0.0976 0.307226,-10e-4 0.581537,0.23693 0.581537,0.50483 0,0.15237 0.02155,0.17182 0.150321,0.13575 0.862829,-0.24166 1.666848,0.0674 2.033636,0.78185 0.215554,0.41984 0.247669,1.08474 0.06881,1.42464 -0.447202,0.84984 -1.388213,1.19022 -2.219851,0.80294 z m 1.054349,-0.78804 c 0.262005,-0.14022 0.377974,-0.3433 0.380297,-0.66597 0.0064,-0.89134 -1.189742,-1.06794 -1.470547,-0.2171 -0.06351,0.19244 -0.05359,0.27056 0.06559,0.51676 0.07723,0.15953 0.207473,0.32241 0.289433,0.36197 0.199848,0.0964 0.559164,0.0986 0.735225,0.004 z"
         style="opacity:1;fill:#808080;fill-opacity:1;fill-rule:nonzero;stroke:none;stroke-width:1.0342598;stroke-linecap:round;stroke-linejoin:miter;stroke-miterlimit:4;stroke-dasharray:none;stroke-opacity:1;paint-order:markers fill stroke" />
      <path
         inkscape:connector-curvature="0"
         id="path2744"
         d="m 81.43522,124.71444 c -2.264058,-0.77803 -4.363421,-1.88371 -6.404559,-3.37312 -1.004429,-0.73293 -1.331686,-1.03733 -1.223851,-1.13838 0.122213,-0.11453 0.885924,-0.35189 1.301345,-0.40446 0.316744,-0.0401 0.376507,-0.024 0.736321,0.19809 1.063028,0.65613 2.636813,1.07657 3.862318,1.03181 l 0.600812,-0.022 0.210144,-0.35203 c 0.39001,-0.65333 0.703888,-1.88363 0.924328,-3.62308 0.125961,-0.99392 0.202519,-4.32006 0.123657,-5.37231 l -0.05464,-0.72912 -0.258758,-0.14465 c -0.480294,-0.26849 -0.599102,-0.782 -0.240078,-1.03765 l 0.202654,-0.1443 -0.242551,-0.26848 c -0.31836,-0.35238 -0.44348,-0.66739 -0.447816,-1.12741 -0.0067,-0.70774 0.484443,-1.35992 1.17948,-1.56632 0.42208,-0.12535 0.562987,-0.12394 0.95718,0.01 0.457035,0.15476 0.787461,0.44319 0.984252,0.85917 0.297076,0.62797 0.20745,1.22951 -0.270618,1.81631 l -0.226819,0.27841 0.166035,0.12244 c 0.35963,0.26522 0.220028,0.83928 -0.259735,1.06806 -0.191595,0.0914 -0.234878,0.15386 -0.270337,0.39033 -0.0698,0.46548 -0.04924,4.36443 0.02716,5.14902 0.213601,2.19371 0.595975,3.77098 1.074245,4.43121 l 0.198673,0.27426 h 0.555184 c 1.221468,0 2.619053,-0.38725 3.753129,-1.03994 l 0.534471,-0.3076 0.515567,0.10869 c 0.600887,0.12667 1.188571,0.35581 1.186847,0.46276 -0.0015,0.0848 -0.25416,0.30172 -1.067735,0.9161 -1.920429,1.45025 -3.950403,2.55536 -6.213197,3.38242 -1.2151,0.44413 -1.092019,0.43434 -1.913107,0.15218 z m 1.17979,-15.90169 c 0.593626,-0.4227 0.272755,-1.33505 -0.46953,-1.33505 -0.229696,0 -0.321313,0.041 -0.507453,0.22715 -0.186214,0.18621 -0.227148,0.27771 -0.227148,0.50774 0,0.23003 0.04093,0.32153 0.227148,0.50775 0.18614,0.18614 0.277757,0.22715 0.507453,0.22715 0.173995,0 0.352073,-0.0511 0.46953,-0.13474 z"
         style="opacity:1;fill:#999999;fill-opacity:1;fill-rule:nonzero;stroke:none;stroke-width:1.0342598;stroke-linecap:round;stroke-linejoin:miter;stroke-miterlimit:4;stroke-dasharray:none;stroke-opacity:1;paint-order:markers fill stroke" />
      <path
         inkscape:connector-curvature="0"
         id="path2746"
         d="m 76.421894,119.00622 c -0.548285,-0.17144 -0.930094,-0.50302 -1.142965,-0.99261 -0.113574,-0.26122 -0.101318,-0.93846 0.02233,-1.23496 0.307107,-0.73631 1.237245,-1.17847 2.011791,-0.95633 0.201349,0.0577 0.212236,0.0509 0.251399,-0.15785 0.05917,-0.31538 0.24994,-0.45925 0.608991,-0.45925 0.206852,0 0.364749,0.0466 0.502226,0.14825 l 0.200514,0.14825 1.011616,-0.52126 c 0.556384,-0.2867 1.022345,-0.55397 1.035462,-0.59394 0.05154,-0.15703 -2.538896,-1.25356 -3.706908,-1.56915 -0.637889,-0.17235 -1.602361,-0.24415 -1.807181,-0.13454 -0.185754,0.0994 -0.630914,0.98197 -0.88042,1.74549 -0.276425,0.8459 -0.400025,1.58108 -0.400025,2.37942 v 0.69697 l -0.31734,0.34349 c -0.562134,0.60847 -0.96479,0.92965 -1.053836,0.8406 -0.06115,-0.0611 -0.224652,-1.11958 -0.330564,-2.13994 -0.184734,-1.77971 -0.105029,-4.23288 0.194879,-5.99797 0.261983,-1.54188 0.207851,-1.3946 0.677845,-1.84422 0.843925,-0.80735 2.550659,-2.04871 3.871974,-2.81621 1.22977,-0.71432 3.668673,-1.82 4.014562,-1.82 0.09509,0 0.104752,0.0577 0.06999,0.41755 -0.02219,0.22966 -0.111681,0.62801 -0.198876,0.88522 -0.157216,0.46375 -0.162356,0.46976 -0.615945,0.71918 -0.6578,0.36171 -1.122919,0.72483 -1.776177,1.38668 -0.636571,0.64494 -1.329695,1.6265 -1.329695,1.88304 0,0.25941 0.457289,0.90323 1.073126,1.51085 0.520386,0.51344 1.099177,0.98665 2.200494,1.79908 l 0.434257,0.32035 0.01526,1.16765 c 0.0086,0.66202 -0.01425,1.25444 -0.05286,1.36807 -0.05241,0.15423 -0.229142,0.30012 -0.766846,0.63299 l -0.698737,0.43256 -2.65e-4,0.30233 c -3.75e-4,0.57337 -0.375049,0.91799 -0.816613,0.75132 -0.176536,-0.0666 -0.197226,-0.058 -0.256585,0.10672 -0.261624,0.7261 -0.494818,0.98337 -1.094863,1.20788 -0.428115,0.16017 -0.559793,0.16631 -0.950038,0.0443 z m 0.734331,-0.91645 c 0.517325,-0.27402 0.569385,-0.95808 0.09804,-1.28822 -0.399733,-0.27998 -1.070418,-0.009 -1.16004,0.46874 -0.112276,0.59849 0.535516,1.09835 1.062,0.81948 z"
         style="opacity:1;fill:#b3b3b3;fill-opacity:1;fill-rule:nonzero;stroke:none;stroke-width:1.0342598;stroke-linecap:round;stroke-linejoin:miter;stroke-miterlimit:4;stroke-dasharray:none;stroke-opacity:1;paint-order:markers fill stroke" />
    </g>
  </g>
</svg>
