<?xml version="1.0" encoding="UTF-8" standalone="no"?>
<!-- Created with Inkscape (http://www.inkscape.org/) -->

<svg
   xmlns:dc="http://purl.org/dc/elements/1.1/"
   xmlns:cc="http://creativecommons.org/ns#"
   xmlns:rdf="http://www.w3.org/1999/02/22-rdf-syntax-ns#"
   xmlns:svg="http://www.w3.org/2000/svg"
   xmlns="http://www.w3.org/2000/svg"
   xmlns:sodipodi="http://sodipodi.sourceforge.net/DTD/sodipodi-0.dtd"
   xmlns:inkscape="http://www.inkscape.org/namespaces/inkscape"
   width="88.490784mm"
   height="12.982618mm"
   viewBox="0 0 88.490785 12.982618"
   version="1.1"
   id="svg8"
   inkscape:version="0.92.4 (5da689c313, 2019-01-14)"
   sodipodi:docname="particulars2.svg">
  <defs
     id="defs2" />
  <sodipodi:namedview
     id="base"
     pagecolor="#ffffff"
     bordercolor="#666666"
     borderopacity="1.0"
     inkscape:pageopacity="0.0"
     inkscape:pageshadow="2"
     inkscape:zoom="1.64235"
     inkscape:cx="86.829817"
     inkscape:cy="75.761431"
     inkscape:document-units="mm"
     inkscape:current-layer="layer1"
     showgrid="false"
     inkscape:window-width="1600"
     inkscape:window-height="838"
     inkscape:window-x="-8"
     inkscape:window-y="-8"
     inkscape:window-maximized="1"
     showguides="true"
     inkscape:guide-bbox="true">
    <sodipodi:guide
       position="32.530176,24.076224"
       orientation="1,0"
       id="guide2379"
       inkscape:locked="false" />
  </sodipodi:namedview>
  <metadata
     id="metadata5">
    <rdf:RDF>
      <cc:Work
         rdf:about="">
        <dc:format>image/svg+xml</dc:format>
        <dc:type
           rdf:resource="http://purl.org/dc/dcmitype/StillImage" />
        <dc:title />
      </cc:Work>
    </rdf:RDF>
  </metadata>
  <g
     inkscape:label="Layer 1"
     inkscape:groupmode="layer"
     id="layer1"
     transform="translate(100.41392,-89.476889)">
    <g
       id="g867">
      <g
         aria-label="Particulars."
         style="font-style:normal;font-variant:normal;font-weight:normal;font-stretch:normal;font-size:13.52356052px;line-height:1.25;font-family:Arial;-inkscape-font-specification:Arial;letter-spacing:0px;word-spacing:0px;fill:#ec6b33;fill-opacity:1;stroke:none;stroke-width:1.01426697"
         id="text841">
        <path
           d="m -100.41392,89.801454 h 4.178784 q 1.555209,0 2.420717,0.757319 0.865508,0.743796 0.865508,2.042058 0,1.298262 -0.879032,2.055581 -0.865507,0.75732 -2.407193,0.75732 h -2.434241 v 4.016497 h -1.744543 z m 3.97593,4.259922 q 0.906079,0 1.36588,-0.365136 0.473324,-0.37866 0.473324,-1.081885 0,-0.716749 -0.459801,-1.081885 -0.459801,-0.37866 -1.379403,-0.37866 h -2.231387 v 2.907566 z"
           style="font-style:normal;font-variant:normal;font-weight:bold;font-stretch:normal;font-family:Muli;-inkscape-font-specification:'Muli Bold';fill:#ec6b33;fill-opacity:1;stroke-width:1.01426697"
           id="path826" />
        <path
           d="m -85.260979,92.600831 v 6.829398 h -1.663398 v -1.095408 q -0.311042,0.567989 -0.892555,0.892555 -0.581513,0.311042 -1.325309,0.311042 -0.892555,0 -1.582256,-0.432754 -0.689702,-0.432754 -1.068361,-1.230644 -0.37866,-0.79789 -0.37866,-1.852728 0,-1.054838 0.37866,-1.866251 0.392183,-0.824938 1.081884,-1.271215 0.689702,-0.459801 1.568733,-0.459801 0.743796,0 1.325309,0.324565 0.581513,0.311042 0.892555,0.879032 v -1.027791 z m -3.42146,5.612278 q 0.83846,0 1.298261,-0.581513 0.459801,-0.581513 0.459801,-1.636351 0,-1.081885 -0.459801,-1.663398 -0.459801,-0.581513 -1.311785,-0.581513 -0.838461,0 -1.311785,0.60856 -0.459801,0.595037 -0.459801,1.663398 0,1.054838 0.459801,1.622827 0.473324,0.56799 1.325309,0.56799 z"
           style="font-style:normal;font-variant:normal;font-weight:bold;font-stretch:normal;font-family:Muli;-inkscape-font-specification:'Muli Bold';fill:#ec6b33;fill-opacity:1;stroke-width:1.01426697"
           id="path828" />
        <path
           d="m -79.741463,92.438548 q 0.392183,0 0.676178,0.108189 l -0.01352,1.541686 q -0.432754,-0.175807 -0.892555,-0.175807 -0.865508,0 -1.325309,0.500372 -0.446277,0.500372 -0.446277,1.325309 v 3.691932 h -1.676922 V 94.5347 q 0,-1.081885 -0.108188,-1.933869 h 1.582256 l 0.135236,1.203597 q 0.256948,-0.662654 0.811414,-1.014267 0.554466,-0.351613 1.257691,-0.351613 z"
           style="font-style:normal;font-variant:normal;font-weight:bold;font-stretch:normal;font-family:Muli;-inkscape-font-specification:'Muli Bold';fill:#ec6b33;fill-opacity:1;stroke-width:1.01426697"
           id="path830" />
        <path
           d="m -75.326655,93.872046 v 3.056324 q 0,1.203597 1.122455,1.203597 0.311042,0 0.676178,-0.108188 v 1.338832 q -0.446277,0.162283 -1.081885,0.162283 -1.163026,0 -1.785109,-0.649131 -0.622084,-0.649131 -0.622084,-1.866251 v -3.137466 h -1.311786 v -1.271215 h 1.311786 v -1.663398 l 1.690445,-0.567989 v 2.231387 h 1.812157 v 1.271215 z"
           style="font-style:normal;font-variant:normal;font-weight:bold;font-stretch:normal;font-family:Muli;-inkscape-font-specification:'Muli Bold';fill:#ec6b33;fill-opacity:1;stroke-width:1.01426697"
           id="path832" />
        <path
           d="m -72.352741,92.600831 h 1.676922 v 6.829398 h -1.676922 z m 1.771587,-3.096895 v 1.663398 h -1.879775 v -1.663398 z"
           style="font-style:normal;font-variant:normal;font-weight:bold;font-stretch:normal;font-family:Muli;-inkscape-font-specification:'Muli Bold';fill:#ec6b33;fill-opacity:1;stroke-width:1.01426697"
           id="path834" />
        <path
           d="m -65.716476,99.538418 q -1.068361,0 -1.852727,-0.432754 -0.784367,-0.432754 -1.203597,-1.217121 -0.419231,-0.79789 -0.419231,-1.866251 0,-1.068361 0.432754,-1.879775 0.446278,-0.811414 1.244168,-1.257691 0.811413,-0.459801 1.866251,-0.459801 0.730272,0 1.40645,0.2299 0.689702,0.229901 1.095409,0.635608 l -0.473325,1.190073 q -0.432754,-0.351613 -0.919602,-0.527419 -0.486848,-0.18933 -0.960173,-0.18933 -0.919602,0 -1.433497,0.581513 -0.513895,0.56799 -0.513895,1.649875 0,1.081885 0.500371,1.649874 0.513896,0.56799 1.447021,0.56799 0.473325,0 0.960173,-0.18933 0.486848,-0.18933 0.919602,-0.540943 l 0.473325,1.190074 q -0.432754,0.405707 -1.122456,0.635607 -0.689701,0.229901 -1.447021,0.229901 z"
           style="font-style:normal;font-variant:normal;font-weight:bold;font-stretch:normal;font-family:Muli;-inkscape-font-specification:'Muli Bold';fill:#ec6b33;fill-opacity:1;stroke-width:1.01426697"
           id="path836" />
        <path
           d="m -55.777926,92.600831 v 6.829398 H -57.4278 v -1.054838 q -0.324565,0.56799 -0.865508,0.865508 -0.540942,0.297519 -1.244167,0.297519 -2.501859,0 -2.501859,-2.812901 v -4.124686 h 1.676921 v 4.13821 q 0,0.743795 0.297519,1.095408 0.311042,0.351613 0.946649,0.351613 0.743796,0 1.190073,-0.486849 0.446278,-0.486848 0.446278,-1.298261 v -3.800121 z"
           style="font-style:normal;font-variant:normal;font-weight:bold;font-stretch:normal;font-family:Muli;-inkscape-font-specification:'Muli Bold';fill:#ec6b33;fill-opacity:1;stroke-width:1.01426697"
           id="path838" />
        <path
           d="m -53.942737,89.476889 h 1.676922 v 9.95334 h -1.676922 z"
           style="font-style:normal;font-variant:normal;font-weight:bold;font-stretch:normal;font-family:Muli;-inkscape-font-specification:'Muli Bold';fill:#ec6b33;fill-opacity:1;stroke-width:1.01426697"
           id="path840" />
        <path
           d="m -43.871486,92.600831 v 6.829398 h -1.663398 v -1.095408 q -0.311042,0.567989 -0.892555,0.892555 -0.581513,0.311042 -1.325309,0.311042 -0.892555,0 -1.582256,-0.432754 -0.689702,-0.432754 -1.068361,-1.230644 -0.37866,-0.79789 -0.37866,-1.852728 0,-1.054838 0.37866,-1.866251 0.392183,-0.824938 1.081884,-1.271215 0.689702,-0.459801 1.568733,-0.459801 0.743796,0 1.325309,0.324565 0.581513,0.311042 0.892555,0.879032 v -1.027791 z m -3.42146,5.612278 q 0.83846,0 1.298261,-0.581513 0.459801,-0.581513 0.459801,-1.636351 0,-1.081885 -0.459801,-1.663398 -0.459801,-0.581513 -1.311785,-0.581513 -0.838461,0 -1.311785,0.60856 -0.459801,0.595037 -0.459801,1.663398 0,1.054838 0.459801,1.622827 0.473324,0.56799 1.325309,0.56799 z"
           style="font-style:normal;font-variant:normal;font-weight:bold;font-stretch:normal;font-family:Muli;-inkscape-font-specification:'Muli Bold';fill:#ec6b33;fill-opacity:1;stroke-width:1.01426697"
           id="path842" />
        <path
           d="m -38.351971,92.438548 q 0.392183,0 0.676178,0.108189 l -0.01352,1.541686 q -0.432754,-0.175807 -0.892555,-0.175807 -0.865508,0 -1.325309,0.500372 -0.446277,0.500372 -0.446277,1.325309 v 3.691932 H -42.03038 V 94.5347 q 0,-1.081885 -0.108188,-1.933869 h 1.582257 l 0.135235,1.203597 q 0.256948,-0.662654 0.811414,-1.014267 0.554466,-0.351613 1.257691,-0.351613 z"
           style="font-style:normal;font-variant:normal;font-weight:bold;font-stretch:normal;font-family:Muli;-inkscape-font-specification:'Muli Bold';fill:#ec6b33;fill-opacity:1;stroke-width:1.01426697"
           id="path844" />
        <path
           d="m -34.298708,99.538418 q -1.852728,0 -2.948136,-0.865508 l 0.473324,-1.190074 q 1.095409,0.811414 2.501859,0.811414 0.60856,0 0.933126,-0.202853 0.338089,-0.202854 0.338089,-0.56799 0,-0.311042 -0.229901,-0.486848 -0.229901,-0.18933 -0.784366,-0.324565 l -1.13598,-0.256948 q -1.866251,-0.405707 -1.866251,-1.906822 0,-0.622084 0.351613,-1.095409 0.351612,-0.486848 0.98722,-0.757319 0.635607,-0.270471 1.474068,-0.270471 0.730272,0 1.40645,0.2299 0.676178,0.216377 1.190073,0.635608 l -0.500371,1.149502 q -1.027791,-0.757319 -2.109676,-0.757319 -0.581513,0 -0.906078,0.216377 -0.324566,0.216377 -0.324566,0.595037 0,0.297518 0.18933,0.473324 0.202853,0.175807 0.676178,0.297519 l 1.163026,0.256947 q 1.014267,0.229901 1.474068,0.716749 0.473325,0.473325 0.473325,1.244167 0,0.94665 -0.757319,1.501116 -0.75732,0.554466 -2.069105,0.554466 z"
           style="font-style:normal;font-variant:normal;font-weight:bold;font-stretch:normal;font-family:Muli;-inkscape-font-specification:'Muli Bold';fill:#ec6b33;fill-opacity:1;stroke-width:1.01426697"
           id="path846" />
        <path
           d="m -28.374121,97.536931 v 1.893298 h -1.893298 v -1.893298 z"
           style="font-style:normal;font-variant:normal;font-weight:bold;font-stretch:normal;font-family:Muli;-inkscape-font-specification:'Muli Bold';fill:#ec6b33;fill-opacity:1;stroke-width:1.01426697"
           id="path848" />
      </g>
      <g
         aria-label="ng"
         style="font-style:normal;font-variant:normal;font-weight:normal;font-stretch:normal;font-size:13.52356052px;line-height:1.25;font-family:Arial;-inkscape-font-specification:Arial;letter-spacing:0px;word-spacing:0px;fill:#32b0aa;fill-opacity:1;stroke:none;stroke-width:1.01426697"
         id="text841-2">
        <path
           d="m -22.776003,92.425025 q 2.447764,0 2.447764,2.8129 v 4.192304 h -1.690445 v -4.111162 q 0,-0.811414 -0.311042,-1.17655 -0.311042,-0.37866 -0.960172,-0.37866 -0.770843,0 -1.244168,0.500372 -0.473325,0.486848 -0.473325,1.298262 v 3.867738 h -1.676921 V 94.5347 q 0,-1.081885 -0.108189,-1.933869 h 1.582257 l 0.121712,1.122456 q 0.351613,-0.622084 0.946649,-0.960173 0.60856,-0.338089 1.36588,-0.338089 z"
           style="font-style:normal;font-variant:normal;font-weight:bold;font-stretch:normal;font-family:Muli;-inkscape-font-specification:'Muli Bold';fill:#32b0aa;fill-opacity:1;stroke-width:1.01426697"
           id="path851" />
        <path
           d="m -11.923134,92.600831 v 6.613021 q 0,1.595778 -0.879032,2.420718 -0.879031,0.82494 -2.583,0.82494 -1.582256,0 -2.785853,-0.66266 l 0.270471,-1.28474 q 1.244167,0.64913 2.474811,0.64913 1.825681,0 1.825681,-1.812152 v -1.352356 q -0.311042,0.554466 -0.906078,0.906078 -0.595037,0.338089 -1.338833,0.338089 -0.892555,0 -1.59578,-0.41923 -0.689702,-0.432754 -1.081885,-1.203597 -0.37866,-0.784366 -0.37866,-1.78511 0,-1.000743 0.37866,-1.771586 0.392183,-0.784367 1.081885,-1.203597 0.703225,-0.432754 1.59578,-0.432754 0.757319,0 1.338833,0.324565 0.595036,0.311042 0.906078,0.879032 v -1.027791 z m -3.475555,5.314759 q 0.83846,0 1.311785,-0.554466 0.486848,-0.554466 0.486848,-1.528162 0,-0.973696 -0.473325,-1.528162 -0.473324,-0.554466 -1.325308,-0.554466 -0.838461,0 -1.325309,0.554466 -0.473325,0.554466 -0.473325,1.528162 0,0.973696 0.473325,1.528162 0.486848,0.554466 1.325309,0.554466 z"
           style="font-style:normal;font-variant:normal;font-weight:bold;font-stretch:normal;font-family:Muli;-inkscape-font-specification:'Muli Bold';fill:#32b0aa;fill-opacity:1;stroke-width:1.01426697"
           id="path853" />
      </g>
    </g>
  </g>
</svg>
