<?xml version="1.0" encoding="UTF-8" standalone="no"?>
<!-- Created with Inkscape (http://www.inkscape.org/) -->

<svg
   xmlns:dc="http://purl.org/dc/elements/1.1/"
   xmlns:cc="http://creativecommons.org/ns#"
   xmlns:rdf="http://www.w3.org/1999/02/22-rdf-syntax-ns#"
   xmlns:svg="http://www.w3.org/2000/svg"
   xmlns="http://www.w3.org/2000/svg"
   xmlns:sodipodi="http://sodipodi.sourceforge.net/DTD/sodipodi-0.dtd"
   xmlns:inkscape="http://www.inkscape.org/namespaces/inkscape"
   width="98.824081mm"
   height="18mm"
   viewBox="0 0 98.82408 18"
   version="1.1"
   id="svg8"
   inkscape:version="0.92.4 (5da689c313, 2019-01-14)"
   sodipodi:docname="particulars.svg">
  <defs
     id="defs2" />
  <sodipodi:namedview
     id="base"
     pagecolor="#ffffff"
     bordercolor="#666666"
     borderopacity="1.0"
     inkscape:pageopacity="0.0"
     inkscape:pageshadow="2"
     inkscape:zoom="3.0360768"
     inkscape:cx="186.75418"
     inkscape:cy="34.015747"
     inkscape:document-units="mm"
     inkscape:current-layer="layer1"
     showgrid="false"
     inkscape:window-width="1600"
     inkscape:window-height="838"
     inkscape:window-x="-8"
     inkscape:window-y="-8"
     inkscape:window-maximized="1" />
  <metadata
     id="metadata5">
    <rdf:RDF>
      <cc:Work
         rdf:about="">
        <dc:format>image/svg+xml</dc:format>
        <dc:type
           rdf:resource="http://purl.org/dc/dcmitype/StillImage" />
        <dc:title />
      </cc:Work>
    </rdf:RDF>
  </metadata>
  <g
     inkscape:label="Layer 1"
     inkscape:groupmode="layer"
     id="layer1"
     transform="translate(109.29361,-87.620137)">
    <g
       aria-label="Particulars.ng"
       style="font-style:normal;font-variant:normal;font-weight:normal;font-stretch:normal;font-size:13.10967731px;line-height:1.25;font-family:Arial;-inkscape-font-specification:Arial;letter-spacing:0px;word-spacing:0px;fill:#95b903;fill-opacity:1;stroke:none;stroke-width:0.49161282"
       id="text817"
       transform="matrix(1.6198029,0,0,1.6198029,67.740498,-65.463672)">
      <path
         d="m -105.77932,99.935887 q -0.11523,0.230443 -0.11523,0.396873 0,0.16643 0.096,0.27525 0.096,0.10882 0.24325,0.10882 0.33926,0 0.5377,-0.46088 0.19844,-0.46089 0.19844,-1.229035 0,-0.844959 -0.21124,-1.657913 -0.20484,-0.812954 -0.5377,-1.280242 -0.40968,-0.569708 -0.85136,-0.569708 -0.26886,0 -0.47369,0.172833 -0.20484,0.172833 -0.24965,0.441684 -0.10242,0.576108 -0.10242,2.048387 0,2.298034 0.20484,3.258214 0.23684,1.14582 0.72974,1.6067 0.19203,0.17924 0.19203,0.27526 0,0.17923 -0.32646,0.17923 -0.10242,0 -0.5185,-0.064 -0.58891,-0.0896 -0.96658,-0.0896 -0.36487,0 -0.99219,0.12162 -0.10242,0.0192 -0.17923,0.0192 -0.19204,0 -0.19204,-0.14723 0,-0.0768 0.18564,-0.26245 0.30726,-0.29445 0.34566,-0.74254 0.0384,-0.45449 0.0576,-3.885534 -0.032,-2.38125 -0.064,-2.682106 -0.0256,-0.300857 -0.23684,-0.665726 -0.12803,-0.21124 -0.12803,-0.300857 0,-0.185635 0.30726,-0.166431 l 0.21124,0.0128 q 2.23402,0.128024 2.49007,0.128024 0.5313,0 1.38906,-0.230443 0.13443,-0.03841 0.23045,-0.03841 0.26885,0 0.5377,0.435283 0.69773,1.16502 0.69773,2.43886 0,1.325051 -0.61452,2.66931 -0.31366,0.69773 -0.85776,1.17142 -0.48009,0.42248 -1.0562,0.42248 -0.45448,0 -0.77454,-0.31366 -0.25605,-0.24965 -0.25605,-0.5441 0,-0.23045 0.37127,-0.62732 0.26885,-0.288059 0.47369,-0.288059 0.0832,0 0.20484,0.06401 z"
         style="font-style:normal;font-variant:normal;font-weight:bold;font-stretch:normal;font-family:EckmannD;-inkscape-font-specification:'EckmannD Bold';fill:#95b903;fill-opacity:1;stroke-width:0.49161282"
         id="path822"
         inkscape:connector-curvature="0" />
      <path
         d="m -99.074057,103.32213 q -0.268851,0 -0.601713,0.0576 -0.128025,0.0192 -0.230444,0.0192 -0.153626,0 -0.153626,-0.10882 0,-0.0576 0.147225,-0.32646 0.153629,-0.25605 0.204839,-0.97939 0.05121,-0.72973 0.05121,-2.541276 0,-0.864163 -0.16003,-1.248236 -0.153629,-0.384073 -0.505694,-0.384073 -0.21764,0 -0.42888,0.172833 -0.20484,0.172833 -0.33287,0.460887 -0.20484,0.441684 -0.32646,1.062601 -0.12162,0.620914 -0.12162,1.177824 0,1.42747 0.79375,1.42747 0.21124,0 0.32006,-0.0448 0.0448,-0.0192 0.0576,-0.0192 0.13443,0.006 0.13443,0.32006 0,0.51849 -0.26886,0.81295 -0.26244,0.29446 -0.73613,0.29446 -0.68493,0 -1.10101,-0.4929 -0.28166,-0.33286 -0.44809,-0.84496 -0.16003,-0.51209 -0.16003,-1.0626 0,-1.01139 0.44169,-1.990774 0.44808,-0.979385 1.15221,-1.510685 0.5057,-0.384073 1.10741,-0.384073 0.15363,0 0.620921,0.06401 0.243246,0.03201 0.480091,0.03201 0.230444,0 0.608115,-0.08321 0.128024,-0.02561 0.236845,-0.02561 0.230443,0 0.230443,0.172832 0,0.08962 -0.06401,0.230444 -0.153629,0.326462 -0.204838,0.659325 -0.05121,0.32006 -0.09602,1.337852 -0.03841,1.017789 -0.03841,1.849949 0,1.15862 0.326462,1.54269 0.147228,0.17923 0.147228,0.24965 0,0.17283 -0.224043,0.17283 z"
         style="font-style:normal;font-variant:normal;font-weight:bold;font-stretch:normal;font-family:EckmannD;-inkscape-font-specification:'EckmannD Bold';fill:#95b903;fill-opacity:1;stroke-width:0.49161282"
         id="path824"
         inkscape:connector-curvature="0" />
      <path
         d="m -96.139102,103.34133 q -0.460887,0 -0.755343,0.0768 -0.198437,0.0576 -0.32006,0.0576 -0.134426,0 -0.134426,-0.12803 0,-0.0768 0.121623,-0.23684 0.249648,-0.33287 0.281654,-0.78095 0.07681,-1.0498 0.07681,-2.27243 0,-1.0562 -0.10882,-1.568296 -0.10242,-0.512097 -0.390474,-0.812954 -0.192037,-0.204839 -0.192037,-0.307258 0,-0.147228 0.275252,-0.147228 0.03841,0 0.08962,0.0064 0.518498,0.03841 0.537702,0.03841 0.0192,0 0.42248,-0.08962 0.07041,-0.0128 0.115222,-0.0128 0.153629,0 0.332863,0.441684 0.115221,0.275252 0.153629,0.275252 0.08962,0 0.172832,-0.307258 0.08962,-0.358468 0.307258,-0.358468 0.08322,0 0.364869,0.07041 0.121623,0.0256 0.249647,0.0256 0.121623,0 0.358468,-0.04481 0.236845,-0.04481 0.288055,-0.07041 0.0256,-0.0192 0.03201,-0.0192 0.05121,0 0.05121,0.08322 0,0.05121 -0.192036,0.68493 -0.0256,0.08322 -0.07041,0.352066 -0.04481,0.300857 -0.128024,0.403277 -0.08322,0.102419 -0.288055,0.102419 -0.249647,0 -0.518498,-0.08962 -0.243246,-0.07681 -0.307258,-0.07681 -0.172833,0 -0.224042,0.294455 -0.0128,0.09602 -0.04481,0.704133 -0.02561,0.608116 -0.02561,0.876966 0,1.55549 0.07041,1.93316 0.07681,0.37127 0.428881,0.62092 0.204838,0.14083 0.204838,0.25605 0,0.12802 -0.192036,0.12802 -0.09602,0 -0.224042,-0.0192 -0.531301,-0.096 -0.819355,-0.0896 z"
         style="font-style:normal;font-variant:normal;font-weight:bold;font-stretch:normal;font-family:EckmannD;-inkscape-font-specification:'EckmannD Bold';fill:#95b903;fill-opacity:1;stroke-width:0.49161282"
         id="path826"
         inkscape:connector-curvature="0" />
      <path
         d="m -90.854903,96.946522 q 0.0128,0.192036 0.0128,0.26245 0,0.5313 -0.05121,0.710534 -0.05121,0.172833 -0.21124,0.204839 -0.134425,0.0256 -0.550504,0.0256 -0.06401,0.716935 -0.06401,1.837147 0,2.470858 0.467289,3.021378 0.16003,0.17923 0.16003,0.25605 0,0.14082 -0.217641,0.14082 -0.06401,0 -0.358468,-0.0384 -0.16003,-0.0256 -0.345665,-0.0256 -0.518498,0 -0.972984,0.096 -0.153629,0.032 -0.249647,0.032 -0.166432,0 -0.166432,-0.12802 0,-0.0768 0.121623,-0.21124 0.179234,-0.20484 0.236845,-0.38407 0.05761,-0.18564 0.08962,-0.66573 0.07041,-1.00499 0.07041,-2.547684 0,-0.992188 -0.115222,-1.408266 -0.03201,-0.115222 -0.07041,-0.16003 -0.03201,-0.05121 -0.204839,-0.230444 -0.07681,-0.07681 -0.07681,-0.16003 0,-0.121623 0.294456,-0.307258 0.37127,-0.230444 0.74254,-0.800152 0.377671,-0.576108 0.684929,-1.382661 0.115222,-0.307258 0.256049,-0.307258 0.147228,0 0.147228,0.179234 0,0.07041 -0.03201,0.16003 -0.147227,0.364869 -0.256048,0.851361 -0.10882,0.480091 -0.10882,0.736139 0,0.441684 0.390473,0.441684 0.204839,0 0.377672,-0.198438 z"
         style="font-style:normal;font-variant:normal;font-weight:bold;font-stretch:normal;font-family:EckmannD;-inkscape-font-specification:'EckmannD Bold';fill:#95b903;fill-opacity:1;stroke-width:0.49161282"
         id="path828"
         inkscape:connector-curvature="0" />
      <path
         d="m -90.077157,97.208972 q 0.05761,0 0.140826,0.0064 0.454486,0.04481 0.787349,0.04481 0.403276,0 0.595313,-0.03201 0.128024,-0.0256 0.204838,-0.0256 0.166432,0 0.166432,0.153629 0,0.05761 -0.08322,0.281653 -0.243246,0.684929 -0.243246,3.303026 0,1.54909 0.275252,2.08679 0.09602,0.18564 0.09602,0.24965 0,0.16003 -0.185635,0.16003 -0.08962,0 -0.21124,-0.0256 -0.294455,-0.0576 -0.588911,-0.0576 -0.352067,0 -0.95378,0.0832 -0.05121,0.006 -0.108821,0.006 -0.204839,0 -0.204839,-0.14083 0,-0.0512 0.160031,-0.24964 0.262449,-0.31366 0.37127,-1.0242 0.10882,-0.71053 0.10882,-2.054785 0,-1.837147 -0.396875,-2.304435 -0.166431,-0.192036 -0.166431,-0.281653 0,-0.179234 0.236845,-0.179234 z m 0.288054,-2.22122 q 0.0192,0 0.243246,0.04481 0.249647,0.04481 0.659325,0.04481 0.198437,0 0.435282,-0.03841 0.03841,-0.0064 0.07041,-0.0064 0.07041,0 0.07041,0.217641 0,0.524899 -0.428882,1.00499 -0.275252,0.313659 -0.460887,0.313659 -0.121623,0 -0.307258,-0.21124 -0.396875,-0.454486 -0.396875,-1.030595 0,-0.332863 0.115222,-0.339264 z"
         style="font-style:normal;font-variant:normal;font-weight:bold;font-stretch:normal;font-family:EckmannD;-inkscape-font-specification:'EckmannD Bold';fill:#95b903;fill-opacity:1;stroke-width:0.49161282"
         id="path830"
         inkscape:connector-curvature="0" />
      <path
         d="m -85.058608,97.170565 q 0.08322,0 0.512097,0.07681 0.230444,0.03841 0.505696,0.03841 0.153629,0 0.403276,-0.06401 0.153629,-0.03841 0.21124,-0.03841 0.128024,0 0.128024,0.128024 0,0.134426 -0.217641,0.550504 -0.21124,0.416079 -0.364869,0.588911 -0.185635,0.204839 -0.595313,0.204839 -0.307258,0 -0.992187,-0.249647 -0.198438,-0.07041 -0.288054,-0.07041 -0.236845,0 -0.416079,0.42248 -0.172833,0.416078 -0.172833,0.985786 0,1.401868 1.00499,2.073988 0.384073,0.25605 0.902571,0.25605 0.204838,0 0.467288,-0.064 0.268851,-0.064 0.37127,-0.14083 0.06401,-0.0448 0.08322,-0.0448 0.09602,0 0.09602,0.19204 0,0.44168 -0.345665,0.85136 -0.512097,0.60812 -1.331452,0.60812 -0.896169,0 -1.549093,-0.70414 -0.704133,-0.76174 -0.704133,-2.00998 0,-0.5313 0.192037,-1.145812 0.198437,-0.614517 0.524899,-1.120212 0.332863,-0.512097 0.806552,-0.915373 0.480091,-0.403276 0.768145,-0.409677 z"
         style="font-style:normal;font-variant:normal;font-weight:bold;font-stretch:normal;font-family:EckmannD;-inkscape-font-specification:'EckmannD Bold';fill:#95b903;fill-opacity:1;stroke-width:0.49161282"
         id="path832"
         inkscape:connector-curvature="0" />
      <path
         d="m -80.180887,103.07248 q -0.358468,0 -0.806553,0.33926 -0.09602,0.0704 -0.198437,0.0704 -0.26245,0 -0.819355,-0.38408 -0.68493,-0.47368 -0.68493,-0.70413 0,-0.0512 0.115222,-0.33286 0.26245,-0.63372 0.26245,-2.707713 0,-1.197026 -0.332863,-1.709123 -0.185635,-0.288054 -0.185635,-0.345665 0,-0.108821 0.134425,-0.108821 0.10242,0 0.320061,0.03841 0.147228,0.02561 0.32006,0.02561 0.460887,0 0.646522,-0.05761 0.08322,-0.0256 0.115222,-0.0256 0.320061,0 0.320061,0.966582 0,0.403276 -0.153629,2.18281 -0.07041,0.79375 -0.07041,1.08821 0,0.48009 0.288055,0.72973 0.275252,0.24325 0.499294,0.24325 0.140827,0 0.268851,-0.0832 0.134425,-0.0896 0.192036,-0.22404 0.147228,-0.33286 0.147228,-1.67071 0,-2.189215 -0.313659,-2.790929 -0.10242,-0.204839 -0.10242,-0.268851 0,-0.153629 0.204839,-0.153629 0.07681,0 0.179234,0.0128 0.42248,0.05761 0.806552,0.05761 0.224043,0 0.37127,-0.0256 0.172833,-0.0256 0.256049,-0.0256 0.16003,0 0.16003,0.140826 0,0.07041 -0.102419,0.332863 -0.26245,0.68493 -0.26245,2.291633 0,1.030597 0.134426,1.849947 0.134425,0.81296 0.358467,1.13302 0.147228,0.21764 0.147228,0.29445 0,0.24965 -0.499294,0.24965 -0.531301,0 -1.062601,-0.23684 -0.435282,-0.18564 -0.652923,-0.19204 z"
         style="font-style:normal;font-variant:normal;font-weight:bold;font-stretch:normal;font-family:EckmannD;-inkscape-font-specification:'EckmannD Bold';fill:#95b903;fill-opacity:1;stroke-width:0.49161282"
         id="path834"
         inkscape:connector-curvature="0" />
      <path
         d="m -76.346562,103.33493 q -0.384072,0 -0.652923,0.032 -0.147228,0.0192 -0.230443,0.0192 -0.217642,0 -0.217642,-0.12803 0,-0.0832 0.108821,-0.24324 0.185635,-0.28806 0.224042,-0.72974 0.03841,-0.44808 0.05121,-2.573285 0.0064,-0.780948 0.0256,-1.68992 0.0064,-0.537701 0.0064,-0.640121 0,-0.627318 -0.04481,-0.844959 -0.04481,-0.217641 -0.249648,-0.569708 -0.03841,-0.06401 -0.03841,-0.128024 0,-0.166432 0.377672,-0.256048 0.499294,-0.15363 1.190624,-0.755343 0.147228,-0.128024 0.236845,-0.128024 0.115222,0 0.115222,0.140826 0,0.06401 -0.07041,0.21124 -0.256049,0.556905 -0.288055,1.280242 -0.06401,1.241835 -0.06401,3.12379 0,1.792344 0.185635,2.739714 0.08962,0.46089 0.31366,0.79375 0.147227,0.21124 0.147227,0.30086 0,0.12803 -0.16003,0.12803 -0.08962,0 -0.224042,-0.0256 -0.300857,-0.0576 -0.742541,-0.0576 z"
         style="font-style:normal;font-variant:normal;font-weight:bold;font-stretch:normal;font-family:EckmannD;-inkscape-font-specification:'EckmannD Bold';fill:#95b903;fill-opacity:1;stroke-width:0.49161282"
         id="path836"
         inkscape:connector-curvature="0" />
      <path
         d="m -70.943942,103.32213 q -0.268851,0 -0.601713,0.0576 -0.128025,0.0192 -0.230444,0.0192 -0.153629,0 -0.153629,-0.10882 0,-0.0576 0.147228,-0.32646 0.153629,-0.25605 0.204839,-0.97939 0.05121,-0.72973 0.05121,-2.541276 0,-0.864163 -0.16003,-1.248236 -0.153629,-0.384073 -0.505696,-0.384073 -0.217641,0 -0.428881,0.172833 -0.204838,0.172833 -0.332863,0.460887 -0.204838,0.441684 -0.326461,1.062601 -0.121623,0.620914 -0.121623,1.177824 0,1.42747 0.79375,1.42747 0.21124,0 0.32006,-0.0448 0.04481,-0.0192 0.05761,-0.0192 0.134426,0.006 0.134426,0.32006 0,0.51849 -0.268851,0.81295 -0.26245,0.29446 -0.736139,0.29446 -0.68493,0 -1.101008,-0.4929 -0.281654,-0.33286 -0.448085,-0.84496 -0.16003,-0.51209 -0.16003,-1.0626 0,-1.01139 0.441683,-1.990774 0.448085,-0.979385 1.152218,-1.510685 0.505695,-0.384073 1.107409,-0.384073 0.153629,0 0.620917,0.06401 0.243246,0.03201 0.480091,0.03201 0.230444,0 0.608115,-0.08321 0.128024,-0.02561 0.236845,-0.02561 0.230443,0 0.230443,0.172832 0,0.08962 -0.06401,0.230444 -0.153629,0.326462 -0.204838,0.659325 -0.05121,0.32006 -0.09602,1.337852 -0.03841,1.017789 -0.03841,1.849949 0,1.15862 0.326462,1.54269 0.147228,0.17923 0.147228,0.24965 0,0.17283 -0.224043,0.17283 z"
         style="font-style:normal;font-variant:normal;font-weight:bold;font-stretch:normal;font-family:EckmannD;-inkscape-font-specification:'EckmannD Bold';fill:#95b903;fill-opacity:1;stroke-width:0.49161282"
         id="path838"
         inkscape:connector-curvature="0" />
      <path
         d="m -67.999385,103.34133 q -0.460887,0 -0.755343,0.0768 -0.198437,0.0576 -0.32006,0.0576 -0.134426,0 -0.134426,-0.12803 0,-0.0768 0.121623,-0.23684 0.249648,-0.33287 0.281654,-0.78095 0.07681,-1.0498 0.07681,-2.27243 0,-1.0562 -0.10882,-1.568296 -0.10242,-0.512097 -0.390474,-0.812954 -0.192036,-0.204839 -0.192036,-0.307258 0,-0.147228 0.275252,-0.147228 0.03841,0 0.08962,0.0064 0.518498,0.03841 0.537701,0.03841 0.0192,0 0.42248,-0.08962 0.07041,-0.0128 0.115222,-0.0128 0.153629,0 0.332863,0.441684 0.115221,0.275252 0.153629,0.275252 0.08962,0 0.172832,-0.307258 0.08962,-0.358468 0.307258,-0.358468 0.08322,0 0.364869,0.07041 0.121623,0.0256 0.249648,0.0256 0.121623,0 0.358467,-0.04481 0.236845,-0.04481 0.288055,-0.07041 0.0256,-0.0192 0.03201,-0.0192 0.05121,0 0.05121,0.08322 0,0.05121 -0.192036,0.68493 -0.0256,0.08322 -0.07041,0.352066 -0.04481,0.300857 -0.128024,0.403277 -0.08322,0.102419 -0.288055,0.102419 -0.249647,0 -0.518498,-0.08962 -0.243246,-0.07681 -0.307258,-0.07681 -0.172833,0 -0.224042,0.294455 -0.0128,0.09602 -0.04481,0.704133 -0.0256,0.608116 -0.0256,0.876966 0,1.55549 0.07041,1.93316 0.07681,0.37127 0.428881,0.62092 0.204839,0.14083 0.204839,0.25605 0,0.12802 -0.192037,0.12802 -0.09602,0 -0.224042,-0.0192 -0.5313,-0.096 -0.819355,-0.0896 z"
         style="font-style:normal;font-variant:normal;font-weight:bold;font-stretch:normal;font-family:EckmannD;-inkscape-font-specification:'EckmannD Bold';fill:#95b903;fill-opacity:1;stroke-width:0.49161282"
         id="path840"
         inkscape:connector-curvature="0" />
      <path
         d="m -65.150845,102.01628 q 0.09602,-0.006 0.204838,0.21764 0.115222,0.23685 0.352067,0.37767 0.236845,0.14083 0.512097,0.14083 0.268851,0 0.486492,-0.16003 0.294455,-0.21764 0.294455,-0.56971 0,-0.28805 -0.179234,-0.5121 -0.179233,-0.22404 -0.678528,-0.5761 -0.640121,-0.44169 -0.940978,-0.947383 -0.294455,-0.512097 -0.294455,-1.152218 0,-0.646522 0.307258,-1.120212 0.358468,-0.563306 0.985786,-0.563306 0.352067,0 0.915373,0.05761 0.486492,0.04481 0.876966,0.04481 0.416078,0 0.544103,-0.06401 0.04481,-0.0192 0.05761,-0.0192 0.09602,0 0.09602,0.185635 0,0.166431 -0.275252,0.601713 -0.08322,0.147228 -0.217641,0.544103 -0.05761,0.185635 -0.236845,0.185635 -0.224043,0 -0.972984,-0.37127 -0.68493,-0.339264 -0.876966,-0.339264 -0.198437,0 -0.332863,0.147228 -0.128024,0.147228 -0.128024,0.37127 0,0.332863 0.281653,0.608115 0.288055,0.268851 1.049799,0.659324 1.184223,0.61452 1.433871,0.90257 0.21124,0.24325 0.21124,0.74895 0,0.65292 -0.352067,1.18422 -0.588911,0.88337 -1.683518,0.88337 -0.652923,0 -1.145817,-0.35207 -0.486492,-0.35207 -0.486492,-0.82576 0,-0.28165 0.192037,-0.28805 z"
         style="font-style:normal;font-variant:normal;font-weight:bold;font-stretch:normal;font-family:EckmannD;-inkscape-font-specification:'EckmannD Bold';fill:#95b903;fill-opacity:1;stroke-width:0.49161282"
         id="path842"
         inkscape:connector-curvature="0" />
      <path
         d="m -59.626601,101.41457 q 0.192036,0 0.192036,0.18563 0,0.0768 -0.05121,0.22404 -0.04481,0.12803 -0.04481,0.21765 0,0.064 0.05121,0.31365 0.05761,0.28806 0.05761,0.39048 0,0.11522 -0.10242,0.19844 -0.102419,0.0768 -0.576109,0.33286 -0.179234,0.10882 -0.358467,0.20484 -0.153629,0.0896 -0.26245,0.0896 -0.179234,0 -0.166431,-0.29445 l 0.0064,-0.15363 q 0.0128,-0.21764 -0.08322,-0.68493 -0.0064,-0.0192 -0.0064,-0.064 0,-0.24325 0.37127,-0.44169 0.281653,-0.15362 0.614516,-0.36486 0.249647,-0.15363 0.358468,-0.15363 z"
         style="font-style:normal;font-variant:normal;font-weight:bold;font-stretch:normal;font-family:EckmannD;-inkscape-font-specification:'EckmannD Bold';fill:#95b903;fill-opacity:1;stroke-width:0.49161282"
         id="path844"
         inkscape:connector-curvature="0" />
      <path
         d="m -54.812894,103.39254 q -0.134425,0 -0.460887,0.0384 -0.0256,0 -0.05121,0 -0.172832,0 -0.256048,-0.30086 -0.08322,-0.30086 -0.08322,-0.93458 0,-0.65292 0.115222,-2.09319 0.05761,-0.716937 0.05761,-1.184225 0,-0.435283 -0.16003,-0.678528 -0.160031,-0.249648 -0.448085,-0.249648 -0.5313,0 -0.691331,0.659325 -0.121623,0.492893 -0.121623,2.150806 0,0.90257 0.07041,1.35706 0.07681,0.45448 0.281653,0.81935 0.121623,0.22404 0.121623,0.31366 0,0.16643 -0.217641,0.16643 -0.06401,0 -0.192037,-0.0256 -0.364869,-0.0832 -0.857762,-0.0832 -0.179234,0 -0.300857,0.0192 -0.307258,0.0384 -0.377671,0.0384 -0.204839,0 -0.204839,-0.16003 0,-0.0768 0.08322,-0.23684 0.409678,-0.84496 0.409678,-2.56049 0,-1.337849 -0.15363,-2.150803 -0.06401,-0.358467 -0.26885,-0.800151 -0.03201,-0.06401 -0.03201,-0.128024 0,-0.204839 0.499294,-0.204839 0.26245,0 1.101008,0.10242 0.47369,0.06401 0.736139,0.06401 0.217641,0 0.678528,-0.05761 0.563307,-0.07041 0.851361,-0.07041 0.710535,0 0.710535,0.262449 0,0.07041 -0.07681,0.307258 -0.134425,0.42248 -0.236845,1.293045 -0.102419,0.870564 -0.102419,1.581095 0,0.83216 0.153629,1.52989 0.07041,0.31366 0.134425,0.46729 0.07041,0.15363 0.332863,0.56331 0.03201,0.0512 0.03201,0.12802 0,0.14723 -0.217641,0.14723 -0.05761,0 -0.390474,-0.0512 -0.230443,-0.0384 -0.467288,-0.0384 z"
         style="font-style:normal;font-variant:normal;font-weight:bold;font-stretch:normal;font-family:EckmannD;-inkscape-font-specification:'EckmannD Bold';fill:#95b903;fill-opacity:1;stroke-width:0.49161282"
         id="path846"
         inkscape:connector-curvature="0" />
      <path
         d="m -52.508459,103.87263 q 0.05761,-0.006 0.377671,0.0384 0.07041,0.0128 0.140827,0.0128 0.05121,0 0.102419,-0.0128 0.16003,-0.032 0.192036,-0.032 0.07682,0 0.140827,0.0768 0.07041,0.0768 0.07041,0.16003 0,0.12162 -0.08962,0.28165 -0.115221,0.19844 -0.115221,0.30086 0,0.16003 0.153629,0.25605 0.16003,0.096 0.422479,0.096 0.537702,0 1.011392,-0.21764 0.576108,-0.26245 0.576108,-0.72974 0,-0.21124 -0.217641,-0.5505 -0.16003,-0.24325 -0.21124,-0.43528 -0.04481,-0.19844 -0.04481,-0.59531 0,-0.5057 0.0192,-1.85636 0.0128,-0.736134 0.0128,-1.017787 0,-0.972984 -0.07681,-1.280242 -0.05121,-0.198438 -0.217641,-0.320061 -0.166431,-0.128024 -0.384072,-0.128024 -0.31366,0 -0.569708,0.281653 -0.262449,0.288055 -0.428881,0.960182 -0.16003,0.672127 -0.16003,1.465879 0,0.95378 0.384072,1.35705 0.236845,0.24325 0.512097,0.24325 0.230444,0 0.37127,-0.12802 0.07041,-0.0576 0.08962,-0.0576 0.05121,0 0.115222,0.19203 0.07041,0.19204 0.07041,0.33927 0,0.41607 -0.352066,0.71053 -0.352067,0.29446 -0.84496,0.29446 -0.940978,0 -1.421068,-0.86417 -0.320061,-0.5633 -0.320061,-1.51068 0,-1.5683 0.780948,-2.829338 0.729738,-1.190625 1.817943,-1.190625 0.108821,0 0.588912,0.05761 0.332862,0.03841 0.576108,0.03841 0.172833,0 0.505696,-0.07041 0.172833,-0.03201 0.32006,-0.03201 0.26245,0 0.26245,0.236844 0,0.147228 -0.08962,0.377672 -0.134425,0.332863 -0.166431,0.524899 -0.03201,0.192036 -0.06401,0.819355 -0.05761,1.145813 -0.05761,2.387653 0,0.28165 0.03841,0.48009 0.04481,0.19203 0.192036,0.65292 0.21124,0.64012 0.21124,1.00499 0,0.94738 -0.768145,1.45308 -0.761744,0.50569 -2.195615,0.50569 -0.947379,0 -1.485081,-0.36487 -0.441683,-0.30085 -0.441683,-0.71693 0,-0.26245 0.192036,-0.45449 0.192037,-0.19204 0.47369,-0.21124 z"
         style="font-style:normal;font-variant:normal;font-weight:bold;font-stretch:normal;font-family:EckmannD;-inkscape-font-specification:'EckmannD Bold';fill:#95b903;fill-opacity:1;stroke-width:0.49161282"
         id="path848"
         inkscape:connector-curvature="0" />
    </g>
  </g>
</svg>
