<?xml version="1.0" encoding="UTF-8" standalone="no"?>
<svg
   xmlns:x="adobe:ns:meta/"
   xmlns:dc="http://purl.org/dc/elements/1.1/"
   xmlns:cc="http://creativecommons.org/ns#"
   xmlns:rdf="http://www.w3.org/1999/02/22-rdf-syntax-ns#"
   xmlns:svg="http://www.w3.org/2000/svg"
   xmlns="http://www.w3.org/2000/svg"
   xmlns:sodipodi="http://sodipodi.sourceforge.net/DTD/sodipodi-0.dtd"
   xmlns:inkscape="http://www.inkscape.org/namespaces/inkscape"
   width="659.1507"
   height="383"
   viewBox="0 0 659.1507 383"
   version="1.1"
   id="svg14"
   sodipodi:docname="particulars2.svg"
   inkscape:version="0.92.4 (5da689c313, 2019-01-14)">
  <sodipodi:namedview
     pagecolor="#ffffff"
     bordercolor="#666666"
     borderopacity="1"
     objecttolerance="10"
     gridtolerance="10"
     guidetolerance="10"
     inkscape:pageopacity="0"
     inkscape:pageshadow="2"
     inkscape:window-width="1600"
     inkscape:window-height="838"
     id="namedview16"
     showgrid="false"
     inkscape:zoom="0.59171729"
     inkscape:cx="498.28355"
     inkscape:cy="60.885138"
     inkscape:window-x="-8"
     inkscape:window-y="-8"
     inkscape:window-maximized="1"
     inkscape:current-layer="svg14"
     showguides="true"
     inkscape:guide-bbox="true" />
  <metadata
     id="metadata2">
<?xpacket begin="$" id="W5M0MpCehiHzreSzNTczkc9d"?>    <x:xmpmeta
       x:xmptk="Adobe XMP Core 5.6-c142 79.160924, 2017/07/13-01:06:39        ">
      <metadata>
        <rdf:RDF>
          <rdf:Description
             rdf:about="" />
          <cc:Work
             rdf:about="">
            <dc:format>image/svg+xml</dc:format>
            <dc:type
               rdf:resource="http://purl.org/dc/dcmitype/StillImage" />
            <dc:title></dc:title>
          </cc:Work>
        </rdf:RDF>
      </metadata>
    </x:xmpmeta>
<?xpacket end="w"?>  </metadata>
  <defs
     id="defs6">
    <style
       id="style4">
      .cls-1 {
        font-size: 59.074px;
        text-anchor: end;
        fill: #036d6d;
        font-family: Caviar Dreams;
      }

      .cls-2 {
        fill: #eb5c31;
      }
    </style>
    <style
       id="style4-5">
      .cls-1 {
        font-size: 59.074px;
        text-anchor: end;
        fill: #036d6d;
        font-family: Caviar Dreams;
      }

      .cls-2 {
        fill: #eb5c31;
      }
    </style>
  </defs>
  <g
     id="g1047">
    <g
       id="g1020">
      <g
         aria-label="Particulars.ng"
         transform="scale(1.0009301,0.99907077)"
         style="font-size:95.31585693px;font-family:'Caviar Dreams';text-anchor:end;fill:#036d6d;stroke-width:1.61349928"
         id="Particulars.ng">
        <path
           d="m 32.888213,292.21508 v 26.10947 h 11.821401 q 6.562273,0 10.145926,-3.39749 3.583653,-3.39749 3.583653,-9.68052 0,-6.23648 -3.583653,-9.63397 -3.583653,-3.39749 -10.145926,-3.39749 z m -9.401271,-7.7258 h 21.222672 q 11.681777,0 17.639018,5.30567 6.003782,5.25913 6.003782,15.45159 0,10.28555 -6.003782,15.54468 -5.957241,5.25913 -17.639018,5.25913 H 32.888213 v 27.92456 h -9.401271 z"
           style="stroke-width:1.61349928"
           id="path821"
           inkscape:connector-curvature="0" />
        <path
           d="m 100.0468,327.77236 q -10.378631,0 -14.381153,2.37359 -4.002521,2.37359 -4.002521,8.09812 0,4.56102 2.978621,7.26039 3.025161,2.65284 8.191206,2.65284 7.120765,0 11.402527,-5.02643 4.32831,-5.07296 4.32831,-13.45033 v -1.90818 z m 17.08053,-3.53711 v 29.73966 h -8.56354 v -7.91196 q -2.93208,4.74718 -7.30693,7.02769 -4.374845,2.23396 -10.704413,2.23396 -8.005043,0 -12.752219,-4.46793 -4.700636,-4.51447 -4.700636,-12.0541 0,-8.79624 5.864159,-13.26417 5.9107,-4.46793 17.592478,-4.46793 h 12.007561 v -0.83774 q 0,-5.9107 -3.90944,-9.12203 -3.8629,-3.25786 -10.890578,-3.25786 -4.467931,0 -8.703157,1.07044 -4.235226,1.07044 -8.144665,3.21132 v -7.91196 q 4.700635,-1.81509 9.122025,-2.69937 4.42139,-0.93082 8.610075,-0.93082 11.30945,0 16.89436,5.86416 5.58492,5.86416 5.58492,17.77864 z"
           style="stroke-width:1.61349928"
           id="path823"
           inkscape:connector-curvature="0" />
        <path
           d="m 165.01796,309.8541 q -1.44277,-0.83774 -3.16478,-1.21007 -1.67548,-0.41887 -3.72328,-0.41887 -7.26039,0 -11.16983,4.74718 -3.86289,4.70064 -3.86289,13.54342 v 27.45915 h -8.61008 v -52.12585 h 8.61008 v 8.09812 q 2.69937,-4.74718 7.02768,-7.02768 4.32831,-2.32705 10.51825,-2.32705 0.88428,0 1.95472,0.13962 1.07044,0.0931 2.37359,0.32579 z"
           style="stroke-width:1.61349928"
           id="path825"
           inkscape:connector-curvature="0" />
        <path
           d="m 182.5639,287.04903 v 14.80003 h 17.63902 v 6.65535 H 182.5639 v 28.2969 q 0,6.37611 1.72202,8.1912 1.76855,1.8151 7.12076,1.8151 h 8.79624 v 7.1673 h -8.79624 q -9.91322,0 -13.68304,-3.67673 -3.76981,-3.72328 -3.76981,-13.49687 v -28.2969 h -6.28303 v -6.65535 h 6.28303 v -14.80003 z"
           style="stroke-width:1.61349928"
           id="path827"
           inkscape:connector-curvature="0" />
        <path
           d="m 211.51237,301.84906 h 8.56353 v 52.12585 h -8.56353 z m 0,-20.29186 h 8.56353 v 10.84404 h -8.56353 z"
           style="stroke-width:1.61349928"
           id="path829"
           inkscape:connector-curvature="0" />
        <path
           d="m 275.45962,303.85032 v 8.00504 q -3.63019,-2.00126 -7.30692,-2.97862 -3.6302,-1.0239 -7.35347,-1.0239 -8.33083,0 -12.93839,5.30567 -4.60755,5.25912 -4.60755,14.80002 0,9.54089 4.60755,14.84656 4.60756,5.25912 12.93839,5.25912 3.72327,0 7.35347,-0.97736 3.67673,-1.0239 7.30692,-3.02516 v 7.91196 q -3.58365,1.67548 -7.44655,2.51321 -3.81635,0.83774 -8.14466,0.83774 -11.77486,0 -18.70946,-7.40001 -6.9346,-7.40001 -6.9346,-19.96606 0,-12.75222 6.98114,-20.05915 7.02768,-7.30693 19.22141,-7.30693 3.95598,0 7.7258,0.83774 3.76981,0.79119 7.30692,2.42013 z"
           style="stroke-width:1.61349928"
           id="path831"
           inkscape:connector-curvature="0" />
        <path
           d="m 289.56154,333.40382 v -31.55476 h 8.56354 v 31.22897 q 0,7.40001 2.88554,11.12329 2.88554,3.67673 8.65661,3.67673 6.9346,0 10.93712,-4.42139 4.04907,-4.42139 4.04907,-12.0541 v -29.5535 h 8.56353 v 52.12585 h -8.56353 v -8.00504 q -3.11825,4.74718 -7.26039,7.07423 -4.0956,2.2805 -9.54089,2.2805 -8.98241,0 -13.6365,-5.58491 -4.6541,-5.58492 -4.6541,-16.33587 z M 311.11,300.59245 Z"
           style="stroke-width:1.61349928"
           id="path833"
           inkscape:connector-curvature="0" />
        <path
           d="m 350.94903,281.5572 h 8.56353 v 72.41771 h -8.56353 z"
           style="stroke-width:1.61349928"
           id="path835"
           inkscape:connector-curvature="0" />
        <path
           d="m 401.07364,327.77236 q -10.37863,0 -14.38115,2.37359 -4.00252,2.37359 -4.00252,8.09812 0,4.56102 2.97862,7.26039 3.02516,2.65284 8.1912,2.65284 7.12077,0 11.40254,-5.02643 4.3283,-5.07296 4.3283,-13.45033 v -1.90818 z m 17.08053,-3.53711 v 29.73966 h -8.56354 v -7.91196 q -2.93208,4.74718 -7.30693,7.02769 -4.37484,2.23396 -10.70441,2.23396 -8.00505,0 -12.75222,-4.46793 -4.70064,-4.51447 -4.70064,-12.0541 0,-8.79624 5.86416,-13.26417 5.9107,-4.46793 17.59248,-4.46793 h 12.00756 v -0.83774 q 0,-5.9107 -3.90944,-9.12203 -3.86289,-3.25786 -10.89058,-3.25786 -4.46793,0 -8.70315,1.07044 -4.23523,1.07044 -8.14467,3.21132 v -7.91196 q 4.70064,-1.81509 9.12203,-2.69937 4.42139,-0.93082 8.61007,-0.93082 11.30945,0 16.89436,5.86416 5.58492,5.86416 5.58492,17.77864 z"
           style="stroke-width:1.61349928"
           id="path837"
           inkscape:connector-curvature="0" />
        <path
           d="m 466.04479,309.8541 q -1.44277,-0.83774 -3.16479,-1.21007 -1.67547,-0.41887 -3.72327,-0.41887 -7.26039,0 -11.16983,4.74718 -3.8629,4.70064 -3.8629,13.54342 v 27.45915 h -8.61007 v -52.12585 h 8.61007 v 8.09812 q 2.69938,-4.74718 7.02768,-7.02768 4.32831,-2.32705 10.51826,-2.32705 0.88428,0 1.95472,0.13962 1.07044,0.0931 2.37359,0.32579 z"
           style="stroke-width:1.61349928"
           id="path839"
           inkscape:connector-curvature="0" />
        <path
           d="m 508.35053,303.38491 v 8.09812 q -3.6302,-1.86164 -7.53964,-2.79246 -3.90944,-0.93081 -8.09812,-0.93081 -6.37611,0 -9.58744,1.95472 -3.16478,1.95471 -3.16478,5.86415 0,2.97862 2.28051,4.70064 2.2805,1.67547 9.16856,3.21133 l 2.93208,0.65157 q 9.12203,1.95472 12.93838,5.53837 3.8629,3.53711 3.8629,9.91322 0,7.26039 -5.77107,11.49562 -5.72454,4.23522 -15.77738,4.23522 -4.18869,0 -8.7497,-0.83774 -4.51447,-0.79119 -9.5409,-2.42012 v -8.84278 q 4.74718,2.46667 9.35473,3.72327 4.60756,1.21007 9.12203,1.21007 6.05032,0 9.30819,-2.04781 3.25786,-2.09434 3.25786,-5.86415 0,-3.49058 -2.37358,-5.35221 -2.32705,-1.86164 -10.28555,-3.58366 l -2.97862,-0.69811 q -7.95851,-1.67547 -11.49562,-5.1195 -3.53711,-3.49058 -3.53711,-9.5409 0,-7.35347 5.21259,-11.35599 5.21258,-4.00252 14.80002,-4.00252 4.74717,0 8.93586,0.69811 4.18868,0.69812 7.7258,2.09435 z"
           style="stroke-width:1.61349928"
           id="path841"
           inkscape:connector-curvature="0" />
        <path
           d="m 526.03607,342.15351 h 9.82014 v 11.8214 h -9.82014 z"
           style="stroke-width:1.61349928"
           id="path843"
           inkscape:connector-curvature="0" />
        <path
           d="m 598.50033,322.51324 v 31.46167 h -8.56354 v -31.18243 q 0,-7.40001 -2.88554,-11.07674 -2.88553,-3.67674 -8.65661,-3.67674 -6.9346,0 -10.93712,4.42139 -4.00253,4.42139 -4.00253,12.05411 v 29.46041 h -8.61007 v -52.12585 h 8.61007 v 8.09812 q 3.07171,-4.70064 7.21385,-7.02768 4.18869,-2.32705 9.63398,-2.32705 8.9824,0 13.58995,5.58491 4.60756,5.53838 4.60756,16.33588 z"
           style="fill:#eb5c31;stroke-width:1.61349928"
           id="path845"
           inkscape:connector-curvature="0" />
        <path
           d="m 649.97462,327.30695 q 0,-9.30819 -3.8629,-14.42769 -3.81636,-5.1195 -10.75096,-5.1195 -6.88806,0 -10.75096,5.1195 -3.81636,5.1195 -3.81636,14.42769 0,9.26165 3.81636,14.38115 3.8629,5.11951 10.75096,5.11951 6.9346,0 10.75096,-5.11951 3.8629,-5.1195 3.8629,-14.38115 z m 8.56353,20.19877 q 0,13.31071 -5.9107,19.77991 -5.9107,6.51573 -18.10443,6.51573 -4.51447,0 -8.51699,-0.69812 -4.00252,-0.65157 -7.77234,-2.0478 v -8.33083 q 3.76982,2.0478 7.44655,3.02516 3.67674,0.97736 7.4931,0.97736 8.42391,0 12.61259,-4.42139 4.18869,-4.37485 4.18869,-13.26417 v -4.23522 q -2.65284,4.60755 -6.79498,6.88806 -4.14214,2.2805 -9.91322,2.2805 -9.58744,0 -15.4516,-7.30692 -5.86415,-7.30693 -5.86415,-19.36104 0,-12.10064 5.86415,-19.40757 5.86416,-7.30693 15.4516,-7.30693 5.77108,0 9.91322,2.28051 4.14214,2.2805 6.79498,6.88806 v -7.91196 h 8.56353 z"
           style="fill:#eb5c31;stroke-width:1.61349928"
           id="path847"
           inkscape:connector-curvature="0" />
      </g>
      <path
         style="opacity:1;fill:#036d6d;fill-opacity:1;fill-rule:nonzero;stroke:none;stroke-width:0.63873875;stroke-linecap:round;stroke-linejoin:miter;stroke-miterlimit:4;stroke-dasharray:none;stroke-opacity:1;paint-order:markers fill stroke"
         d="M 11.686414,376.03812 C 9.3860131,372.52726 6.3071549,365.0073 5.3578759,360.58096 0.51379917,337.99381 -0.93032581,295.55527 2.5946441,279.3778 c 2.3126087,-10.61346 3.6148963,-14.41858 6.2739944,-18.33179 2.1530015,-3.16843 7.9130295,-7.95962 9.6170105,-7.99941 1.640304,-0.0383 1.807802,-0.81692 3.199698,-14.87361 0.732901,-7.40153 1.520249,-14.06712 1.749662,-14.8124 0.229413,-0.74528 1.534099,-7.58976 2.899302,-15.20996 6.755102,-37.7052 16.329693,-57.70448 30.87625,-64.49391 9.088351,-4.24188 10.031422,-4.62584 18.57358,-7.56208 33.317619,-11.45241 74.618149,-20.18695 142.382179,-30.11201 3.02087,-0.44245 13.85797,-1.57532 24.08245,-2.51749 10.22448,-0.94217 21.92826,-2.06736 26.00841,-2.50044 18.1328,-1.92466 53.27354,-2.801707 87.22134,-2.176882 19.05471,0.350711 38.06716,0.879633 42.2499,1.175382 l 7.60499,0.53773 0.23334,12.90256 0.23335,12.90256 -9.52833,-0.65009 c -14.5585,-0.99328 -109.34376,-0.66764 -121.06807,0.41594 -5.57699,0.51543 -17.55484,1.55044 -26.61744,2.30003 -15.87815,1.3133 -30.60976,2.86325 -43.93991,4.62303 -3.48561,0.46015 -11.28072,1.41777 -17.32246,2.12805 -6.04173,0.71027 -14.40722,1.88221 -18.58996,2.60431 -4.18274,0.72209 -12.92847,2.21589 -19.43495,3.31955 -18.35375,3.11324 -34.19013,6.17248 -39.29242,7.59042 -2.55611,0.71035 -8.6401,2.19895 -13.519965,3.308 -20.400668,4.63644 -32.662755,9.08701 -36.113203,13.10739 -8.927756,10.40243 -17.773913,37.02941 -24.313229,73.18294 -1.092807,6.04174 -2.623775,14.50228 -3.402151,18.80121 l -1.41523,7.81623 H 27.14703 c -5.441829,0 -7.519745,1.10237 -10.311183,5.47024 -2.554261,3.99675 -6.125182,17.13317 -7.4082245,27.25279 -1.5758683,12.4292 -2.482318,42.56942 -1.6588074,55.15678 0.8628867,13.18922 1.3031223,15.41138 4.1642449,21.01964 2.064597,4.04695 1.900966,5.56328 -0.246646,2.28561 z"
         id="path925"
         inkscape:connector-curvature="0" />
      <path
         style="opacity:1;fill:#036d6d;fill-opacity:1;fill-rule:nonzero;stroke:none;stroke-width:0.63873875;stroke-linecap:round;stroke-linejoin:miter;stroke-miterlimit:4;stroke-dasharray:none;stroke-opacity:1;paint-order:markers fill stroke"
         d="m 77.051638,236.09697 c 0,-6.12137 4.229001,-42.43878 5.556345,-47.71624 0.701339,-2.78849 2.153295,-6.98906 3.226569,-9.33459 1.729607,-3.77988 2.517902,-4.51728 6.935473,-6.48773 5.236525,-2.33575 21.738215,-5.31817 36.671495,-6.62781 4.41512,-0.3872 19.43496,-0.96234 33.37743,-1.27808 31.62398,-0.71616 38.25807,-0.0592 52.5532,5.20427 2.6843,0.98836 4.27059,2.40033 6.54318,5.82412 5.01686,7.55823 5.93211,13.11082 5.95155,36.1065 0.0117,13.78809 -0.28069,20.32423 -0.93846,20.98184 -0.71047,0.7103 -2.21048,-2.90721 -5.85143,-14.1117 -8.1753,-25.15828 -11.10784,-31.93057 -14.15811,-32.69614 -1.10629,-0.27767 -10.53073,-1.50173 -20.9432,-2.72015 -10.41245,-1.21842 -21.59349,-2.57979 -24.84673,-3.02526 -7.52853,-1.03089 -53.32743,-1.35823 -59.84723,-0.42775 -7.004287,0.99963 -9.133591,3.26369 -12.451907,13.23997 -1.468559,4.41512 -3.593062,12.21022 -4.721118,17.32246 -4.443883,20.13924 -5.345279,24.57494 -5.35596,26.35632 -0.0061,1.01826 -0.39135,2.08639 -0.856099,2.37362 -0.51147,0.3161 -0.844998,-0.86157 -0.844998,-2.98365 z"
         id="path927"
         inkscape:connector-curvature="0" />
      <path
         style="opacity:1;fill:#036d6d;fill-opacity:1;fill-rule:nonzero;stroke:none;stroke-width:0.63873875;stroke-linecap:round;stroke-linejoin:miter;stroke-miterlimit:4;stroke-dasharray:none;stroke-opacity:1;paint-order:markers fill stroke"
         d="m 257.71734,168.22537 c -4.50525,-0.55864 -8.42591,-1.25025 -8.71256,-1.5369 -0.28666,-0.28666 1.30808,-1.18864 3.54388,-2.00439 2.23579,-0.81575 5.69028,-2.16956 7.67665,-3.00846 5.50966,-2.3269 11.74398,-3.17261 30.18835,-4.09514 40.56329,-2.02885 68.78464,-1.89568 106.68102,0.50341 l 8.66123,0.54831 v 5.35187 5.35187 l -3.59125,-0.4171 c -17.39123,-2.01993 -79.18003,-2.75234 -105.83601,-1.25452 -27.16397,1.52635 -30.44226,1.57399 -38.61131,0.56105 z"
         id="path929"
         inkscape:connector-curvature="0" />
      <path
         style="opacity:1;fill:#036d6d;fill-opacity:1;fill-rule:nonzero;stroke:none;stroke-width:0.63873875;stroke-linecap:round;stroke-linejoin:miter;stroke-miterlimit:4;stroke-dasharray:none;stroke-opacity:1;paint-order:markers fill stroke"
         d="m 256.40249,190.30559 c -4.29893,-0.48893 -7.81623,-1.15868 -7.81623,-1.48835 0,-1.15914 17.15522,-6.9472 22.69917,-7.65856 11.21329,-1.4388 41.18242,-2.58371 67.63123,-2.58371 24.44262,0 60.08623,1.2386 64.938,2.25657 1.71864,0.36059 1.90125,0.89076 1.90125,5.52005 v 5.12115 l -5.28124,-0.50448 c -22.01465,-2.10288 -72.54708,-2.76958 -99.92103,-1.31832 -26.89303,1.42577 -36.16863,1.56352 -44.15115,0.65565 z"
         id="path931"
         inkscape:connector-curvature="0" />
      <path
         style="opacity:1;fill:#036d6d;fill-opacity:1;fill-rule:nonzero;stroke:none;stroke-width:0.63873875;stroke-linecap:round;stroke-linejoin:miter;stroke-miterlimit:4;stroke-dasharray:none;stroke-opacity:1;paint-order:markers fill stroke"
         d="m 257.91919,212.58064 c -12.05557,-1.58644 -12.15206,-1.33539 2.49704,-6.49671 6.97629,-2.45795 9.79791,-2.95108 21.54745,-3.76577 31.32501,-2.17201 104.46815,-1.84971 120.62348,0.53153 l 3.16875,0.46706 v 5.1172 5.11721 l -6.54874,-0.53152 c -34.03793,-2.76261 -97.01329,-2.46377 -127.38347,0.60449 -1.85899,0.18781 -8.11602,-0.28176 -13.90451,-1.04349 z"
         id="path933"
         inkscape:connector-curvature="0" />
      <path
         style="opacity:1;fill:#036d6d;fill-opacity:1;fill-rule:nonzero;stroke:none;stroke-width:0.63873875;stroke-linecap:round;stroke-linejoin:miter;stroke-miterlimit:4;stroke-dasharray:none;stroke-opacity:1;paint-order:markers fill stroke"
         d="m 262.10623,235.25375 c -2.09137,-0.3742 -6.02758,-0.93424 -8.74712,-1.24453 -4.29548,-0.49009 -4.73922,-0.70133 -3.38,-1.60898 0.86055,-0.57465 5.55726,-2.42157 10.43712,-4.10427 8.44668,-2.91264 9.74436,-3.11101 27.03994,-4.13356 22.43137,-1.32618 82.18782,-1.32712 102.59984,-0.002 8.32839,0.54083 15.18803,1.07704 15.24363,1.19159 0.0556,0.11454 -0.0388,2.50277 -0.20968,5.30717 l -0.31077,5.09891 -7.32787,-0.65241 c -26.55715,-2.36441 -94.83095,-2.25815 -117.99824,0.18365 -8.75832,0.92312 -12.0245,0.91635 -17.34685,-0.036 z"
         id="path935"
         inkscape:connector-curvature="0" />
      <path
         style="opacity:1;fill:#036d6d;fill-opacity:1;fill-rule:nonzero;stroke:none;stroke-width:0.63873875;stroke-linecap:round;stroke-linejoin:miter;stroke-miterlimit:4;stroke-dasharray:none;stroke-opacity:1;paint-order:markers fill stroke"
         d="m 112.54199,103.81051 c 5.2e-4,-0.96092 3.09068,-9.152602 4.20273,-11.141017 0.45019,-0.804946 2.77461,-5.836411 5.16539,-11.181024 15.69869,-35.094613 29.5226,-56.953751 39.11181,-61.845801 5.30309,-2.705436 20.57678,-6.433119 35.93247,-8.769646 7.62052,-1.1595415 14.09058,-2.2535504 14.37791,-2.4311318 0.28733,-0.1775815 9.45245,-1.1197781 20.36694,-2.0937709 10.91448,-0.9739928 25.35812,-2.3287472 32.09698,-3.0105653 19.35419,-1.9582006 68.61764,-3.25682848 96.81127,-2.55203023 l 25.07018,0.62671713 2.85663,6.1828079 c 1.57115,3.4005442 2.85664,6.5852592 2.85664,7.0771442 0,0.622732 -9.68742,0.732522 -31.89868,0.361513 -31.33327,-0.523379 -80.18565,0.547586 -104.14602,2.283139 -6.27411,0.454461 -19.39271,1.390463 -29.15243,2.080006 -20.75971,1.46671 -31.68191,2.547334 -39.29242,3.887527 -17.20236,3.029294 -21.44468,4.115946 -24.59679,6.300361 -5.16288,3.577875 -12.55302,13.407409 -26.3169,35.003768 -3.0695,4.816224 -13.6975,23.083481 -19.39514,33.336071 -3.49517,6.289372 -4.05124,7.097412 -4.05057,5.885932 z"
         id="path937"
         inkscape:connector-curvature="0" />
      <path
         style="opacity:1;fill:#036d6d;fill-opacity:1;fill-rule:nonzero;stroke:none;stroke-width:0.63873875;stroke-linecap:round;stroke-linejoin:miter;stroke-miterlimit:4;stroke-dasharray:none;stroke-opacity:1;paint-order:markers fill stroke"
         d="m 141.32119,80.834512 c -0.0665,-1.440612 12.00665,-22.228332 16.30605,-28.075979 6.04867,-8.22685 11.69488,-13.606902 16.52681,-15.747741 9.97091,-4.417724 48.91408,-9.849558 93.44466,-13.033759 28.66634,-2.049813 105.04358,-2.657837 121.62775,-0.968254 5.77259,0.588107 5.87432,0.641102 6.59691,3.436225 0.40364,1.561398 0.57745,2.995351 0.38625,3.186561 -0.19122,0.191211 -7.72281,-0.08422 -16.73689,-0.612078 -18.17529,-1.064325 -72.25375,-0.615982 -102.57904,0.850441 -21.89566,1.058796 -58.90917,3.466269 -59.56987,3.874608 -0.25383,0.156875 -5.96691,0.903329 -12.69573,1.658784 -25.55722,2.86935 -30.86702,4.592115 -38.52821,12.500463 -6.70323,6.919489 -13.04458,15.585907 -23.72245,32.420282 -0.57781,0.91096 -1.02772,1.128385 -1.05624,0.510447 z"
         id="path939"
         inkscape:connector-curvature="0" />
      <path
         style="opacity:1;fill:#036d6d;fill-opacity:1;fill-rule:nonzero;stroke:none;stroke-width:0.63873875;stroke-linecap:round;stroke-linejoin:miter;stroke-miterlimit:4;stroke-dasharray:none;stroke-opacity:1;paint-order:markers fill stroke"
         d="m 42.127277,136.37491 c -3.083063,-2.42514 -3.935419,-6.41603 -3.94084,-18.45178 -0.0041,-9.02034 0.230108,-10.84269 1.698603,-13.21876 3.314651,-5.363221 11.0268,-7.116718 31.421269,-7.144198 13.828709,-0.01863 19.718103,0.887826 24.825152,3.820938 6.778769,3.89323 7.403089,6.93925 0.67385,3.28771 l -4.121208,-2.23632 -14.787467,0.51208 c -22.913813,0.79349 -31.290505,2.39317 -33.345967,6.36799 -1.461101,2.82546 -3.183551,19.15654 -2.422039,22.96411 0.338566,1.69282 1.453317,3.18774 3.147407,4.22078 2.240725,1.36636 2.362591,1.60003 0.835876,1.60272 -0.98301,0.002 -2.776096,-0.77463 -3.984636,-1.72527 z"
         id="path941"
         inkscape:connector-curvature="0" />
    </g>
  </g>
</svg>
