<?xml version="1.0" encoding="UTF-8" standalone="no"?>
<!-- Created with Inkscape (http://www.inkscape.org/) -->

<svg
   xmlns:dc="http://purl.org/dc/elements/1.1/"
   xmlns:cc="http://creativecommons.org/ns#"
   xmlns:rdf="http://www.w3.org/1999/02/22-rdf-syntax-ns#"
   xmlns:svg="http://www.w3.org/2000/svg"
   xmlns="http://www.w3.org/2000/svg"
   xmlns:xlink="http://www.w3.org/1999/xlink"
   xmlns:sodipodi="http://sodipodi.sourceforge.net/DTD/sodipodi-0.dtd"
   xmlns:inkscape="http://www.inkscape.org/namespaces/inkscape"
   width="422.89661mm"
   height="95.176445mm"
   viewBox="0 0 422.89661 95.176445"
   version="1.1"
   id="svg4547"
   inkscape:version="0.92.4 (5da689c313, 2019-01-14)"
   sodipodi:docname="particulars2.svg">
  <defs
     id="defs4541">
    <linearGradient
       id="7db19e5e-7cc3-41df-8a16-c81cf46c1195"
       x1="758.38"
       y1="801.59003"
       x2="758.38"
       y2="131.56"
       gradientTransform="rotate(4.65,1291.9236,-1733.3727)"
       gradientUnits="userSpaceOnUse">
      <stop
         offset="0"
         stop-color="gray"
         stop-opacity="0.25"
         id="stop1463" />
      <stop
         offset="0.54"
         stop-color="gray"
         stop-opacity="0.12"
         id="stop1465" />
      <stop
         offset="1"
         stop-color="gray"
         stop-opacity="0.1"
         id="stop1467" />
    </linearGradient>
    <linearGradient
       gradientUnits="userSpaceOnUse"
       y2="130.21001"
       x2="378.37"
       y1="732.81"
       x1="378.37"
       id="a91ba363-77be-43f7-9cf6-91c4a3880d9c">
      <stop
         id="stop4162"
         stop-opacity="0.25"
         stop-color="gray"
         offset="0" />
      <stop
         id="stop4164"
         stop-opacity="0.12"
         stop-color="gray"
         offset="0.54" />
      <stop
         id="stop4166"
         stop-opacity="0.1"
         stop-color="gray"
         offset="1" />
    </linearGradient>
    <linearGradient
       xlink:href="#a91ba363-77be-43f7-9cf6-91c4a3880d9c"
       y2="248.16"
       x2="274.44"
       y1="409.32001"
       x1="274.44"
       id="d1e6aa0e-d79d-4f6f-afbb-c37e9ed80ff9" />
    <linearGradient
       xlink:href="#a91ba363-77be-43f7-9cf6-91c4a3880d9c"
       y2="261.01001"
       x2="274.44"
       y1="361.44"
       x1="274.44"
       id="a279b039-1afd-4281-8292-ccd5c8c9b734" />
    <clipPath
       transform="translate(-179 -60.54)"
       id="42e7b1d1-2be2-47b0-aacb-a853df270819">
      <rect
         height="96.93"
         width="143.78999"
         y="322.72"
         x="381.54001"
         data-name="&lt;Rectangle&gt;"
         id="cf34cfb5-9399-4bae-9cea-d47bbef6cb3a"
         style="fill:#ffffff" />
    </clipPath>
    <linearGradient
       xlink:href="#a91ba363-77be-43f7-9cf6-91c4a3880d9c"
       y2="454.87"
       x2="274.44"
       y1="616.03003"
       x1="274.44"
       id="972637f2-71db-4198-9c75-a0854a7fe249" />
    <linearGradient
       xlink:href="#a91ba363-77be-43f7-9cf6-91c4a3880d9c"
       y2="467.72"
       x2="274.44"
       y1="568.15002"
       x1="274.44"
       id="6c85befd-f960-412c-83e0-663d4b13bf85" />
    <clipPath
       transform="translate(-179 -60.54)"
       id="f66b8fac-771d-49bf-85c7-4ce29a79f723">
      <rect
         height="96.93"
         width="143.78999"
         y="529.41998"
         x="381.54001"
         data-name="&lt;Rectangle&gt;"
         id="7439734d-5f7c-428f-88ce-e68b86a45c07"
         style="fill:#ffffff" />
    </clipPath>
    <linearGradient
       xlink:href="#a91ba363-77be-43f7-9cf6-91c4a3880d9c"
       gradientTransform="rotate(90,662.7,498.69)"
       y2="409.67001"
       x2="688.17999"
       y1="568.48999"
       x1="688.17999"
       id="013b841e-9a42-49b8-8a36-6db9ed002b72" />
    <linearGradient
       gradientUnits="userSpaceOnUse"
       y2="362.70999"
       x2="810.59998"
       y1="767.53998"
       x1="810.59998"
       id="f8cab3c1-d868-48bc-b87d-cd2075ddc26a"
       gradientTransform="matrix(0.26458333,0,0,0.26458333,-323.88158,-16.179645)">
      <stop
         id="stop4179"
         stop-opacity="0.25"
         stop-color="#b3b3b3"
         offset="0" />
      <stop
         id="stop4181"
         stop-opacity="0.1"
         stop-color="#b3b3b3"
         offset="0.54" />
      <stop
         id="stop4183"
         stop-opacity="0.05"
         stop-color="#b3b3b3"
         offset="1" />
    </linearGradient>
    <linearGradient
       gradientUnits="userSpaceOnUse"
       y2="487.60001"
       x2="685.48999"
       y1="507.07999"
       x1="685.48999"
       id="043d467e-585e-47c7-bb2c-06dd6f5be04b">
      <stop
         id="stop4186"
         stop-opacity="0.12"
         offset="0" />
      <stop
         id="stop4188"
         stop-opacity="0.09"
         offset="0.55" />
      <stop
         id="stop4190"
         stop-opacity="0.02"
         offset="1" />
    </linearGradient>
    <linearGradient
       xlink:href="#043d467e-585e-47c7-bb2c-06dd6f5be04b"
       y2="425.14999"
       x2="774.98999"
       y1="484.73001"
       x1="774.98999"
       id="be08032f-102d-431e-9b5f-1e4ebfc8159b"
       gradientTransform="matrix(0.26458333,0,0,0.26458333,-323.88158,-16.179645)" />
  </defs>
  <sodipodi:namedview
     id="base"
     pagecolor="#ffffff"
     bordercolor="#666666"
     borderopacity="1.0"
     inkscape:pageopacity="0.0"
     inkscape:pageshadow="2"
     inkscape:zoom="0.45079036"
     inkscape:cx="736.87643"
     inkscape:cy="130.64741"
     inkscape:document-units="mm"
     inkscape:current-layer="layer1"
     showgrid="false"
     inkscape:window-width="1600"
     inkscape:window-height="838"
     inkscape:window-x="-8"
     inkscape:window-y="-8"
     inkscape:window-maximized="1"
     showguides="true"
     inkscape:guide-bbox="true" />
  <metadata
     id="metadata4544">
    <rdf:RDF>
      <cc:Work
         rdf:about="">
        <dc:format>image/svg+xml</dc:format>
        <dc:type
           rdf:resource="http://purl.org/dc/dcmitype/StillImage" />
        <dc:title></dc:title>
      </cc:Work>
    </rdf:RDF>
  </metadata>
  <g
     inkscape:label="Layer 1"
     inkscape:groupmode="layer"
     id="layer1"
     transform="translate(-66.736327,-133.72632)">
    <g
       id="g12500"
       transform="translate(13.793778,8.5760007)">
      <g
         transform="matrix(1.091498,0,0,1.091498,-11.12113,-14.393745)"
         id="g10814">
        <path
           inkscape:connector-curvature="0"
           id="path821-7"
           style="font-size:95.31585693px;font-family:'Caviar Dreams';text-anchor:end;fill:#036d6d;stroke-width:1.13682699"
           d="m 181.67182,157.61436 v 18.37891 h 8.33678 q 4.62789,0 7.15519,-2.39155 2.52728,-2.39155 2.52728,-6.81429 0,-4.38997 -2.52728,-6.78152 -2.5273,-2.39155 -7.15519,-2.39155 z m -6.63004,-5.43834 h 14.96682 q 8.2383,0 12.43952,3.73476 4.23402,3.70199 4.23402,10.87665 0,7.24019 -4.23402,10.94218 -4.20122,3.70199 -12.43952,3.70199 h -8.33678 v 19.65659 h -6.63004 z" />
        <path
           inkscape:connector-curvature="0"
           id="path823-2"
           style="font-size:95.31585693px;font-family:'Caviar Dreams';text-anchor:end;fill:#036d6d;stroke:#036d6d;stroke-width:0.66973537;stroke-opacity:1"
           d="m 215.62302,190.61244 q -4.31201,0 -5.97492,0.98431 -1.66293,0.98433 -1.66293,3.35826 0,1.89144 1.23753,3.01087 1.25685,1.10012 3.40319,1.10012 2.95846,0 4.73739,-2.08444 1.79828,-2.10375 1.79828,-5.57781 v -0.79131 z m 7.09641,-1.46684 v 12.33295 h -3.55787 v -3.28106 q -1.21819,1.96862 -3.03581,2.91436 -1.8176,0.92641 -4.44733,0.92641 -3.32585,0 -5.29816,-1.85284 -1.95296,-1.87213 -1.95296,-4.99878 0,-3.6478 2.43636,-5.50062 2.45571,-1.85284 7.30913,-1.85284 h 4.98877 v -0.34741 q 0,-2.45114 -1.62425,-3.78288 -1.60491,-1.35101 -4.52469,-1.35101 -1.8563,0 -3.6159,0.44391 -1.75959,0.44391 -3.38384,1.3317 v -3.28106 q 1.95296,-0.7527 3.7899,-1.11941 1.83696,-0.38601 3.57723,-0.38601 4.69871,0 7.01906,2.43186 2.32036,2.43183 2.32036,7.37273 z" />
        <path
           inkscape:connector-curvature="0"
           id="path825-7"
           style="font-size:95.31585693px;font-family:'Caviar Dreams';text-anchor:end;fill:#036d6d;stroke:#036d6d;stroke-width:0.66973537;stroke-opacity:1"
           d="m 239.38857,183.18179 q -0.59943,-0.3474 -1.31487,-0.50181 -0.69611,-0.17371 -1.54691,-0.17371 -3.01647,0 -4.64071,1.96864 -1.60491,1.94934 -1.60491,5.61641 v 11.38723 h -3.57721 v -21.61643 h 3.57721 v 3.35827 q 1.1215,-1.96864 2.91978,-2.91436 1.79828,-0.96502 4.37001,-0.96502 0.36739,0 0.81211,0.0579 0.44474,0.0386 0.98617,0.13509 z" />
        <path
           inkscape:connector-curvature="0"
           id="path827-3"
           style="font-size:95.31585693px;font-family:'Caviar Dreams';text-anchor:end;fill:#036d6d;stroke:#036d6d;stroke-width:0.66973537;stroke-opacity:1"
           d="m 248.54592,173.72461 v 6.13751 h 7.32846 v 2.75995 h -7.32846 v 11.73464 q 0,2.64415 0.71545,3.39687 0.73477,0.75271 2.95845,0.75271 h 3.65456 v 2.97226 h -3.65456 q -4.11864,0 -5.68487,-1.52473 -1.56624,-1.54403 -1.56624,-5.59711 v -11.73464 h -2.61041 v -2.75995 h 2.61041 v -6.13751 z" />
        <path
           inkscape:connector-curvature="0"
           id="path829-7"
           style="font-size:95.31585693px;font-family:'Caviar Dreams';text-anchor:end;fill:#036d6d;stroke:#036d6d;stroke-width:0.66973537;stroke-opacity:1"
           d="m 259.58165,179.86212 h 3.5579 v 21.61643 h -3.5579 z m 0,-8.41497 h 3.5579 v 4.49699 h -3.5579 z" />
        <path
           inkscape:connector-curvature="0"
           id="path831-7"
           style="font-size:95.31585693px;font-family:'Caviar Dreams';text-anchor:end;fill:#036d6d;stroke:#036d6d;stroke-width:0.66973537;stroke-opacity:1"
           d="m 284.04006,180.69205 v 3.31966 q -1.50823,-0.82992 -3.0358,-1.23523 -1.50824,-0.4246 -3.05515,-0.4246 -3.46119,0 -5.37549,2.20023 -1.91429,2.18094 -1.91429,6.13752 0,3.95659 1.91429,6.15682 1.9143,2.18095 5.37549,2.18095 1.54691,0 3.05515,-0.40532 1.52757,-0.42459 3.0358,-1.25451 v 3.28106 q -1.48891,0.69482 -3.09381,1.04222 -1.58558,0.34741 -3.38386,0.34741 -4.89208,0 -7.77318,-3.06876 -2.88112,-3.06876 -2.88112,-8.27987 0,-5.2883 2.90045,-8.31846 2.91978,-3.03016 7.98588,-3.03016 1.64359,0 3.20984,0.34741 1.56624,0.3281 3.0358,1.00363 z" />
        <path
           inkscape:connector-curvature="0"
           id="path833-4"
           style="font-size:95.31585693px;font-family:'Caviar Dreams';text-anchor:end;fill:#036d6d;stroke:#036d6d;stroke-width:0.66973537;stroke-opacity:1"
           d="m 288.3484,192.94778 v -13.08566 h 3.55789 v 12.95056 q 0,3.06876 1.19884,4.6128 1.19884,1.52471 3.59655,1.52471 2.8811,0 4.54402,-1.83353 1.68227,-1.83353 1.68227,-4.9988 v -12.25574 h 3.55789 v 21.61643 h -3.55789 v -3.31966 q -1.29555,1.96864 -3.01647,2.93365 -1.70158,0.94572 -3.96394,0.94572 -3.73191,0 -5.66552,-2.31606 -1.93364,-2.31603 -1.93364,-6.77442 z m 8.9527,-13.60677 z" />
        <path
           inkscape:connector-curvature="0"
           id="path835-2"
           style="font-size:95.31585693px;font-family:'Caviar Dreams';text-anchor:end;fill:#036d6d;stroke:#036d6d;stroke-width:0.66973537;stroke-opacity:1"
           d="m 310.62505,171.44715 h 3.55789 v 30.0314 h -3.55789 z" />
        <path
           inkscape:connector-curvature="0"
           id="path837-9"
           style="font-size:95.31585693px;font-family:'Caviar Dreams';text-anchor:end;fill:#036d6d;stroke:#036d6d;stroke-width:0.66973537;stroke-opacity:1"
           d="m 329.34057,190.61244 q -4.31199,0 -5.97492,0.98431 -1.66293,0.98433 -1.66293,3.35826 0,1.89144 1.23754,3.01087 1.25685,1.10012 3.40318,1.10012 2.95846,0 4.73739,-2.08444 1.79828,-2.10375 1.79828,-5.57781 v -0.79131 z m 7.09643,-1.46684 v 12.33295 h -3.55789 v -3.28106 q -1.21818,1.96862 -3.0358,2.91436 -1.81762,0.92641 -4.44735,0.92641 -3.32584,0 -5.29815,-1.85284 -1.95295,-1.87213 -1.95295,-4.99878 0,-3.6478 2.43637,-5.50062 2.45571,-1.85284 7.30911,-1.85284 h 4.98877 v -0.34741 q 0,-2.45114 -1.62424,-3.78288 -1.60492,-1.35101 -4.5247,-1.35101 -1.8563,0 -3.6159,0.44391 -1.75959,0.44391 -3.38385,1.3317 v -3.28106 q 1.95298,-0.7527 3.78991,-1.11941 1.83696,-0.38601 3.57723,-0.38601 4.69872,0 7.01907,2.43186 2.32037,2.43183 2.32037,7.37273 z" />
        <path
           inkscape:connector-curvature="0"
           id="path839-4"
           style="font-size:95.31585693px;font-family:'Caviar Dreams';text-anchor:end;fill:#036d6d;stroke:#036d6d;stroke-width:0.66973537;stroke-opacity:1"
           d="m 353.10612,183.18179 q -0.59943,-0.3474 -1.31488,-0.50181 -0.6961,-0.17371 -1.54691,-0.17371 -3.01645,0 -4.6407,1.96864 -1.60491,1.94934 -1.60491,5.61641 v 11.38723 h -3.57722 v -21.61643 h 3.57722 v 3.35827 q 1.1215,-1.96864 2.91978,-2.91436 1.79828,-0.96502 4.37001,-0.96502 0.36739,0 0.81211,0.0579 0.44474,0.0386 0.98616,0.13509 z" />
        <path
           inkscape:connector-curvature="0"
           id="path841-7"
           style="font-size:95.31585693px;font-family:'Caviar Dreams';text-anchor:end;fill:#036d6d;stroke:#036d6d;stroke-width:0.66973537;stroke-opacity:1"
           d="m 371.92786,180.49903 v 3.35827 q -1.50823,-0.77202 -3.13248,-1.15802 -1.62425,-0.386 -3.3645,-0.386 -2.64909,0 -3.98329,0.81061 -1.31487,0.81062 -1.31487,2.43184 0,1.23522 0.94749,1.94934 0.94747,0.69481 3.80924,1.33174 l 1.21818,0.27019 q 3.78993,0.81062 5.3755,2.29675 1.60492,1.46683 1.60492,4.11098 0,3.01087 -2.3977,4.76719 -2.37837,1.75634 -6.55501,1.75634 -1.74026,0 -3.63523,-0.34741 -1.87562,-0.3281 -3.96394,-1.00362 v -3.66706 q 1.97231,1.02291 3.8866,1.54401 1.9143,0.50182 3.78991,0.50182 2.51372,0 3.86727,-0.84923 1.35353,-0.86849 1.35353,-2.43183 0,-1.44753 -0.98614,-2.21955 -0.96682,-0.77202 -4.27333,-1.48612 l -1.23753,-0.28951 q -3.3065,-0.69482 -4.77605,-2.12305 -1.46957,-1.44753 -1.46957,-3.95658 0,-3.04946 2.16567,-4.70928 2.16566,-1.65984 6.14895,-1.65984 1.97228,0 3.71256,0.2895 1.74027,0.28952 3.20982,0.86852 z" />
        <path
           inkscape:connector-curvature="0"
           id="path843-5"
           style="font-size:95.31585693px;font-family:'Caviar Dreams';text-anchor:end;fill:#036d6d;stroke-width:1.02377856"
           d="m 378.65215,194.56789 h 6.81114 v 6.86185 h -6.81114 z" />
        <path
           inkscape:connector-curvature="0"
           id="path845-5"
           style="font-size:95.31585693px;font-family:'Caviar Dreams';text-anchor:end;fill:#eb5c31;stroke-width:0.92564815"
           d="m 415.71937,185.64825 v 18.03247 h -4.91739 V 185.8083 q 0,-4.24137 -1.65695,-6.34871 -1.65692,-2.10735 -4.97082,-2.10735 -3.98201,0 -6.28036,2.53414 -2.29834,2.53416 -2.29834,6.90891 v 16.88543 h -4.9441 v -29.87629 h 4.9441 v 4.64149 q 1.76384,-2.69419 4.14236,-4.02796 2.40525,-1.33376 5.53206,-1.33376 5.15791,0 7.80367,3.20102 2.64577,3.17437 2.64577,9.36303 z" />
        <path
           inkscape:connector-curvature="0"
           id="path847-1"
           style="font-size:95.31585693px;font-family:'Caviar Dreams';text-anchor:end;fill:#eb5c31;stroke-width:0.92564815"
           d="m 441.22206,188.39579 q 0,-5.33505 -2.21817,-8.26932 -2.19145,-2.93428 -6.17345,-2.93428 -3.9553,0 -6.17346,2.93428 -2.19145,2.93427 -2.19145,8.26932 0,5.30838 2.19145,8.24266 2.21816,2.93428 6.17346,2.93428 3.982,0 6.17345,-2.93428 2.21817,-2.93428 2.21817,-8.24266 z m 4.91737,11.57706 q 0,7.62912 -3.39406,11.337 -3.39405,3.73453 -10.39598,3.73453 -2.59233,0 -4.89066,-0.40014 -2.29833,-0.37344 -4.46305,-1.1737 v -4.77487 q 2.16472,1.1737 4.27598,1.73388 2.11127,0.56018 4.30271,0.56018 4.8372,0 7.24243,-2.53415 2.40526,-2.50747 2.40526,-7.60244 v -2.42745 q -1.52332,2.64085 -3.90183,3.94794 -2.37853,1.30709 -5.69242,1.30709 -5.50532,0 -8.87267,-4.18802 -3.36732,-4.18801 -3.36732,-11.09691 0,-6.93556 3.36732,-11.12357 3.36735,-4.18802 8.87267,-4.18802 3.31389,0 5.69242,1.30708 2.37851,1.30709 3.90183,3.94794 v -4.53479 h 4.91737 z" />
      </g>
      <path
         sodipodi:nodetypes="ccccccc"
         inkscape:connector-curvature="0"
         id="path5094"
         d="m 161.95385,134.13854 c 3.59793,-0.4213 13.65801,0.54929 16.79592,0.42976 0,0 -33.06033,6.09663 -52.75946,74.28514 l -70.630312,0.16502 9.137159,-12.93449 c 0,0 22.212913,-35.3337 28.461738,-40.73666 4.657503,-4.0369 6.745454,-5.79142 12.246145,-8.39788"
         style="fill:none;fill-opacity:1;stroke:#eb5c31;stroke-width:2.5;stroke-linecap:butt;stroke-linejoin:miter;stroke-miterlimit:4;stroke-dasharray:none;stroke-opacity:1" />
      <g
         style="stroke:#eb5c31;stroke-width:2.29043031;stroke-miterlimit:4;stroke-dasharray:none;stroke-opacity:1"
         transform="matrix(1.091498,0,0,1.091498,-10.901957,-14.226142)"
         id="g5130">
        <path
           style="fill:none;fill-opacity:1;stroke:#eb5c31;stroke-width:2.29043031;stroke-linecap:butt;stroke-linejoin:miter;stroke-miterlimit:4;stroke-dasharray:none;stroke-opacity:1"
           d="m 125.63928,206.27437 c 0,0 5.97423,-17.74473 17.4376,-34.79476 0,0 8.49191,-15.41425 26.06482,-18.892 l -15.24663,-0.26727"
           id="path5096"
           inkscape:connector-curvature="0"
           sodipodi:nodetypes="cccc" />
        <path
           style="fill:none;fill-opacity:1;stroke:#eb5c31;stroke-width:2.29043031;stroke-linecap:butt;stroke-linejoin:miter;stroke-miterlimit:4;stroke-dasharray:none;stroke-opacity:1"
           d="M 126.10547,205.95209 H 62.21446"
           id="path5110"
           inkscape:connector-curvature="0"
           sodipodi:nodetypes="cc" />
      </g>
      <g
         style="stroke:#eb5c31;stroke-width:2.29043031;stroke-miterlimit:4;stroke-dasharray:none;stroke-opacity:1"
         transform="matrix(1.091498,0,0,1.091498,-10.903633,-14.520092)"
         id="g5126">
        <path
           style="fill:none;fill-opacity:1;stroke:#eb5c31;stroke-width:2.29043031;stroke-linecap:butt;stroke-linejoin:miter;stroke-miterlimit:4;stroke-dasharray:none;stroke-opacity:1"
           d="m 126.16845,208.06532 c 0,0 14.31448,-39.56887 38.2351,-43.04337 h -11.54304"
           id="path5100"
           inkscape:connector-curvature="0"
           sodipodi:nodetypes="ccc" />
        <path
           sodipodi:nodetypes="cc"
           style="fill:none;fill-opacity:1;stroke:#eb5c31;stroke-width:2.29043031;stroke-linecap:butt;stroke-linejoin:miter;stroke-miterlimit:4;stroke-dasharray:none;stroke-opacity:1"
           d="M 126.64244,207.72914 H 63.893598"
           id="path5112"
           inkscape:connector-curvature="0" />
      </g>
      <rect
         id="rect4264"
         transform="matrix(0.99997377,0.0072431,-0.00242241,0.99999707,0,0)"
         height="1.3486515"
         width="51.491707"
         y="184.04135"
         x="77.571014"
         style="fill:#e0e0e0;stroke-width:0.21961716" />
      <rect
         id="rect4266"
         transform="matrix(0.999985,0.00547696,-0.0032036,0.99999487,0,0)"
         height="1.3486545"
         width="52.6199"
         y="193.11635"
         x="72.509903"
         style="fill:#e0e0e0;stroke-width:0.2525571" />
      <rect
         id="rect4268"
         transform="rotate(0.24000091)"
         height="1.3486594"
         width="25.630306"
         y="202.14613"
         x="67.440392"
         style="opacity:0.7;fill:#036d6d;fill-opacity:1;stroke-width:0.28879216" />
      <rect
         id="rect4264-4"
         transform="matrix(0.99990458,0.01381415,-0.00127005,0.99999919,0,0)"
         height="1.3486485"
         width="26.998381"
         y="165.89149"
         x="110.75417"
         style="fill:#e0e0e0;stroke-width:0.15902522" />
      <rect
         id="rect4266-4"
         transform="matrix(0.999947,0.01029506,-0.00170425,0.99999855,0,0)"
         height="1.3486497"
         width="27.993734"
         y="175.25012"
         x="105.02134"
         style="fill:#e0e0e0;stroke-width:0.18421042" />
      <rect
         id="rect4264-4-0"
         transform="matrix(0.99989853,0.01424533,-0.0012316,0.99999924,0,0)"
         height="1.3486484"
         width="26.18119"
         y="157.47908"
         x="116.19618"
         style="fill:#e0e0e0;stroke-width:0.15660003" />
      <path
         sodipodi:nodetypes="ccccc"
         inkscape:connector-curvature="0"
         id="path6710"
         d="m 82.840184,177.69349 12.653887,-18.3756 H 112.1228 l -11.85632,18.11446 z"
         style="fill:#e0e0e0;fill-opacity:1;stroke:none;stroke-width:0.28924695;stroke-linecap:butt;stroke-linejoin:miter;stroke-miterlimit:4;stroke-dasharray:none;stroke-opacity:1" />
      <g
         transform="matrix(1.0912712,0,0,1.0912712,100.94547,-2.0396358)"
         style="stroke:#000d0e;stroke-width:0.91636252;stroke-miterlimit:4;stroke-dasharray:none;stroke-opacity:1"
         id="g10498">
        <path
           style="fill:none;stroke:#000d0e;stroke-width:0.91636252;stroke-linecap:butt;stroke-linejoin:miter;stroke-miterlimit:4;stroke-dasharray:none;stroke-opacity:1"
           d="m 45.909128,118.11412 c 0,0 2.628921,0.8369 5.014673,4.48236 0,0 1.245222,0.70949 1.737519,1.27418 0,0 1.462413,5.66142 0.304066,7.7754"
           id="path5765"
           inkscape:connector-curvature="0"
           sodipodi:nodetypes="cccc" />
        <path
           style="fill:none;stroke:#000d0e;stroke-width:0.91636252;stroke-linecap:butt;stroke-linejoin:miter;stroke-miterlimit:4;stroke-dasharray:none;stroke-opacity:1"
           d="m 53.01338,128.04966 c 0,0 -0.582073,-1.24604 -1.294113,-1.30985 -0.35602,-0.0319 -0.744531,0.23174 -1.109021,1.09449 -0.182245,0.43137 -0.358485,1.01251 -0.521654,1.78137 -0.08158,0.38443 -0.159903,0.81579 -0.23407,1.29882 -0.07417,0.48303 -0.144184,1.01773 -0.209167,1.60885 m -10.495238,2.1418 c 0.0086,-0.74701 -0.02134,-1.74091 -0.175223,-2.72847 -0.307767,-1.97513 -1.111452,-3.92492 -3.09512,-3.82357 0,0 -4.862382,1.72143 -5.674561,9.88134 0,0 0.835448,1.92053 -13.506589,0.45553"
           id="path5767"
           inkscape:connector-curvature="0"
           sodipodi:nodetypes="cssssccsccc" />
        <path
           style="fill:none;stroke:#000d0e;stroke-width:0.91636252;stroke-linecap:butt;stroke-linejoin:miter;stroke-miterlimit:4;stroke-dasharray:none;stroke-opacity:1"
           d="m 11.064314,137.72967 c 0,0 -4.4398935,-0.78351 -4.9622088,-2.21022 0,0 -1.1850757,-5.43649 2.9909134,-8.73844"
           id="path5769"
           inkscape:connector-curvature="0"
           sodipodi:nodetypes="ccc" />
        <path
           style="fill:none;stroke:#000d0e;stroke-width:0.91636252;stroke-linecap:butt;stroke-linejoin:miter;stroke-miterlimit:4;stroke-dasharray:none;stroke-opacity:1"
           d="m 34.278271,123.13095 3.945268,-3.99302 c 0,0 0.414551,-0.2916 -0.20082,-0.37847 0,0 -8.085544,-0.39962 -12.303778,0.66518"
           id="path5783"
           inkscape:connector-curvature="0"
           sodipodi:nodetypes="ccc" />
        <path
           style="fill:none;stroke:#000d0e;stroke-width:0.91636252;stroke-linecap:butt;stroke-linejoin:miter;stroke-miterlimit:4;stroke-dasharray:none;stroke-opacity:1"
           d="m 37.168439,123.50868 c 0,0 2.34565,-3.19994 3.4316,-3.98182 0,0 1.122256,-0.8829 3.768548,-0.29803"
           id="path5785"
           inkscape:connector-curvature="0"
           sodipodi:nodetypes="cc" />
        <path
           style="fill:none;stroke:#000d0e;stroke-width:0.91636252;stroke-linecap:butt;stroke-linejoin:miter;stroke-miterlimit:4;stroke-dasharray:none;stroke-opacity:1"
           d="m 48.553961,122.29807 c 0,0 -0.561619,-2.19445 -4.185374,-3.06924"
           id="path5791"
           inkscape:connector-curvature="0"
           sodipodi:nodetypes="cc" />
        <path
           style="fill:none;stroke:#000d0e;stroke-width:0.91636252;stroke-linecap:butt;stroke-linejoin:miter;stroke-miterlimit:4;stroke-dasharray:none;stroke-opacity:1"
           d="m 29.298757,139.17988 c 0,0 0.22888,1.58165 1.785122,2.155 l 3.685836,0.36859 c 0,0 2.965888,-0.37471 3.631399,-4.46702"
           id="path5797"
           inkscape:connector-curvature="0"
           sodipodi:nodetypes="cccc" />
        <path
           style="fill:none;stroke:#000d0e;stroke-width:0.91636252;stroke-linecap:butt;stroke-linejoin:miter;stroke-miterlimit:4;stroke-dasharray:none;stroke-opacity:1"
           d="m 35.588789,132.16125 c 0,0 -1.556242,-0.32763 -2.170547,3.48106 0,0 -0.122862,2.90772 1.269565,3.52202"
           id="path5801"
           inkscape:connector-curvature="0" />
        <path
           style="fill:none;stroke:#000d0e;stroke-width:0.91636252;stroke-linecap:butt;stroke-linejoin:miter;stroke-miterlimit:4;stroke-dasharray:none;stroke-opacity:1"
           d="m 34.687806,139.16433 c 0,0 0.880507,0.30716 1.556242,-0.92146"
           id="path5803"
           inkscape:connector-curvature="0" />
        <path
           style="fill:none;stroke:#000d0e;stroke-width:0.91636252;stroke-linecap:butt;stroke-linejoin:miter;stroke-miterlimit:4;stroke-dasharray:none;stroke-opacity:1"
           d="m 38.849016,136.77893 9.379593,-2.88911 c 0,0 0.178697,1.05628 0.793003,1.34296 h 2.41627 c 0,0 0.88961,-0.31229 1.212687,-3.46316"
           id="path5805"
           inkscape:connector-curvature="0"
           sodipodi:nodetypes="ccccc" />
        <path
           style="fill:none;stroke:#000d0e;stroke-width:0.91636252;stroke-linecap:butt;stroke-linejoin:miter;stroke-miterlimit:4;stroke-dasharray:none;stroke-opacity:1"
           d="m 37.993759,124.19644 9.085411,-0.68112"
           id="path5819"
           inkscape:connector-curvature="0"
           sodipodi:nodetypes="cc" />
        <path
           style="fill:none;stroke:#000d0e;stroke-width:0.91636252;stroke-linecap:butt;stroke-linejoin:miter;stroke-miterlimit:4;stroke-dasharray:none;stroke-opacity:1"
           d="m 16.698628,138.44997 c 0,0 -0.390947,1.42783 -1.559305,1.68951 l -2.629147,-0.16306 c 0,0 -1.406165,-0.72947 -1.546456,-2.32904"
           id="path5797-7"
           inkscape:connector-curvature="0"
           sodipodi:nodetypes="cccc" />
        <path
           style="fill:none;stroke:#000d0e;stroke-width:0.91636252;stroke-linecap:butt;stroke-linejoin:miter;stroke-miterlimit:4;stroke-dasharray:none;stroke-opacity:1"
           d="m 9.0930184,126.78101 c 0,0 4.0121746,-2.40097 7.2679956,-2.97432 0,0 8.195928,-0.21114 15.609345,0.13637"
           id="path10449"
           inkscape:connector-curvature="0" />
        <path
           style="fill:none;stroke:#000d0e;stroke-width:0.91636252;stroke-linecap:butt;stroke-linejoin:miter;stroke-miterlimit:4;stroke-dasharray:none;stroke-opacity:1"
           d="m 17.566488,122.73958 c 0,0 4.126139,-4.31856 10.34699,-5.05281 0,0 10.881475,-1.7528 17.99565,0.42735"
           id="path10451"
           inkscape:connector-curvature="0"
           sodipodi:nodetypes="ccc" />
        <path
           style="fill:none;stroke:#000d0e;stroke-width:0.91636252;stroke-linecap:butt;stroke-linejoin:miter;stroke-miterlimit:4;stroke-dasharray:none;stroke-opacity:1"
           d="m 21.317601,130.57459 c 0.44886,-0.21719 2.200248,-1.66611 2.200248,-1.66611 l -11.12951,-1e-5 c 0,0 -0.694963,0.64198 -0.428763,0.95937"
           id="path10474"
           inkscape:connector-curvature="0" />
        <path
           style="fill:none;stroke:#000d0e;stroke-width:0.91636252;stroke-linecap:butt;stroke-linejoin:miter;stroke-miterlimit:4;stroke-dasharray:none;stroke-opacity:1"
           d="m 11.959575,129.86784 c 0,0 1.491804,1.31207 3.285034,1.74131 0,0 5.192585,-0.59401 6.072992,-1.03456"
           id="path10476"
           inkscape:connector-curvature="0" />
      </g>
    </g>
  </g>
</svg>
