<?xml version="1.0" encoding="UTF-8" standalone="no"?>
<!-- Created with Inkscape (http://www.inkscape.org/) -->

<svg
   xmlns:dc="http://purl.org/dc/elements/1.1/"
   xmlns:cc="http://creativecommons.org/ns#"
   xmlns:rdf="http://www.w3.org/1999/02/22-rdf-syntax-ns#"
   xmlns:svg="http://www.w3.org/2000/svg"
   xmlns="http://www.w3.org/2000/svg"
   xmlns:sodipodi="http://sodipodi.sourceforge.net/DTD/sodipodi-0.dtd"
   xmlns:inkscape="http://www.inkscape.org/namespaces/inkscape"
   width="91.343956mm"
   height="13.05351mm"
   viewBox="0 0 91.343957 13.053509"
   version="1.1"
   id="svg8"
   inkscape:version="0.92.4 (5da689c313, 2019-01-14)"
   sodipodi:docname="particulars2.svg">
  <defs
     id="defs2" />
  <sodipodi:namedview
     id="base"
     pagecolor="#ffffff"
     bordercolor="#666666"
     borderopacity="1.0"
     inkscape:pageopacity="0.0"
     inkscape:pageshadow="2"
     inkscape:zoom="8.6419212"
     inkscape:cx="295.11385"
     inkscape:cy="12.113885"
     inkscape:document-units="mm"
     inkscape:current-layer="layer1"
     showgrid="false"
     inkscape:window-width="1600"
     inkscape:window-height="838"
     inkscape:window-x="-8"
     inkscape:window-y="-8"
     inkscape:window-maximized="1"
     showguides="true"
     inkscape:guide-bbox="true">
    <sodipodi:guide
       position="35.383349,7.9119186"
       orientation="1,0"
       id="guide2379"
       inkscape:locked="false" />
    <sodipodi:guide
       position="41.545534,10.007061"
       orientation="0,1"
       id="guide2381"
       inkscape:locked="false" />
  </sodipodi:namedview>
  <metadata
     id="metadata5">
    <rdf:RDF>
      <cc:Work
         rdf:about="">
        <dc:format>image/svg+xml</dc:format>
        <dc:type
           rdf:resource="http://purl.org/dc/dcmitype/StillImage" />
        <dc:title />
      </cc:Work>
    </rdf:RDF>
  </metadata>
  <g
     inkscape:label="Layer 1"
     inkscape:groupmode="layer"
     id="layer1"
     transform="translate(103.26709,-73.241691)">
    <g
       id="g2453"
       transform="matrix(0.82165921,0,0,0.82165921,-10.271557,14.225968)">
      <g
         transform="matrix(2.4672082,0,0,2.4672082,146.51106,-104.36649)"
         aria-label="Particulars."
         style="font-style:normal;font-variant:normal;font-weight:normal;font-stretch:normal;font-size:7.05555534px;line-height:1.25;font-family:Arial;-inkscape-font-specification:Arial;letter-spacing:0px;word-spacing:0px;fill:#ec6b33;fill-opacity:1;stroke:none;stroke-width:0.26458332"
         id="text2354">
        <path
           d="m -105.25712,71.475341 h 2.14629 q 0.73036,0 1.161,0.423747 0.43064,0.423747 0.43064,1.002523 0,0.599446 -0.4272,1.026638 -0.42374,0.427192 -1.15755,0.427192 h -0.95429 v 1.932698 h -1.19889 z m 1.19889,0.881945 v 1.11621 h 0.55811 q 0.74758,0 0.74758,-0.558105 0,-0.313504 -0.19981,-0.434082 -0.19982,-0.124023 -0.68213,-0.124023 z"
           style="font-style:normal;font-variant:normal;font-weight:bold;font-stretch:normal;font-family:'Gill Sans MT';-inkscape-font-specification:'Gill Sans MT Bold';fill:#ec6b33;fill-opacity:1;stroke-width:0.26458332"
           id="path2391"
           inkscape:connector-curvature="0" />
        <path
           d="m -97.68308,75.485432 v 0.568441 q -0.509874,0.296278 -0.957737,0.296278 -0.482313,0 -0.571886,-0.36518 -0.533989,0.36518 -1.071427,0.36518 -0.37896,0 -0.64423,-0.237712 -0.26527,-0.241156 -0.26527,-0.558105 0,-0.423747 0.27216,-0.682129 0.27561,-0.261827 1.660536,-0.671793 0.03445,-0.544326 -0.564996,-0.544326 -0.65112,0 -1.19889,0.544326 v -0.833714 q 0.64079,-0.396186 1.409041,-0.396186 1.378038,0 1.378038,0.988743 v 1.481391 q 0,0.227376 0.16881,0.227376 0.127469,0 0.385851,-0.18259 z m -1.577854,0.01378 V 74.71373 q -0.513319,0.179145 -0.706244,0.323839 -0.189482,0.141249 -0.189482,0.361735 0,0.141249 0.0965,0.244602 0.09647,0.09991 0.23427,0.09991 0.289388,0 0.564996,-0.244601 z"
           style="font-style:normal;font-variant:normal;font-weight:bold;font-stretch:normal;font-family:'Gill Sans MT';-inkscape-font-specification:'Gill Sans MT Bold';fill:#ec6b33;fill-opacity:1;stroke-width:0.26458332"
           id="path2393"
           inkscape:connector-curvature="0" />
        <path
           d="m -96.210302,73.035969 v 0.930176 h 0.01378 q 0.444418,-0.995633 1.036974,-0.995633 0.282498,0 0.678684,0.296279 l -0.282498,0.90606 q -0.378961,-0.241157 -0.606337,-0.241157 -0.354845,0 -0.599447,0.440972 -0.241156,0.437527 -0.241156,0.509874 v 1.405599 h -1.023194 v -3.25217 z"
           style="font-style:normal;font-variant:normal;font-weight:bold;font-stretch:normal;font-family:'Gill Sans MT';-inkscape-font-specification:'Gill Sans MT Bold';fill:#ec6b33;fill-opacity:1;stroke-width:0.26458332"
           id="path2395"
           inkscape:connector-curvature="0" />
        <path
           d="m -91.616267,73.035969 v 0.699355 h -1.185113 v 1.340142 q 0,0.241156 0.130914,0.382405 0.134358,0.137804 0.368625,0.137804 0.316949,0 0.685574,-0.18948 v 0.740695 q -0.489204,0.203261 -0.947402,0.203261 -0.599446,0 -0.930175,-0.310059 -0.330729,-0.310058 -0.330729,-0.909505 v -1.395263 h -0.465088 v -0.199816 l 1.360812,-1.522732 h 0.127469 v 1.023193 z"
           style="font-style:normal;font-variant:normal;font-weight:bold;font-stretch:normal;font-family:'Gill Sans MT';-inkscape-font-specification:'Gill Sans MT Bold';fill:#ec6b33;fill-opacity:1;stroke-width:0.26458332"
           id="path2397"
           inkscape:connector-curvature="0" />
        <path
           d="m -91.121897,71.978325 q 0,-0.234266 0.165365,-0.399631 0.165365,-0.165365 0.396186,-0.165365 0.234266,0 0.399631,0.165365 0.165365,0.165365 0.165365,0.399631 0,0.230821 -0.165365,0.399631 -0.165365,0.165365 -0.399631,0.165365 -0.230821,0 -0.396186,-0.165365 -0.165365,-0.16881 -0.165365,-0.399631 z m 1.078315,1.057644 v 3.25217 h -1.023193 v -3.25217 z"
           style="font-style:normal;font-variant:normal;font-weight:bold;font-stretch:normal;font-family:'Gill Sans MT';-inkscape-font-specification:'Gill Sans MT Bold';fill:#ec6b33;fill-opacity:1;stroke-width:0.26458332"
           id="path2399"
           inkscape:connector-curvature="0" />
        <path
           d="m -86.329768,75.399305 v 0.733805 q -0.599447,0.217041 -1.098985,0.217041 -0.857829,0 -1.371148,-0.458198 -0.51332,-0.461642 -0.51332,-1.219563 0,-0.740696 0.516765,-1.219564 0.520209,-0.482314 1.322916,-0.482314 0.516765,0 1.095541,0.213596 v 0.761366 q -0.423747,-0.217041 -0.833713,-0.217041 -0.458198,0 -0.733806,0.254938 -0.275607,0.254937 -0.275607,0.682128 0,0.430637 0.268717,0.69591 0.268718,0.261827 0.706245,0.261827 0.323839,0 0.916395,-0.223931 z"
           style="font-style:normal;font-variant:normal;font-weight:bold;font-stretch:normal;font-family:'Gill Sans MT';-inkscape-font-specification:'Gill Sans MT Bold';fill:#ec6b33;fill-opacity:1;stroke-width:0.26458332"
           id="path2401"
           inkscape:connector-curvature="0" />
        <path
           d="m -83.401438,76.288139 v -0.465088 q -0.451307,0.5271 -1.050754,0.5271 -0.530545,0 -0.861274,-0.327284 -0.330729,-0.327284 -0.330729,-0.90606 v -2.080838 h 1.023193 v 2.011936 q 0,0.620117 0.51332,0.620117 0.289388,0 0.492648,-0.223931 0.206706,-0.227376 0.206706,-0.334174 v -2.073948 h 1.030083 v 3.25217 z"
           style="font-style:normal;font-variant:normal;font-weight:bold;font-stretch:normal;font-family:'Gill Sans MT';-inkscape-font-specification:'Gill Sans MT Bold';fill:#ec6b33;fill-opacity:1;stroke-width:0.26458332"
           id="path2403"
           inkscape:connector-curvature="0" />
        <path
           d="m -80.479996,71.475341 v 4.812798 h -1.023194 v -4.812798 z"
           style="font-style:normal;font-variant:normal;font-weight:bold;font-stretch:normal;font-family:'Gill Sans MT';-inkscape-font-specification:'Gill Sans MT Bold';fill:#ec6b33;fill-opacity:1;stroke-width:0.26458332"
           id="path2405"
           inkscape:connector-curvature="0" />
        <path
           d="m -76.287316,75.485432 v 0.568441 q -0.509874,0.296278 -0.957737,0.296278 -0.482313,0 -0.571886,-0.36518 -0.533989,0.36518 -1.071424,0.36518 -0.378961,0 -0.644233,-0.237712 -0.265273,-0.241156 -0.265273,-0.558105 0,-0.423747 0.272163,-0.682129 0.275608,-0.261827 1.660536,-0.671793 0.03445,-0.544326 -0.564996,-0.544326 -0.651123,0 -1.198893,0.544326 v -0.833714 q 0.640788,-0.396186 1.409044,-0.396186 1.378038,0 1.378038,0.988743 v 1.481391 q 0,0.227376 0.16881,0.227376 0.127469,0 0.385851,-0.18259 z m -1.577854,0.01378 V 74.71373 q -0.513319,0.179145 -0.706245,0.323839 -0.18948,0.141249 -0.18948,0.361735 0,0.141249 0.09646,0.244602 0.09646,0.09991 0.234266,0.09991 0.289388,0 0.564996,-0.244601 z"
           style="font-style:normal;font-variant:normal;font-weight:bold;font-stretch:normal;font-family:'Gill Sans MT';-inkscape-font-specification:'Gill Sans MT Bold';fill:#ec6b33;fill-opacity:1;stroke-width:0.26458332"
           id="path2407"
           inkscape:connector-curvature="0" />
        <path
           d="m -74.80937,73.035969 v 0.930176 h 0.01378 q 0.444417,-0.995633 1.036973,-0.995633 0.282498,0 0.678684,0.296279 l -0.282498,0.90606 q -0.37896,-0.241157 -0.606337,-0.241157 -0.354844,0 -0.599446,0.440972 -0.241157,0.437527 -0.241157,0.509874 v 1.405599 h -1.023193 v -3.25217 z"
           style="font-style:normal;font-variant:normal;font-weight:bold;font-stretch:normal;font-family:'Gill Sans MT';-inkscape-font-specification:'Gill Sans MT Bold';fill:#ec6b33;fill-opacity:1;stroke-width:0.26458332"
           id="path2409"
           inkscape:connector-curvature="0" />
        <path
           d="m -70.45477,73.211669 v 0.726915 q -0.585666,-0.35829 -1.085205,-0.35829 -0.368625,0 -0.368625,0.251492 0,0.06546 0.07579,0.130914 0.07924,0.06201 0.596001,0.268717 0.516765,0.203261 0.730361,0.471978 0.213595,0.268718 0.213595,0.589112 0,0.506429 -0.344509,0.782036 -0.34451,0.275608 -0.981852,0.275608 -0.654568,0 -1.164443,-0.237712 v -0.720024 q 0.627008,0.275607 1.050755,0.275607 0.496093,0 0.496093,-0.241157 0,-0.09302 -0.09302,-0.175699 -0.08957,-0.08268 -0.613227,-0.285943 -0.523655,-0.203261 -0.71658,-0.447863 -0.192925,-0.244601 -0.192925,-0.544325 0,-0.444417 0.368625,-0.72347 0.37207,-0.279053 0.978407,-0.279053 0.582221,0 1.050754,0.241157 z"
           style="font-style:normal;font-variant:normal;font-weight:bold;font-stretch:normal;font-family:'Gill Sans MT';-inkscape-font-specification:'Gill Sans MT Bold';fill:#ec6b33;fill-opacity:1;stroke-width:0.26458332"
           id="path2411"
           inkscape:connector-curvature="0" />
        <path
           d="m -69.758858,75.736924 q 0,-0.251492 0.179145,-0.430637 0.18259,-0.18259 0.434082,-0.18259 0.254937,0 0.434082,0.18259 0.18259,0.179145 0.18259,0.430637 0,0.254937 -0.18259,0.434082 -0.179145,0.179145 -0.434082,0.179145 -0.251492,0 -0.434082,-0.179145 -0.179145,-0.179145 -0.179145,-0.434082 z"
           style="font-style:normal;font-variant:normal;font-weight:bold;font-stretch:normal;font-family:'Gill Sans MT';-inkscape-font-specification:'Gill Sans MT Bold';fill:#ec6b33;fill-opacity:1;stroke-width:0.26458332"
           id="path2413"
           inkscape:connector-curvature="0" />
      </g>
      <g
         transform="matrix(2.4672082,0,0,2.4672082,146.51106,-104.36649)"
         aria-label="ng"
         style="font-style:normal;font-variant:normal;font-weight:normal;font-stretch:normal;font-size:7.05555534px;line-height:1.25;font-family:Arial;-inkscape-font-specification:Arial;letter-spacing:0px;word-spacing:0px;fill:#00a450;fill-opacity:1;stroke:none;stroke-width:0.26458332"
         id="text2354-6">
        <path
           d="m -64.535421,76.367661 h -0.968072 v -1.867242 q 0,-0.592557 -0.06201,-0.764811 -0.06201,-0.1757 -0.203261,-0.272163 -0.137804,-0.09646 -0.334174,-0.09646 -0.251492,0 -0.451308,0.137804 -0.199815,0.137804 -0.275607,0.36518 -0.07235,0.227377 -0.07235,0.840604 v 1.657091 h -0.968072 v -3.658692 h 0.89917 v 0.537435 q 0.478868,-0.620117 1.205783,-0.620117 0.320394,0 0.585666,0.117133 0.265273,0.113688 0.399631,0.292833 0.137804,0.179145 0.189481,0.406522 0.05512,0.227376 0.05512,0.651123 z"
           style="font-style:normal;font-variant:normal;font-weight:bold;font-stretch:normal;font-family:Arial;-inkscape-font-specification:'Arial Bold';fill:#00a450;fill-opacity:1;stroke-width:0.26458332"
           id="path2416"
           inkscape:connector-curvature="0" />
        <path
           d="m -63.639696,76.608817 1.105876,0.134359 q 0.02756,0.192925 0.127468,0.265272 0.137804,0.103353 0.434082,0.103353 0.378961,0 0.568441,-0.113688 0.127469,-0.07579 0.192925,-0.244602 0.04479,-0.120578 0.04479,-0.444417 v -0.53399 q -0.434082,0.592557 -1.095541,0.592557 -0.73725,0 -1.167887,-0.623563 -0.337619,-0.492648 -0.337619,-1.226454 0,-0.91984 0.440972,-1.405599 0.444417,-0.485758 1.10243,-0.485758 0.678684,0 1.119656,0.596001 v -0.513319 h 0.90606 v 3.283176 q 0,0.647678 -0.106798,0.968072 -0.106797,0.320394 -0.299723,0.502984 -0.192925,0.18259 -0.516764,0.285943 -0.320394,0.103353 -0.813043,0.103353 -0.930175,0 -1.319471,-0.320394 -0.389296,-0.316949 -0.389296,-0.806153 0,-0.04823 0.0034,-0.117133 z m 0.864719,-2.146294 q 0,0.582221 0.223931,0.854383 0.227377,0.268718 0.558106,0.268718 0.354845,0 0.599446,-0.275608 0.244602,-0.279052 0.244602,-0.823378 0,-0.56844 -0.234266,-0.844048 -0.234267,-0.275608 -0.592557,-0.275608 -0.347954,0 -0.575331,0.272163 -0.223931,0.268717 -0.223931,0.823378 z"
           style="font-style:normal;font-variant:normal;font-weight:bold;font-stretch:normal;font-family:Arial;-inkscape-font-specification:'Arial Bold';fill:#00a450;fill-opacity:1;stroke-width:0.26458332"
           id="path2418"
           inkscape:connector-curvature="0" />
      </g>
    </g>
  </g>
</svg>
