<?xml version="1.0" encoding="UTF-8" standalone="no"?>
<svg
   xmlns:dc="http://purl.org/dc/elements/1.1/"
   xmlns:cc="http://creativecommons.org/ns#"
   xmlns:rdf="http://www.w3.org/1999/02/22-rdf-syntax-ns#"
   xmlns:svg="http://www.w3.org/2000/svg"
   xmlns="http://www.w3.org/2000/svg"
   xmlns:xlink="http://www.w3.org/1999/xlink"
   xmlns:sodipodi="http://sodipodi.sourceforge.net/DTD/sodipodi-0.dtd"
   xmlns:inkscape="http://www.inkscape.org/namespaces/inkscape"
   id="062a65d4-6310-416e-8fb8-777315adf84b"
   data-name="Layer 1"
   width="1439.3965"
   height="457.95706"
   viewBox="0 0 1439.3965 457.95706"
   version="1.1"
   sodipodi:docname="particulars2.svg"
   inkscape:version="0.92.4 (5da689c313, 2019-01-14)">
  <metadata
     id="metadata1544">
    <rdf:RDF>
      <cc:Work
         rdf:about="">
        <dc:format>image/svg+xml</dc:format>
        <dc:type
           rdf:resource="http://purl.org/dc/dcmitype/StillImage" />
        <dc:title>files</dc:title>
      </cc:Work>
    </rdf:RDF>
  </metadata>
  <sodipodi:namedview
     pagecolor="#ffffff"
     bordercolor="#666666"
     borderopacity="1"
     objecttolerance="10"
     gridtolerance="10"
     guidetolerance="10"
     inkscape:pageopacity="0"
     inkscape:pageshadow="2"
     inkscape:window-width="1600"
     inkscape:window-height="838"
     id="namedview1542"
     showgrid="false"
     inkscape:zoom="0.43103042"
     inkscape:cx="812.90469"
     inkscape:cy="36.397298"
     inkscape:window-x="-8"
     inkscape:window-y="-8"
     inkscape:window-maximized="1"
     inkscape:current-layer="062a65d4-6310-416e-8fb8-777315adf84b"
     showguides="false"
     inkscape:guide-bbox="true" />
  <defs
     id="defs1481">
    <linearGradient
       id="7db19e5e-7cc3-41df-8a16-c81cf46c1195"
       x1="758.38"
       y1="801.59003"
       x2="758.38"
       y2="131.56"
       gradientTransform="rotate(4.65,1291.9236,-1733.3727)"
       gradientUnits="userSpaceOnUse">
      <stop
         offset="0"
         stop-color="gray"
         stop-opacity="0.25"
         id="stop1463" />
      <stop
         offset="0.54"
         stop-color="gray"
         stop-opacity="0.12"
         id="stop1465" />
      <stop
         offset="1"
         stop-color="gray"
         stop-opacity="0.1"
         id="stop1467" />
    </linearGradient>
    <linearGradient
       id="87908c47-1c47-4a2f-b745-20cb7009bb75"
       x1="685.96997"
       y1="797.20001"
       x2="685.96997"
       y2="126.94"
       gradientTransform="rotate(-10.87,147.51519,1302.0211)"
       xlink:href="#7db19e5e-7cc3-41df-8a16-c81cf46c1195" />
    <linearGradient
       id="f482b758-09b8-4320-b57c-ecd1bdf3658e"
       x1="517.92999"
       y1="719.46002"
       x2="517.92999"
       y2="49.68"
       xlink:href="#7db19e5e-7cc3-41df-8a16-c81cf46c1195"
       gradientTransform="matrix(1.3385099,0,0,1.3385099,15.356321,0)" />
    <linearGradient
       id="720977dd-28dd-4cd1-b9d4-02f8d793e7ce"
       x1="553.47998"
       y1="380.79001"
       x2="559.92999"
       y2="535.01001"
       gradientTransform="matrix(-1.3385099,0.0133851,-0.0133851,-1.3385099,1461.884,834.06567)"
       gradientUnits="userSpaceOnUse">
      <stop
         offset="0"
         stop-opacity="0.12"
         id="stop1472" />
      <stop
         offset="0.55"
         stop-opacity="0.09"
         id="stop1474" />
      <stop
         offset="1"
         stop-opacity="0.02"
         id="stop1476" />
    </linearGradient>
    <linearGradient
       id="e8979000-d63e-4fe0-8af1-0dfdd65d3420"
       x1="356.17001"
       y1="639.40002"
       x2="356.17001"
       y2="574"
       xlink:href="#7db19e5e-7cc3-41df-8a16-c81cf46c1195"
       gradientTransform="matrix(1.3385099,0,0,1.3385099,15.356321,-630.14949)" />
    <linearGradient
       id="3889af47-bc7c-4009-b8ee-af9d60c73d61"
       x1="296"
       y1="675.65997"
       x2="296"
       y2="478.29999"
       xlink:href="#7db19e5e-7cc3-41df-8a16-c81cf46c1195"
       gradientTransform="translate(103.3019,-65)" />
    <linearGradient
       gradientUnits="userSpaceOnUse"
       y2="513.71002"
       x2="654.15997"
       y1="770.88"
       x1="654.15997"
       id="acc8b6a5-9f39-4130-a42e-d6ce30e2b206"
       gradientTransform="translate(1377.4236,71.99365)">
      <stop
         id="stop1940"
         stop-opacity="0.25"
         stop-color="gray"
         offset="0" />
      <stop
         id="stop1942"
         stop-opacity="0.12"
         stop-color="gray"
         offset="0.54" />
      <stop
         id="stop1944"
         stop-opacity="0.1"
         stop-color="gray"
         offset="1" />
    </linearGradient>
    <linearGradient
       gradientTransform="matrix(1.3385099,0,0,1.3385099,15.356321,0)"
       xlink:href="#7db19e5e-7cc3-41df-8a16-c81cf46c1195"
       y2="574"
       x2="356.17001"
       y1="639.40002"
       x1="356.17001"
       id="e8979000-d63e-4fe0-8af1-0dfdd65d3420-8" />
  </defs>
  <title
     id="title1483">files</title>
  <g
     id="g6069">
    <g
       id="g6044">
      <path
         inkscape:connector-curvature="0"
         id="polygon1485-7"
         d="M 89.158881,37.040994 380.36009,60.920183 348.26741,457.95705 57.066203,434.07786 Z"
         style="fill:#d0d0d0;fill-opacity:1;stroke:none;stroke-width:1.77734792;stroke-miterlimit:4;stroke-dasharray:none;stroke-opacity:1" />
      <path
         inkscape:connector-curvature="0"
         id="rect1493-9"
         d="m 34.67982,29.5472 h 292.1647 V 427.8984 H 34.67982 Z"
         style="fill:#79eec3;fill-opacity:1;stroke:none;stroke-width:1.7773478;stroke-miterlimit:4;stroke-dasharray:none;stroke-opacity:1" />
      <path
         inkscape:connector-curvature="0"
         id="polygon1489-1"
         d="M -4.12e-6,55.513911 286.91901,0 361.52438,391.19643 74.605363,446.71034 Z"
         style="fill:#02c6dd;fill-opacity:1;stroke:none;stroke-width:1.77734792;stroke-miterlimit:4;stroke-dasharray:none;stroke-opacity:1" />
    </g>
    <g
       id="g6039">
      <g
         id="text5828"
         style="font-style:normal;font-variant:normal;font-weight:bold;font-stretch:normal;font-size:335.68206787px;line-height:1.25;font-family:Muli;-inkscape-font-specification:'Muli Bold';letter-spacing:0px;word-spacing:0px;fill:#f9f9f9;fill-opacity:1;stroke:none;stroke-width:12.58807659"
         aria-label="P"
         transform="translate(-193.16753,-1178.4371)">
        <path
           inkscape:connector-curvature="0"
           id="path5879"
           style="font-style:normal;font-variant:normal;font-weight:bold;font-stretch:normal;font-family:Muli;-inkscape-font-specification:'Muli Bold';fill:#f9f9f9;stroke-width:12.58807659"
           d="m 368.09422,1345.7069 h 103.72576 q 38.60344,0 60.08709,18.7982 21.48365,18.4625 21.48365,50.688 0,32.2255 -21.81933,51.0237 -21.48365,18.7982 -59.75141,18.7982 h -60.42277 v 99.6975 h -43.30299 z m 98.69053,105.7398 q 22.4907,0 33.90389,-9.0634 11.74887,-9.3991 11.74887,-26.8545 0,-17.7912 -11.41319,-26.8546 -11.41319,-9.3991 -34.23957,-9.3991 h -55.38754 v 72.1716 z" />
      </g>
      <g
         id="text5832"
         style="font-style:normal;font-variant:normal;font-weight:normal;font-stretch:normal;font-size:196.23878479px;line-height:1.25;font-family:Arial;-inkscape-font-specification:Arial;letter-spacing:0px;word-spacing:0px;fill:#40574c;fill-opacity:1;stroke:#40574c;stroke-width:6;stroke-miterlimit:4;stroke-dasharray:none;stroke-opacity:1"
         aria-label="ticulars."
         transform="translate(-193.16753,-1178.4371)">
        <path
           inkscape:connector-curvature="0"
           id="path5882"
           style="fill:#40574c;fill-opacity:1;stroke:#40574c;stroke-width:6;stroke-miterlimit:4;stroke-dasharray:none;stroke-opacity:1"
           d="m 798.42374,1566.9859 2.49132,15.2353 q -7.2823,1.5331 -13.03148,1.5331 -9.39034,0 -14.5646,-2.9704 -5.17427,-2.9704 -7.2823,-7.7614 -2.10803,-4.8868 -2.10803,-20.4096 v -58.5458 h -12.64821 v -13.4148 h 12.64821 v -25.2006 l 17.15173,-10.3485 v 35.5491 h 17.34336 v 13.4148 h -17.34336 v 59.504 q 0,7.3781 0.86237,9.4862 0.9582,2.108 2.97041,3.3536 2.10804,1.2457 5.94083,1.2457 2.87459,0 7.56975,-0.6707 z" />
        <path
           inkscape:connector-curvature="0"
           id="path5884"
           style="fill:#40574c;fill-opacity:1;stroke:#40574c;stroke-width:6;stroke-miterlimit:4;stroke-dasharray:none;stroke-opacity:1"
           d="m 815.28802,1461.7758 v -19.8347 h 17.24755 v 19.8347 z m 0,120.637 v -101.7605 h 17.24755 v 101.7605 z" />
        <path
           inkscape:connector-curvature="0"
           id="path5886"
           style="fill:#40574c;fill-opacity:1;stroke:#40574c;stroke-width:6;stroke-miterlimit:4;stroke-dasharray:none;stroke-opacity:1"
           d="m 925.28905,1545.139 16.96009,2.2038 q -2.77877,17.535 -14.27714,27.5003 -11.40254,9.8694 -28.07517,9.8694 -20.8887,0 -33.63272,-13.6064 -12.64821,-13.7022 -12.64821,-39.1903 0,-16.4809 5.46173,-28.8417 5.46172,-12.3607 16.57681,-18.4932 11.21091,-6.2283 24.33821,-6.2283 16.57681,0 27.11698,8.4322 10.54017,8.3363 13.51058,23.7633 l -16.76845,2.5871 q -2.3955,-10.2527 -8.52796,-15.427 -6.03664,-5.1743 -14.66042,-5.1743 -13.03148,0 -21.17615,9.3904 -8.14468,9.2945 -8.14468,29.5125 0,20.5054 7.85722,29.7999 7.85721,9.2945 20.50542,9.2945 10.15689,0 16.96009,-6.2283 6.8032,-6.2283 8.62377,-19.1639 z" />
        <path
           inkscape:connector-curvature="0"
           id="path5888"
           style="fill:#40574c;fill-opacity:1;stroke:#40574c;stroke-width:6;stroke-miterlimit:4;stroke-dasharray:none;stroke-opacity:1"
           d="m 1023.6959,1582.4128 v -14.9478 q -11.8816,17.2475 -32.29124,17.2475 -9.00705,0 -16.86427,-3.4495 -7.7614,-3.4495 -11.59419,-8.6238 -3.73697,-5.2701 -5.27008,-12.8398 -1.05402,-5.0785 -1.05402,-16.0977 v -63.0494 h 17.24755 v 56.4378 q 0,13.5106 1.05402,18.2058 1.62893,6.8032 6.89902,10.7318 5.27008,3.8328 13.03148,3.8328 7.76143,0 14.56463,-3.9286 6.8032,-4.0245 9.5819,-10.8277 2.8746,-6.899 2.8746,-19.9305 v -54.5214 h 17.2476 v 101.7605 z" />
        <path
           inkscape:connector-curvature="0"
           id="path5890"
           style="fill:#40574c;fill-opacity:1;stroke:#40574c;stroke-width:6;stroke-miterlimit:4;stroke-dasharray:none;stroke-opacity:1"
           d="m 1065.8566,1582.4128 v -140.4717 h 17.2475 v 140.4717 z" />
        <path
           inkscape:connector-curvature="0"
           id="path5892"
           style="fill:#40574c;fill-opacity:1;stroke:#40574c;stroke-width:6;stroke-miterlimit:4;stroke-dasharray:none;stroke-opacity:1"
           d="m 1176.3367,1569.8605 q -9.582,8.1446 -18.4932,11.4983 -8.8154,3.3537 -18.9723,3.3537 -16.7684,0 -25.7755,-8.1447 -9.0071,-8.2405 -9.0071,-20.9845 0,-7.4739 3.3537,-13.6064 3.4495,-6.2283 8.9113,-9.9652 5.5575,-3.737 12.4565,-5.6534 5.0785,-1.3415 15.3312,-2.5871 20.8887,-2.4913 30.7581,-5.9408 0.096,-3.5454 0.096,-4.5036 0,-10.5401 -4.8868,-14.852 -6.6115,-5.845 -19.643,-5.845 -12.1691,0 -18.0141,4.3119 -5.7492,4.216 -8.528,15.0436 l -16.8642,-2.2996 q 2.2996,-10.8277 7.5697,-17.4392 5.2701,-6.7074 15.2353,-10.2527 9.9653,-3.6412 23.0926,-3.6412 13.0315,0 21.1762,3.0663 8.1446,3.0662 11.9774,7.7614 3.8328,4.5993 5.3659,11.69 0.8624,4.4077 0.8624,15.906 v 22.9968 q 0,24.0507 1.054,30.4706 1.1499,6.3241 4.4077,12.1691 h -18.0141 q -2.6829,-5.3659 -3.4495,-12.5523 z m -1.4373,-38.5196 q -9.3903,3.8328 -28.171,6.5158 -10.636,1.5331 -15.0437,3.4495 -4.4077,1.9164 -6.8032,5.6533 -2.3955,3.6412 -2.3955,8.1447 0,6.899 5.1743,11.4984 5.2701,4.5993 15.3312,4.5993 9.9652,0 17.7266,-4.3119 7.7614,-4.4077 11.4025,-11.9774 2.7788,-5.845 2.7788,-17.2476 z" />
        <path
           inkscape:connector-curvature="0"
           id="path5894"
           style="fill:#40574c;fill-opacity:1;stroke:#40574c;stroke-width:6;stroke-miterlimit:4;stroke-dasharray:none;stroke-opacity:1"
           d="m 1218.9765,1582.4128 v -101.7605 h 15.5228 v 15.427 q 5.9408,-10.8277 10.9234,-14.2772 5.0785,-3.4495 11.1151,-3.4495 8.7196,0 17.7267,5.5576 l -5.9408,16.0019 q -6.3241,-3.737 -12.6482,-3.737 -5.6534,0 -10.1569,3.4495 -4.5036,3.3537 -6.42,9.3903 -2.8745,9.1987 -2.8745,20.1222 v 53.2757 z" />
        <path
           inkscape:connector-curvature="0"
           id="path5896"
           style="fill:#40574c;fill-opacity:1;stroke:#40574c;stroke-width:6;stroke-miterlimit:4;stroke-dasharray:none;stroke-opacity:1"
           d="m 1277.8098,1552.038 17.0559,-2.683 q 1.4373,10.2527 7.953,15.7145 6.6116,5.4617 18.3974,5.4617 11.8817,0 17.6308,-4.791 5.7492,-4.8868 5.7492,-11.4025 0,-5.845 -5.0784,-9.1987 -3.5454,-2.2997 -17.6309,-5.845 -18.9723,-4.791 -26.3504,-8.2405 -7.2823,-3.5454 -11.1151,-9.6778 -3.7369,-6.2283 -3.7369,-13.7022 0,-6.8032 3.0662,-12.5524 3.162,-5.845 8.528,-9.6778 4.0244,-2.9704 10.9234,-4.9826 6.9948,-2.1081 14.9479,-2.1081 11.9774,0 20.9845,3.4495 9.1029,3.4495 13.4148,9.3904 4.3118,5.845 5.9408,15.7144 l -16.8643,2.2997 q -1.1498,-7.8572 -6.7074,-12.2649 -5.4617,-4.4078 -15.5228,-4.4078 -11.8816,0 -16.9601,3.9287 -5.0784,3.9286 -5.0784,9.1986 0,3.3537 2.108,6.0367 2.1081,2.7788 6.6116,4.5993 2.5871,0.9582 15.2353,4.4077 18.3016,4.8868 25.4881,8.0489 7.2823,3.0662 11.4025,9.0071 4.1203,5.9408 4.1203,14.7562 0,8.6238 -5.0785,16.2893 -4.9826,7.5698 -14.4688,11.7859 -9.4861,4.1202 -21.4636,4.1202 -19.8347,0 -30.279,-8.2405 -10.3485,-8.2405 -13.2231,-24.434 z" />
        <path
           inkscape:connector-curvature="0"
           id="path5898"
           style="fill:#40574c;fill-opacity:1;stroke:#40574c;stroke-width:6;stroke-miterlimit:4;stroke-dasharray:none;stroke-opacity:1"
           d="m 1387.715,1582.4128 v -19.643 h 19.6431 v 19.643 z" />
      </g>
      <g
         id="text5836"
         style="font-style:normal;font-variant:normal;font-weight:normal;font-stretch:normal;font-size:196.1333313px;line-height:1.25;font-family:Arial;-inkscape-font-specification:Arial;letter-spacing:0px;word-spacing:0px;fill:#40574c;fill-opacity:1;stroke:#40574c;stroke-width:6;stroke-miterlimit:4;stroke-dasharray:none;stroke-opacity:1"
         aria-label="ar"
         transform="translate(-193.16753,-1178.4371)">
        <path
           inkscape:connector-curvature="0"
           id="path5901"
           d="m 639.78621,1569.8684 q -9.57683,8.1403 -18.48327,11.4922 -8.81068,3.3519 -18.96211,3.3519 -16.75944,0 -25.76166,-8.1403 -9.00221,-8.2361 -9.00221,-20.9732 0,-7.47 3.35189,-13.5991 3.44766,-6.225 8.90644,-9.9599 5.55456,-3.735 12.44987,-5.6504 5.07572,-1.3407 15.32292,-2.5857 20.87747,-2.49 30.7416,-5.9376 0.0958,-3.5434 0.0958,-4.5011 0,-10.5345 -4.88418,-14.8441 -6.60801,-5.8419 -19.63249,-5.8419 -12.16256,0 -18.00442,4.3096 -5.7461,4.2138 -8.52338,15.0356 l -16.8552,-2.2984 q 2.29843,-10.8218 7.56569,-17.4298 5.26725,-6.7038 15.22714,-10.2472 9.9599,-3.6392 23.08015,-3.6392 13.02448,0 21.16478,3.0646 8.1403,3.0645 11.97102,7.7572 3.83073,4.5969 5.36303,11.6837 0.86191,4.4053 0.86191,15.8975 v 22.9844 q 0,24.0378 1.05345,30.4543 1.14922,6.3207 4.40534,12.1626 h -18.00443 q -2.68151,-5.3631 -3.44765,-12.5457 z m -1.43653,-38.4988 q -9.38528,3.8307 -28.15586,6.5122 -10.63027,1.5323 -15.03561,3.4477 -4.40534,1.9154 -6.79954,5.6503 -2.39421,3.6392 -2.39421,8.1403 0,6.8953 5.17149,11.4922 5.26725,4.5969 15.32291,4.5969 9.9599,0 17.71712,-4.3096 7.75723,-4.4053 11.39642,-11.971 2.77728,-5.8419 2.77728,-17.2383 z" />
        <path
           inkscape:connector-curvature="0"
           id="path5903"
           d="m 682.40307,1582.4141 v -101.7059 h 15.51445 v 15.4187 q 5.93763,-10.8218 10.91758,-14.2695 5.07571,-3.4476 11.10911,-3.4476 8.71491,0 17.71713,5.5545 l -5.93763,15.9933 q -6.32071,-3.7349 -12.64141,-3.7349 -5.65033,0 -10.15143,3.4476 -4.50111,3.3519 -6.41647,9.3853 -2.87305,9.1937 -2.87305,20.1113 v 53.2472 z" />
      </g>
      <g
         id="text5832-5"
         style="font-style:normal;font-variant:normal;font-weight:normal;font-stretch:normal;font-size:196.23878479px;line-height:1.25;font-family:Arial;-inkscape-font-specification:Arial;letter-spacing:0px;word-spacing:0px;fill:#fe903e;fill-opacity:1;stroke:#fe903e;stroke-width:6;stroke-miterlimit:4;stroke-dasharray:none;stroke-opacity:1"
         aria-label="ng"
         transform="translate(-193.16753,-1178.4371)">
        <path
           inkscape:connector-curvature="0"
           id="path5906"
           style="fill:#fe903e;fill-opacity:1;stroke:#fe903e;stroke-width:6;stroke-miterlimit:4;stroke-dasharray:none;stroke-opacity:1"
           d="m 1437.2538,1582.4128 v -101.7605 h 15.5228 v 14.4688 q 11.2109,-16.7685 32.387,-16.7685 9.1987,0 16.8643,3.3537 7.7614,3.2579 11.5942,8.6238 3.8328,5.3659 5.3659,12.744 0.9582,4.791 0.9582,16.7685 v 62.5702 h -17.2476 v -61.8995 q 0,-10.5402 -2.0122,-15.7144 -2.0122,-5.2701 -7.1864,-8.3363 -5.0785,-3.1621 -11.9775,-3.1621 -11.0193,0 -19.0681,6.9948 -7.9531,6.9949 -7.9531,26.5421 v 55.5754 z" />
        <path
           inkscape:connector-curvature="0"
           id="path5908"
           style="fill:#fe903e;fill-opacity:1;stroke:#fe903e;stroke-width:6;stroke-miterlimit:4;stroke-dasharray:none;stroke-opacity:1"
           d="m 1543.3262,1590.845 16.7685,2.4913 q 1.054,7.7614 5.845,11.3067 6.4199,4.791 17.535,4.791 11.9774,0 18.4932,-4.791 6.5157,-4.791 8.8154,-13.4147 1.3415,-5.2701 1.2456,-22.1344 -11.3067,13.3189 -28.171,13.3189 -20.9845,0 -32.4828,-15.1395 -11.4984,-15.1395 -11.4984,-36.3156 0,-14.5646 5.2701,-26.8296 5.2701,-12.3607 15.2353,-19.0681 10.0611,-6.7074 23.5717,-6.7074 18.0141,0 29.7041,14.5646 v -12.2649 h 15.9061 v 87.9625 q 0,23.7633 -4.8869,33.6327 -4.7909,9.9653 -15.3311,15.7145 -10.4444,5.7491 -25.7755,5.7491 -18.2058,0 -29.4167,-8.2405 -11.2109,-8.1446 -10.8276,-24.6256 z m 14.2771,-61.133 q 0,20.0263 7.9531,29.225 7.953,9.1987 19.9305,9.1987 11.8816,0 19.9305,-9.1029 8.0488,-9.1987 8.0488,-28.7459 0,-18.6848 -8.3363,-28.171 -8.2405,-9.4861 -19.9305,-9.4861 -11.4983,0 -19.5472,9.3903 -8.0489,9.2945 -8.0489,27.6919 z" />
      </g>
    </g>
  </g>
</svg>
