<?xml version="1.0" encoding="UTF-8" standalone="no"?>
<!-- Created with Inkscape (http://www.inkscape.org/) -->

<svg
   xmlns:dc="http://purl.org/dc/elements/1.1/"
   xmlns:cc="http://creativecommons.org/ns#"
   xmlns:rdf="http://www.w3.org/1999/02/22-rdf-syntax-ns#"
   xmlns:svg="http://www.w3.org/2000/svg"
   xmlns="http://www.w3.org/2000/svg"
   xmlns:sodipodi="http://sodipodi.sourceforge.net/DTD/sodipodi-0.dtd"
   xmlns:inkscape="http://www.inkscape.org/namespaces/inkscape"
   width="134.15685mm"
   height="135.12981mm"
   viewBox="0 0 134.15685 135.12981"
   version="1.1"
   id="svg8"
   inkscape:version="0.92.4 (5da689c313, 2019-01-14)"
   sodipodi:docname="sent-mail.svg">
  <defs
     id="defs2" />
  <sodipodi:namedview
     id="base"
     pagecolor="#ffffff"
     bordercolor="#666666"
     borderopacity="1.0"
     inkscape:pageopacity="0.0"
     inkscape:pageshadow="2"
     inkscape:zoom="0.35"
     inkscape:cx="-190.6238"
     inkscape:cy="202.70855"
     inkscape:document-units="mm"
     inkscape:current-layer="layer1"
     showgrid="false"
     inkscape:window-width="1600"
     inkscape:window-height="838"
     inkscape:window-x="-8"
     inkscape:window-y="-8"
     inkscape:window-maximized="1" />
  <metadata
     id="metadata5">
    <rdf:RDF>
      <cc:Work
         rdf:about="">
        <dc:format>image/svg+xml</dc:format>
        <dc:type
           rdf:resource="http://purl.org/dc/dcmitype/StillImage" />
        <dc:title></dc:title>
      </cc:Work>
    </rdf:RDF>
  </metadata>
  <g
     inkscape:label="Layer 1"
     inkscape:groupmode="layer"
     id="layer1"
     transform="translate(-47.2173,-67.974211)">
    <g
       id="g907">
      <path
         style="fill:none;stroke-width:1.37525725"
         inkscape:connector-curvature="0"
         d="m 156.05928,157.73725 c -11.07495,0 -20.08838,9.01343 -20.08838,20.08838 0,11.07495 9.01481,20.08838 20.08838,20.08838 11.0777,0 20.08838,-9.01343 20.08838,-20.08838 0,-11.07495 -9.01068,-20.08838 -20.08838,-20.08838 z m -4.20554,31.48239 -10.0325,-10.03388 2.89492,-2.89354 7.13621,7.13621 15.54728,-15.54728 2.89492,2.89491 z"
         id="path815" />
      <rect
         style="fill:#cccccc;fill-opacity:1;stroke-width:1.37525725"
         x="78.277481"
         y="120.23674"
         width="53.582775"
         height="4.0955157"
         id="rect817" />
      <rect
         style="fill:#cccccc;fill-opacity:1;stroke-width:1.37525725"
         x="78.277481"
         y="107.04665"
         width="28.98217"
         height="4.0941405"
         id="rect819" />
      <rect
         style="fill:#cccccc;fill-opacity:1;stroke-width:1.37525725"
         x="78.277481"
         y="133.42546"
         width="53.582775"
         height="4.0941405"
         id="rect821" />
      <path
         style="fill:#cccccc;fill-opacity:1;stroke-width:1.37525725"
         inkscape:connector-curvature="0"
         d="M 162.93007,154.6498 V 125.99081 L 152.07516,115.10565 V 87.584003 c 0,-4.978431 -4.04463,-9.028563 -9.02031,-9.028563 H 115.63222 L 105.07712,67.974211 94.520646,78.554065 H 67.098018 c -4.978431,0 -9.028564,4.050132 -9.028564,9.028563 V 115.10152 L 47.2173,125.98256 v 59.41249 L 68.665811,163.94241 76.91873,155.68812 62.163595,140.93436 V 87.584003 c 0,-2.718883 2.212789,-4.934422 4.934423,-4.934422 h 75.958202 c 2.71889,0 4.92617,2.215539 4.92617,4.934422 v 53.354477 l -14.75375,14.75514 5.40476,5.40751 c -0.47584,0.49509 -0.93518,1.00256 -1.36701,1.53891 -1.32162,1.63243 -2.42595,3.43952 -3.29374,5.37863 l -5.2191,-5.2191 -1.31612,-1.31475 -1.36701,1.36701 -20.9933,20.99193 -20.210779,-20.20941 -2.157779,-2.15365 -2.238918,2.23892 -32.574342,32.57709 c 1.383508,3.46702 4.766641,5.93011 8.717755,5.93011 h 96.918503 c 0.58586,0 1.11946,-0.15541 1.67644,-0.25992 0.28467,0.0124 0.56385,0.044 0.85128,0.044 13.33587,0 24.18527,-10.84803 24.18527,-24.18389 0,-10.9498 -7.31912,-20.20528 -17.31448,-23.17721 z m -6.87079,43.26559 c -11.07495,0 -20.08838,-9.01344 -20.08838,-20.08838 0,-11.07495 9.01481,-20.08976 20.08838,-20.08976 11.0777,0 20.08838,9.01343 20.08838,20.08838 0,11.07495 -9.01068,20.08976 -20.08838,20.08976 z"
         id="path823" />
      <polygon
         style="fill:#ec6b33;fill-opacity:1"
         transform="matrix(1.3752572,0,0,1.3752572,44.967379,66.337655)"
         points="77.721,85.141 72.531,79.951 70.426,82.056 77.721,89.352 91.131,75.941 89.025,73.836 "
         id="polygon825" />
      <circle
         r="22.677914"
         cy="177.82611"
         cx="156.09624"
         id="path882"
         style="opacity:1;fill:none;fill-opacity:1;fill-rule:nonzero;stroke:#ec6b33;stroke-width:5.19999981;stroke-linecap:round;stroke-linejoin:miter;stroke-miterlimit:4;stroke-dasharray:none;stroke-opacity:1;paint-order:markers fill stroke" />
    </g>
  </g>
</svg>
