<?xml version="1.0" encoding="UTF-8" standalone="no"?>
<!-- Created with Inkscape (http://www.inkscape.org/) -->

<svg
   xmlns:dc="http://purl.org/dc/elements/1.1/"
   xmlns:cc="http://creativecommons.org/ns#"
   xmlns:rdf="http://www.w3.org/1999/02/22-rdf-syntax-ns#"
   xmlns:svg="http://www.w3.org/2000/svg"
   xmlns="http://www.w3.org/2000/svg"
   xmlns:sodipodi="http://sodipodi.sourceforge.net/DTD/sodipodi-0.dtd"
   xmlns:inkscape="http://www.inkscape.org/namespaces/inkscape"
   width="70.411552mm"
   height="39.6875mm"
   viewBox="0 0 70.411552 39.6875"
   version="1.1"
   id="svg1001"
   inkscape:version="0.92.4 (5da689c313, 2019-01-14)"
   sodipodi:docname="wema.svg">
  <defs
     id="defs995" />
  <sodipodi:namedview
     id="base"
     pagecolor="#ffffff"
     bordercolor="#666666"
     borderopacity="1.0"
     inkscape:pageopacity="0.0"
     inkscape:pageshadow="2"
     inkscape:zoom="0.7"
     inkscape:cx="-332.50353"
     inkscape:cy="21.274641"
     inkscape:document-units="mm"
     inkscape:current-layer="layer1"
     showgrid="false"
     inkscape:window-width="1600"
     inkscape:window-height="838"
     inkscape:window-x="-8"
     inkscape:window-y="-8"
     inkscape:window-maximized="1" />
  <metadata
     id="metadata998">
    <rdf:RDF>
      <cc:Work
         rdf:about="">
        <dc:format>image/svg+xml</dc:format>
        <dc:type
           rdf:resource="http://purl.org/dc/dcmitype/StillImage" />
        <dc:title />
      </cc:Work>
    </rdf:RDF>
  </metadata>
  <g
     inkscape:label="Layer 1"
     inkscape:groupmode="layer"
     id="layer1"
     transform="translate(-63.823986,-109.20631)">
    <g
       id="g842">
      <path
         inkscape:connector-curvature="0"
         id="path1557"
         d="m 65.184972,145.48165 c -0.686677,-1.87275 -1.270084,-3.46634 -1.29646,-3.5413 -0.03724,-0.10584 0.144695,-0.12941 0.813997,-0.10546 l 0.861952,0.0308 0.745844,1.97516 c 0.410214,1.08634 0.774838,1.94058 0.810276,1.89832 0.03544,-0.0423 0.410859,-0.94295 0.834271,-2.00153 l 0.769838,-1.92468 0.792807,0.001 0.792806,0.001 0.6084,1.60685 c 0.33462,0.88377 0.68902,1.79066 0.787556,2.01532 l 0.179157,0.40846 0.788612,-1.99039 0.788611,-1.9904 0.807556,-0.0308 c 0.444157,-0.0169 0.805804,0.007 0.803661,0.0527 -0.0021,0.0459 -0.584688,1.62592 -1.294545,3.51105 l -1.29065,3.42752 -0.617673,0.0286 -0.617673,0.0286 -0.884596,-2.21424 c -0.486529,-1.21783 -0.907478,-2.19121 -0.935443,-2.16306 -0.02797,0.0281 -0.438524,1.01167 -0.912354,2.18561 l -0.861509,2.13444 -0.612968,0.0302 -0.612968,0.0302 z"
         style="opacity:1;fill:#808080;fill-opacity:1;fill-rule:nonzero;stroke:none;stroke-width:1.6273576;stroke-linecap:round;stroke-linejoin:miter;stroke-miterlimit:4;stroke-dasharray:none;stroke-opacity:1;paint-order:markers fill stroke" />
      <path
         inkscape:connector-curvature="0"
         id="path1559"
         d="M 75.811205,145.34598 V 141.813 h 3.195762 3.195762 v 0.6855 0.6855 H 79.8452 77.487671 v 0.68551 0.6855 h 1.624075 1.624076 v 0.6855 0.68551 h -1.624076 -1.624075 v 0.79096 0.79097 h 2.409919 2.409918 v 0.6855 0.68551 h -3.248151 -3.248152 z"
         style="opacity:1;fill:#808080;fill-opacity:1;fill-rule:nonzero;stroke:none;stroke-width:1.6273576;stroke-linecap:round;stroke-linejoin:miter;stroke-miterlimit:4;stroke-dasharray:none;stroke-opacity:1;paint-order:markers fill stroke" />
      <path
         inkscape:connector-curvature="0"
         id="path1561"
         d="m 83.3553,145.29325 v -3.58572 h 0.92366 0.92366 l 1.077505,1.95513 1.077506,1.95512 1.121953,-1.92876 1.121953,-1.92876 0.910876,-0.0305 0.910876,-0.0305 v 3.58982 3.58982 h -0.836063 -0.836063 l -0.02837,-2.09385 -0.02836,-2.09386 -1.195327,2.04112 c -0.657431,1.12262 -1.230708,2.04113 -1.273951,2.04113 -0.04324,0 -0.589808,-0.92057 -1.214591,-2.04572 l -1.135969,-2.04571 -0.02836,2.09845 -0.02836,2.09844 H 84.086584 83.3553 Z"
         style="opacity:1;fill:#808080;fill-opacity:1;fill-rule:nonzero;stroke:none;stroke-width:1.6273576;stroke-linecap:round;stroke-linejoin:miter;stroke-miterlimit:4;stroke-dasharray:none;stroke-opacity:1;paint-order:markers fill stroke" />
      <path
         inkscape:connector-curvature="0"
         id="path1563"
         d="m 91.994466,148.6944 c 0.03834,-0.10151 0.762427,-1.6929 1.609091,-3.53642 l 1.539389,-3.35187 0.715063,0.0298 0.715063,0.0298 1.658153,3.50661 1.658152,3.50662 H 99.010433 98.13149 l -0.421456,-0.8437 -0.421455,-0.8437 h -1.497148 -1.497148 l -0.408685,0.8437 -0.408686,0.8437 h -0.776073 c -0.695819,0 -0.768867,-0.0191 -0.706373,-0.18456 z m 4.329325,-3.66481 c -0.242936,-0.49304 -0.477819,-0.89643 -0.521962,-0.89643 -0.07175,0 -0.92083,1.60238 -0.92083,1.73779 0,0.0303 0.424011,0.0551 0.942248,0.0551 h 0.942248 z"
         style="opacity:1;fill:#808080;fill-opacity:1;fill-rule:nonzero;stroke:none;stroke-width:1.6273576;stroke-linecap:round;stroke-linejoin:miter;stroke-miterlimit:4;stroke-dasharray:none;stroke-opacity:1;paint-order:markers fill stroke" />
      <path
         inkscape:connector-curvature="0"
         id="path1565"
         d="m 102.92279,148.81918 c -0.0432,-0.0445 -0.0786,-1.66569 -0.0786,-3.60272 v -3.52189 l 2.69806,0.0328 c 2.49585,0.0304 2.72947,0.0493 3.11718,0.25294 1.03076,0.54131 1.29899,1.88824 0.54757,2.74965 l -0.32299,0.37026 0.34568,0.2723 c 0.82957,0.65346 0.82569,2.07101 -0.008,2.84222 -0.58023,0.53689 -0.91031,0.59485 -3.65346,0.64154 -1.4119,0.024 -2.60245,0.007 -2.64568,-0.0372 z m 5.065,-1.7184 c 0.23176,-0.28828 0.25734,-0.63388 0.0664,-0.89675 -0.19859,-0.27336 -0.81748,-0.37815 -2.24994,-0.38096 l -1.28354,-0.003 v 0.80044 0.80043 l 1.63347,-0.0358 c 1.56954,-0.0344 1.64132,-0.0456 1.83364,-0.28481 z m -0.18245,-2.8487 c 0.21913,-0.1833 0.22381,-0.68553 0.008,-0.90235 -0.13498,-0.13586 -0.44656,-0.16573 -1.72885,-0.16573 h -1.5642 v 0.64245 0.64244 l 1.5558,-0.036 c 1.12097,-0.026 1.60418,-0.0765 1.72886,-0.18078 z"
         style="opacity:1;fill:#808080;fill-opacity:1;fill-rule:nonzero;stroke:none;stroke-width:1.6273576;stroke-linecap:round;stroke-linejoin:miter;stroke-miterlimit:4;stroke-dasharray:none;stroke-opacity:1;paint-order:markers fill stroke" />
      <path
         inkscape:connector-curvature="0"
         id="path1567"
         d="m 110.17875,148.79776 c 0,-0.0447 0.72237,-1.64637 1.60527,-3.55935 l 1.60527,-3.47815 h 0.70792 0.70792 l 1.61602,3.4207 c 0.88882,1.88139 1.61603,3.48509 1.61603,3.56379 0,0.11081 -0.18316,0.13613 -0.81204,0.11228 l -0.81204,-0.0308 -0.4499,-0.87007 -0.4499,-0.87006 h -1.49136 -1.49135 l -0.44171,0.89643 -0.4417,0.89643 h -0.73422 c -0.40382,0 -0.73421,-0.0365 -0.73421,-0.0812 z m 4.3766,-3.87363 c -0.24293,-0.49304 -0.46784,-0.89643 -0.49978,-0.89643 -0.0319,0 -0.25684,0.40339 -0.49978,0.89643 l -0.4417,0.89643 h 0.94148 0.94149 z"
         style="opacity:1;fill:#808080;fill-opacity:1;fill-rule:nonzero;stroke:none;stroke-width:1.6273576;stroke-linecap:round;stroke-linejoin:miter;stroke-miterlimit:4;stroke-dasharray:none;stroke-opacity:1;paint-order:markers fill stroke" />
      <path
         inkscape:connector-curvature="0"
         id="path1569"
         d="m 118.87541,145.29325 v -3.58572 h 0.71972 0.71972 l 2.01567,2.10925 c 1.10862,1.16008 2.05781,2.10924 2.10931,2.10924 0.0519,0 0.0936,-0.94056 0.0936,-2.10924 v -2.10925 h 0.73345 0.73346 v 3.58572 3.58571 h -0.60159 -0.60159 l -2.22744,-2.24015 -2.22745,-2.24015 v 2.24015 2.24015 h -0.73346 -0.73345 z"
         style="opacity:1;fill:#808080;fill-opacity:1;fill-rule:nonzero;stroke:none;stroke-width:1.6273576;stroke-linecap:round;stroke-linejoin:miter;stroke-miterlimit:4;stroke-dasharray:none;stroke-opacity:1;paint-order:markers fill stroke" />
      <path
         inkscape:connector-curvature="0"
         id="path1571"
         d="m 127.04818,145.29325 v -3.58572 h 0.78584 0.78584 v 1.31828 c 0,0.72505 0.0354,1.31646 0.0786,1.31423 0.0432,-0.002 0.80942,-0.59536 1.70266,-1.31808 l 1.62408,-1.31404 1.09726,-2.3e-4 c 1.2857,-2.2e-4 1.3675,-0.18482 -0.67815,1.53052 -0.74917,0.6282 -1.42848,1.20248 -1.50957,1.27619 -0.12386,0.11256 0.11497,0.46133 1.4931,2.18035 0.9023,1.12549 1.64055,2.07914 1.64055,2.11922 0,0.0401 -0.43526,0.0592 -0.96725,0.0425 l -0.96725,-0.0303 -1.13687,-1.37101 c -0.62527,-0.75406 -1.20161,-1.46154 -1.28074,-1.5722 -0.13801,-0.19298 -0.16329,-0.18518 -0.62014,0.19162 l -0.47627,0.39281 v 1.20575 1.20576 h -0.78584 -0.78584 z"
         style="opacity:1;fill:#808080;fill-opacity:1;fill-rule:nonzero;stroke:none;stroke-width:1.6273576;stroke-linecap:round;stroke-linejoin:miter;stroke-miterlimit:4;stroke-dasharray:none;stroke-opacity:1;paint-order:markers fill stroke" />
      <path
         inkscape:connector-curvature="0"
         id="path1573"
         d="m 94.013671,135.37215 c -0.167646,-0.13273 -0.276078,-0.32286 -0.276078,-0.4841 0,-0.14604 1.016961,-2.49783 2.259912,-5.22621 2.115064,-4.64273 2.251921,-4.9801 2.13526,-5.26358 -0.06856,-0.16659 -0.15549,-0.3029 -0.19318,-0.3029 -0.03769,0 -0.963193,1.95596 -2.056675,4.34658 -2.164291,4.73166 -2.203485,4.79377 -2.853913,4.5226 -0.273332,-0.11396 -0.408583,-0.3361 -0.958524,-1.57435 -0.352158,-0.79293 -0.639777,-1.5131 -0.639154,-1.60038 5.87e-4,-0.0873 1.014872,-2.38051 2.253884,-5.09606 1.239013,-2.71556 2.251079,-4.99331 2.249037,-5.06168 -0.002,-0.0684 -0.06952,-0.24296 -0.149961,-0.38797 -0.16683,-0.30076 0.133087,-0.89022 -2.709768,5.32584 -1.239209,2.7096 -1.543644,3.29288 -1.778184,3.40691 -0.667506,0.32452 -0.50832,0.61736 -4.861817,-8.94367 -2.205359,-4.84335 -4.01049,-8.9046 -4.011402,-9.02499 -0.0022,-0.2937 0.420673,-0.67753 0.746481,-0.67753 0.144718,0 0.359586,0.10678 0.477483,0.23729 0.117898,0.13051 1.803106,3.72545 3.744906,7.98876 1.941802,4.26331 3.563147,7.78507 3.60299,7.82613 0.07378,0.0761 3.7929,-7.98464 3.791295,-8.21713 -5.13e-4,-0.07 -0.708138,-1.68005 -1.572566,-3.57781 -0.864427,-1.89776 -1.571686,-3.5608 -1.571686,-3.69566 0,-0.59544 0.819788,-0.88407 1.220607,-0.42975 0.11514,0.13051 0.767862,1.4712 1.450493,2.97931 0.682632,1.50811 1.270963,2.77767 1.307404,2.82125 0.03644,0.0436 0.628871,-1.16243 1.316511,-2.68002 0.687639,-1.5176 1.336961,-2.87021 1.442935,-3.00582 0.185397,-0.23723 0.247557,-0.24655 1.644369,-0.24655 1.4435,0 1.45293,0.002 1.66886,0.27788 0.11944,0.15283 0.21717,0.34099 0.21717,0.41812 0,0.0771 -0.96622,2.26331 -2.147151,4.85819 -2.066209,4.54009 -2.142441,4.73107 -2.022144,5.06591 0.06876,0.19138 0.154431,0.34796 0.190389,0.34796 0.03596,0 1.146314,-2.37579 2.467446,-5.27954 1.32115,-2.90374 2.48643,-5.37156 2.58953,-5.48403 0.16733,-0.18254 0.33629,-0.20449 1.57456,-0.20449 1.59417,0 1.85369,0.0932 1.85169,0.66512 -7.3e-4,0.21676 -1.15996,2.87371 -3.25275,7.45547 -2.07302,4.53848 -3.23256,7.19514 -3.199129,7.32961 0.02884,0.11601 0.113419,0.29239 0.187959,0.39196 0.1176,0.15711 0.60579,-0.85191 3.69248,-7.63185 1.95632,-4.29709 3.64538,-7.92604 3.75345,-8.06433 0.19017,-0.24333 0.24333,-0.25144 1.6482,-0.25144 h 1.4517 l 0.22482,0.28767 c 0.12383,0.15845 0.20462,0.38348 0.17987,0.50095 -0.0247,0.1173 -2.03815,4.5904 -4.47428,9.94022 -4.24917,9.33131 -4.42399,9.73989 -4.29832,10.04526 0.0721,0.17508 0.16064,0.31808 0.19687,0.31779 0.0362,-3e-4 2.20936,-4.70231 4.82917,-10.44891 2.72368,-5.97445 4.84064,-10.49005 4.94392,-10.54568 0.0994,-0.0535 0.79669,-0.0973 1.54965,-0.0973 1.22931,0 1.3904,0.0215 1.57857,0.21093 0.11526,0.116 0.20956,0.33389 0.20956,0.48418 0,0.15029 -2.57525,5.91299 -5.72278,12.80599 -5.23971,11.47483 -5.74883,12.54359 -6.03147,12.66142 -0.26762,0.11158 -0.34615,0.10068 -0.59016,-0.0819 -0.15695,-0.11742 -0.29638,-0.33681 -0.31518,-0.49593 -0.0237,-0.20031 1.55959,-3.78156 5.31213,-12.01582 2.94022,-6.45175 5.3769,-11.8119 5.41485,-11.91144 0.0555,-0.14569 0.009,-0.181 -0.23857,-0.181 -0.30615,0 -0.33092,0.0511 -5.32669,10.98155 -3.57698,7.82624 -5.08839,11.02723 -5.26022,11.14055 -0.1808,0.11924 -0.32547,0.13468 -0.57835,0.0617 -0.30742,-0.0887 -0.39459,-0.22278 -0.98613,-1.51714 -0.3569,-0.78092 -0.65159,-1.51881 -0.65487,-1.63976 -0.005,-0.16587 7.97223,-17.85891 8.49346,-18.83918 0.0864,-0.16251 0.0536,-0.18736 -0.24439,-0.18488 l -0.34422,0.003 -3.87683,8.49706 c -3.26628,7.1589 -3.92127,8.52031 -4.15908,8.64467 -0.45447,0.23768 -0.759948,0.0463 -1.145727,-0.71779 l -0.334779,-0.66308 -0.436667,0.94915 c -0.240167,0.52204 -1.154653,2.52075 -2.032192,4.44158 -1.279387,2.80043 -1.647224,3.51613 -1.856447,3.61208 -0.348951,0.16003 -0.38831,0.15453 -0.708437,-0.0989 z m 1.227025,-9.03467 c 1.209483,-2.65682 1.840158,-4.15974 1.803411,-4.29758 -0.07196,-0.26994 -0.242795,-0.53725 -0.302017,-0.47258 -0.02502,0.0273 -0.881227,1.89059 -1.902683,4.14059 -1.755165,3.86617 -1.850135,4.10806 -1.728738,4.40304 0.07065,0.17168 0.160325,0.31214 0.19928,0.31214 0.03896,0 0.907791,-1.83853 1.930747,-4.08561 z m 6.535004,-9.33829 c 1.4531,-3.20262 2.67227,-5.90599 2.70927,-6.0075 0.0543,-0.1488 0.009,-0.18456 -0.23536,-0.18456 -0.29778,0 -0.34432,0.0912 -2.89407,5.66859 -2.506925,5.48374 -2.587216,5.67977 -2.46224,6.01134 0.07106,0.18852 0.154216,0.34103 0.184804,0.33891 0.03059,-0.002 1.244506,-2.62416 2.697596,-5.82678 z m -3.793213,-1.73628 c 0.625165,-1.3776 1.340169,-2.94671 1.588896,-3.48691 l 0.452227,-0.98217 -0.3381,0.033 c -0.335316,0.0327 -0.349922,0.0589 -1.772418,3.16882 -1.335927,2.9207 -1.426133,3.15762 -1.315028,3.45389 0.06561,0.17494 0.148192,0.31808 0.183521,0.31808 0.03533,0 0.575736,-1.12712 1.200902,-2.50472 z"
         style="opacity:1;fill:#808080;fill-opacity:1;fill-rule:nonzero;stroke:none;stroke-width:1.6273576;stroke-linecap:round;stroke-linejoin:miter;stroke-miterlimit:4;stroke-dasharray:none;stroke-opacity:1;paint-order:markers fill stroke" />
    </g>
  </g>
</svg>
